<svg width="24" height="24" viewBox="0 0 24 24" fill="none" xmlns="http://www.w3.org/2000/svg">
<g id="4781844_arrow_back_chevron_direction_left_icon 1" clip-path="url(#clip0_4510_4313)">
<g id="frame">
<path id="Vector" d="M12 24C18.6274 24 24 18.6274 24 12C24 5.37258 18.6274 -8.1423e-07 12 -5.24537e-07C5.37258 -2.34843e-07 -8.1423e-07 5.37258 -5.24537e-07 12C-2.34843e-07 18.6274 5.37258 24 12 24Z" fill="white"/>
<g id="Layer 2">
<path id="Vector_2" d="M21 8.00463C21.0007 8.13609 20.9762 8.2664 20.9278 8.3881C20.8795 8.50979 20.8082 8.62048 20.7181 8.71381L12.9421 16.7045C12.8517 16.7982 12.7442 16.8725 12.6258 16.9232C12.5073 16.9739 12.3803 17 12.252 17C12.1237 17 11.9966 16.9739 11.8782 16.9232C11.7597 16.8725 11.6522 16.7982 11.5619 16.7045L3.78586 8.71381C3.60283 8.52572 3.5 8.27063 3.5 8.00463C3.5 7.73864 3.60283 7.48354 3.78586 7.29546C3.96889 7.10737 4.21713 7.00171 4.47598 7.00171C4.73482 7.00171 4.98307 7.10737 5.1661 7.29546L12.252 14.587L19.3379 7.29546C19.4282 7.20184 19.5357 7.12753 19.6542 7.07682C19.7726 7.02611 19.8997 7 20.028 7C20.1563 7 20.2833 7.02611 20.4018 7.07682C20.5202 7.12753 20.6277 7.20184 20.7181 7.29546C20.8082 7.38879 20.8795 7.49947 20.9278 7.62117C20.9762 7.74287 21.0007 7.87318 21 8.00463Z" fill="#316AD9"/>
</g>
</g>
</g>
<defs>
<clipPath id="clip0_4510_4313">
<rect width="24" height="24" fill="white" transform="translate(0 24) rotate(-90)"/>
</clipPath>
</defs>
</svg>
