<svg width="24" height="25" viewBox="0 0 24 25" fill="none" xmlns="http://www.w3.org/2000/svg">
<path d="M21 8.60131C21.0007 8.73277 20.9762 8.86308 20.9278 8.98477C20.8795 9.10647 20.8082 9.21716 20.7181 9.31049L12.9421 17.3012C12.8517 17.3948 12.7442 17.4692 12.6258 17.5199C12.5073 17.5706 12.3803 17.5967 12.252 17.5967C12.1237 17.5967 11.9966 17.5706 11.8782 17.5199C11.7597 17.4692 11.6522 17.3948 11.5619 17.3012L3.78586 9.31049C3.60283 9.1224 3.5 8.86731 3.5 8.60131C3.5 8.33532 3.60283 8.08022 3.78586 7.89214C3.96889 7.70405 4.21713 7.59838 4.47598 7.59838C4.73482 7.59838 4.98307 7.70405 5.1661 7.89214L12.252 15.1837L19.3379 7.89213C19.4282 7.79852 19.5357 7.72421 19.6542 7.6735C19.7726 7.62279 19.8997 7.59668 20.028 7.59668C20.1563 7.59668 20.2833 7.62279 20.4018 7.6735C20.5202 7.72421 20.6277 7.79852 20.7181 7.89213C20.8082 7.98547 20.8795 8.09615 20.9278 8.21785C20.9762 8.33955 21.0007 8.46986 21 8.60131Z" fill="white"/>
</svg>
