<svg width="32" height="42" viewBox="0 0 32 42" fill="none" xmlns="http://www.w3.org/2000/svg">
<path id="Vector" d="M6.66667 0C3.00065 0 0 2.95376 0 6.5625V35.4375C0 39.0462 3.00065 42 6.66667 42H25.3333C28.9994 42 32 39.0462 32 35.4375V6.5625C32 2.95376 28.9994 0 25.3333 0H6.66667ZM6.66667 2.625H25.3333C27.558 2.625 29.3333 4.37261 29.3333 6.5625V35.4375C29.3333 37.6274 27.558 39.375 25.3333 39.375H6.66667C4.44202 39.375 2.66667 37.6274 2.66667 35.4375V6.5625C2.66667 4.37261 4.44202 2.625 6.66667 2.625ZM6.66667 5.25C5.93067 5.25 5.33333 5.838 5.33333 6.5625V11.8125C5.33333 12.537 5.93067 13.125 6.66667 13.125H25.3333C26.0693 13.125 26.6667 12.537 26.6667 11.8125V6.5625C26.6667 5.838 26.0693 5.25 25.3333 5.25H6.66667ZM8 15.75C7.29276 15.75 6.61448 16.0266 6.11438 16.5188C5.61429 17.0111 5.33333 17.6788 5.33333 18.375C5.33333 19.0712 5.61429 19.7389 6.11438 20.2312C6.61448 20.7234 7.29276 21 8 21C8.70724 21 9.38552 20.7234 9.88562 20.2312C10.3857 19.7389 10.6667 19.0712 10.6667 18.375C10.6667 17.6788 10.3857 17.0111 9.88562 16.5188C9.38552 16.0266 8.70724 15.75 8 15.75ZM16 15.75C15.2928 15.75 14.6145 16.0266 14.1144 16.5188C13.6143 17.0111 13.3333 17.6788 13.3333 18.375C13.3333 19.0712 13.6143 19.7389 14.1144 20.2312C14.6145 20.7234 15.2928 21 16 21C16.7072 21 17.3855 20.7234 17.8856 20.2312C18.3857 19.7389 18.6667 19.0712 18.6667 18.375C18.6667 17.6788 18.3857 17.0111 17.8856 16.5188C17.3855 16.0266 16.7072 15.75 16 15.75ZM24 15.75C23.2928 15.75 22.6145 16.0266 22.1144 16.5188C21.6143 17.0111 21.3333 17.6788 21.3333 18.375C21.3333 19.0712 21.6143 19.7389 22.1144 20.2312C22.6145 20.7234 23.2928 21 24 21C24.7072 21 25.3855 20.7234 25.8856 20.2312C26.3857 19.7389 26.6667 19.0712 26.6667 18.375C26.6667 17.6788 26.3857 17.0111 25.8856 16.5188C25.3855 16.0266 24.7072 15.75 24 15.75ZM8 23.625C7.29276 23.625 6.61448 23.9016 6.11438 24.3938C5.61429 24.8861 5.33333 25.5538 5.33333 26.25C5.33333 26.9462 5.61429 27.6139 6.11438 28.1062C6.61448 28.5984 7.29276 28.875 8 28.875C8.70724 28.875 9.38552 28.5984 9.88562 28.1062C10.3857 27.6139 10.6667 26.9462 10.6667 26.25C10.6667 25.5538 10.3857 24.8861 9.88562 24.3938C9.38552 23.9016 8.70724 23.625 8 23.625ZM16 23.625C15.2928 23.625 14.6145 23.9016 14.1144 24.3938C13.6143 24.8861 13.3333 25.5538 13.3333 26.25C13.3333 26.9462 13.6143 27.6139 14.1144 28.1062C14.6145 28.5984 15.2928 28.875 16 28.875C16.7072 28.875 17.3855 28.5984 17.8856 28.1062C18.3857 27.6139 18.6667 26.9462 18.6667 26.25C18.6667 25.5538 18.3857 24.8861 17.8856 24.3938C17.3855 23.9016 16.7072 23.625 16 23.625ZM24 23.625C23.2928 23.625 22.6145 23.9016 22.1144 24.3938C21.6143 24.8861 21.3333 25.5538 21.3333 26.25C21.3333 26.9462 21.6143 27.6139 22.1144 28.1062C22.6145 28.5984 23.2928 28.875 24 28.875C24.7072 28.875 25.3855 28.5984 25.8856 28.1062C26.3857 27.6139 26.6667 26.9462 26.6667 26.25C26.6667 25.5538 26.3857 24.8861 25.8856 24.3938C25.3855 23.9016 24.7072 23.625 24 23.625ZM8 31.5C6.52667 31.5 5.33333 32.6747 5.33333 34.125C5.33333 35.5753 6.52667 36.75 8 36.75H16C17.4733 36.75 18.6667 35.5753 18.6667 34.125C18.6667 32.6747 17.4733 31.5 16 31.5H8ZM24 31.5C23.2928 31.5 22.6145 31.7766 22.1144 32.2688C21.6143 32.7611 21.3333 33.4288 21.3333 34.125C21.3333 34.8212 21.6143 35.4889 22.1144 35.9812C22.6145 36.4734 23.2928 36.75 24 36.75C24.7072 36.75 25.3855 36.4734 25.8856 35.9812C26.3857 35.4889 26.6667 34.8212 26.6667 34.125C26.6667 33.4288 26.3857 32.7611 25.8856 32.2688C25.3855 31.7766 24.7072 31.5 24 31.5Z" fill="white"/>
</svg>
