<svg width="26" height="26" viewBox="0 0 26 26" fill="none" xmlns="http://www.w3.org/2000/svg">
<path id="Vector" d="M25.9218 1.10711C25.8653 0.54136 25.4416 0.117049 24.8767 0.0604747C17.7301 -0.505273 12.6173 2.97407 9.4254 7.33033C7.67407 6.76458 5.78151 6.96259 4.05843 7.92437C2.39184 8.85785 1.00772 10.4419 0.103809 12.3655C-0.0939221 12.8181 -0.00918033 13.3273 0.358034 13.6667C0.697001 14.0062 1.2337 14.0627 1.65741 13.8364C3.46523 12.8747 5.49904 13.0727 6.71367 14.289L11.6852 19.2676L11.7134 19.2959C12.9281 20.5122 13.1258 22.5489 12.1654 24.3593C11.9394 24.7836 12.0242 25.3211 12.3349 25.6606C12.5609 25.8869 12.8433 26 13.154 26C13.3235 26 13.493 25.9717 13.6342 25.8869C15.5551 24.9817 17.1369 23.5673 18.0691 21.9266C19.0577 20.2011 19.2555 18.3058 18.6623 16.5237C19.9334 15.5902 21.0915 14.5719 22.0519 13.4404C25.0461 10.0176 26.3455 5.85939 25.9218 1.10711ZM3.8042 10.9794C5.01883 9.79133 6.54418 9.05586 8.15428 9.33873C7.70232 10.1308 7.33511 10.9228 6.99614 11.7149C6.03573 11.1774 4.93409 10.9228 3.8042 10.9794ZM15.0749 22.2378C15.1031 21.078 14.8489 19.9748 14.3404 19.013C15.1596 18.6736 15.9505 18.2775 16.7132 17.8532C16.9957 19.4656 16.2895 21.0214 15.0749 22.2378ZM12.8151 17.1743L8.83221 13.1858C10.8378 7.8395 15.8093 2.12545 23.7468 2.26689C24.001 11.7432 16.2047 15.8448 12.8151 17.1743ZM20.1311 5.88767C20.4701 6.22712 20.6678 6.70801 20.6678 7.18889C20.6678 7.66978 20.4701 8.15066 20.1311 8.49011C19.7921 8.82956 19.3119 9.02757 18.8317 9.02757C18.3515 9.02757 17.8713 8.85785 17.5324 8.49011C17.1934 8.12238 16.9957 7.66978 16.9957 7.18889C16.9957 6.70801 17.1934 6.22712 17.5324 5.88767C17.8713 5.54823 18.3515 5.35021 18.8317 5.35021C19.3119 5.35021 19.7921 5.54823 20.1311 5.88767ZM4.22791 17.6552C2.92853 18.9564 2.87204 21.5589 2.87204 22.0681C2.87204 22.6904 3.38049 23.1996 4.00193 23.1996H4.03018C4.62337 23.1996 7.10913 23.1147 8.38026 21.8418C9.17118 21.0497 9.34066 20.2294 9.34066 19.6919C9.34066 18.9282 9.02994 18.1927 8.43675 17.5986C7.02439 16.156 5.24481 16.6086 4.22791 17.6552ZM6.79841 20.2294C6.51594 20.5122 5.8945 20.7103 5.24481 20.7951C5.3578 20.1445 5.55553 19.5222 5.80976 19.2676C6.00749 19.0696 6.17697 18.9564 6.3747 18.9564C6.51594 18.9564 6.68542 19.0413 6.8549 19.211C7.02439 19.3808 7.10913 19.5505 7.10913 19.6919C7.08088 19.8616 6.93965 20.0879 6.79841 20.2294Z" fill="white"/>
</svg>
