<svg width="22" height="27" viewBox="0 0 22 27" fill="none" xmlns="http://www.w3.org/2000/svg">
<g id="Vector">
<path d="M5.5 27H16.5C19.525 27 22 24.5821 22 21.6269V10.7463C22 10.6119 22 10.4776 21.8625 10.3433V10.209C21.8625 10.0746 21.725 9.9403 21.5875 9.80597L11.9625 0.402985C11.825 0.268657 11.6875 0.268657 11.55 0.134328H11.4125C11.275 0.134328 11.1375 0.134328 11 0H5.5C2.475 0.134328 0 2.55224 0 5.50746V21.6269C0 24.5821 2.475 27 5.5 27ZM17.325 9.53731H15.125C13.6125 9.53731 12.375 8.32836 12.375 6.85075V4.70149L17.325 9.53731ZM2.75 5.50746C2.75 4.02985 3.9875 2.8209 5.5 2.8209H9.625V6.85075C9.625 9.80597 12.1 12.2239 15.125 12.2239H19.25V21.6269C19.25 23.1045 18.0125 24.3134 16.5 24.3134H5.5C3.9875 24.3134 2.75 23.1045 2.75 21.6269V5.50746Z" fill="white"/>
<path d="M10.0375 21.2239C10.3125 21.4925 10.5875 21.6269 11 21.6269H11.275C11.6875 21.4925 12.1 21.2239 12.2375 20.9552L14.9875 15.5821C15.2625 14.9104 14.9875 14.1045 14.4375 13.8358C13.75 13.5672 12.925 13.8358 12.65 14.3731L10.725 18.1343L9.35 16.791C8.8 16.2537 7.975 16.2537 7.425 16.791C6.875 17.3284 6.875 18.1343 7.425 18.6716L10.0375 21.2239Z" fill="white"/>
</g>
</svg>
