<svg width="28" height="28" viewBox="0 0 28 28" fill="none" xmlns="http://www.w3.org/2000/svg">
<path id="Vector" d="M26.6 10.6663C26.7839 10.6663 26.9659 10.6319 27.1358 10.5649C27.3057 10.4979 27.46 10.3997 27.5901 10.2758C27.7201 10.152 27.8232 10.005 27.8935 9.84321C27.9639 9.68142 28 9.50801 28 9.3329V5.3328C28.0001 5.05303 27.9077 4.78033 27.736 4.55338C27.5642 4.32643 27.3217 4.15677 27.043 4.06845L14.443 0.0683608C14.1554 -0.0227869 13.8446 -0.0227869 13.557 0.0683608L0.957026 4.06845C0.678291 4.15677 0.435832 4.32643 0.264048 4.55338C0.0922645 4.78033 -0.000120584 5.05303 1.18122e-07 5.3328V9.3329C-4.77052e-05 9.50801 0.0361319 9.68142 0.106472 9.84321C0.176811 10.005 0.279933 10.152 0.409944 10.2758C0.539956 10.3997 0.694309 10.4979 0.864187 10.5649C1.03406 10.6319 1.21614 10.6663 1.4 10.6663H2.8V20.2455C1.98343 20.5195 1.27591 21.0274 0.774574 21.6996C0.273237 22.3718 0.00266346 23.1754 1.18122e-07 23.9999V26.6666C-4.77052e-05 26.8418 0.0361319 27.0152 0.106472 27.177C0.176811 27.3387 0.279933 27.4857 0.409944 27.6096C0.539956 27.7334 0.694309 27.8316 0.864187 27.8986C1.03406 27.9656 1.21614 28 1.4 28H26.6C26.7839 28 26.9659 27.9656 27.1358 27.8986C27.3057 27.8316 27.46 27.7334 27.5901 27.6096C27.7201 27.4857 27.8232 27.3387 27.8935 27.177C27.9639 27.0152 28 26.8418 28 26.6666V23.9999C27.9973 23.1754 27.7268 22.3718 27.2254 21.6996C26.7241 21.0274 26.0166 20.5195 25.2 20.2455V10.6663H26.6ZM25.2 25.3333H2.8V23.9999C2.80037 23.6464 2.94799 23.3074 3.21046 23.0575C3.47293 22.8075 3.82881 22.6669 4.2 22.6665H23.8C24.1712 22.6669 24.5271 22.8075 24.7895 23.0575C25.052 23.3074 25.1996 23.6464 25.2 23.9999V25.3333ZM5.6 19.9998V10.6663H8.4V19.9998H5.6ZM11.2 19.9998V10.6663H16.8V19.9998H11.2ZM19.6 19.9998V10.6663H22.4V19.9998H19.6ZM2.8 7.99953V6.29376L14 2.73768L25.2 6.29376V7.99953H2.8Z" fill="white"/>
</svg>
