<svg width="49" height="60" viewBox="0 0 49 60" fill="none" xmlns="http://www.w3.org/2000/svg">
<g id="check 1">
<g id="Group">
<g id="Group_2">
<path id="Vector" d="M42.0948 8.41051H36.2378V7.74862C36.2253 5.62561 34.5019 3.90222 32.3789 3.91471H30.4432C29.1944 0.742677 25.6102 -0.818363 22.4382 0.430469C20.8397 1.05489 19.5783 2.31621 18.9539 3.91471H17.0557C14.9577 3.91471 13.2593 5.61312 13.2593 7.71116C13.2593 7.72365 13.2593 7.73614 13.2593 7.76111V8.42299H7.40223C4.55489 8.42299 2.26953 10.7833 2.26953 13.6306V54.892C2.26953 57.7019 4.54241 59.9873 7.36477 59.9997C7.37725 59.9997 7.38974 59.9997 7.41472 59.9997H42.0948C44.9047 60.0247 47.215 57.7643 47.2275 54.942C47.2275 54.9295 47.2275 54.917 47.2275 54.892V13.6181C47.2275 10.7708 44.9296 8.41051 42.0948 8.41051ZM15.7569 7.74862C15.7319 7.03679 16.2939 6.43735 17.0057 6.41237C17.0182 6.41237 17.0432 6.41237 17.0557 6.41237H19.8531C20.44 6.41237 20.9396 6.00026 21.0645 5.43828C21.4766 3.67743 22.9252 2.49104 24.6736 2.49104C26.4095 2.49104 27.9081 3.7149 28.2702 5.41331C28.3951 6.00026 28.8946 6.41237 29.4941 6.41237H32.3664C33.1157 6.39989 33.7276 6.99932 33.7276 7.74862V12.6565H15.7569V7.74862ZM44.7298 54.8795C44.7298 56.3157 43.5684 57.4771 42.1447 57.4896C42.1322 57.4896 42.1073 57.4896 42.0948 57.4896H7.40223C5.96607 57.5146 4.77968 56.3656 4.7672 54.9295C4.7672 54.917 4.7672 54.892 4.7672 54.8795V13.6181C4.7672 12.1445 5.9411 10.9082 7.40223 10.9082H13.2593V13.9428C13.2343 14.5797 13.7338 15.1292 14.3832 15.1542C14.4082 15.1542 14.4332 15.1542 14.4456 15.1542H34.9889C35.6633 15.1792 36.2253 14.6422 36.2378 13.9678C36.2378 13.9553 36.2378 13.9553 36.2378 13.9428V10.9082H42.0948C43.5684 10.9082 44.7298 12.157 44.7298 13.6181V54.8795Z" fill="#316AD9"/>
</g>
</g>
<g id="Group_3">
<g id="Group_4">
<path id="Vector_2" d="M21.3794 41.8792H10.6395C9.9526 41.8792 9.39062 42.4411 9.39062 43.128V53.4933C9.39062 54.1801 9.9526 54.7421 10.6395 54.7421H21.3794C22.0663 54.7421 22.6282 54.1801 22.6282 53.4933V43.128C22.6282 42.4411 22.0663 41.8792 21.3794 41.8792ZM20.1306 52.2445H11.8883V44.3768H20.1306V52.2445Z" fill="#316AD9"/>
</g>
</g>
<g id="Group_5">
<g id="Group_6">
<path id="Vector_3" d="M18.7314 45.9879C18.2193 45.5508 17.4451 45.6007 16.9955 46.1003L15.4344 47.8736L14.8974 47.449C14.3605 47.0119 13.5737 47.0993 13.1366 47.6363C12.7245 48.1858 12.8119 48.9726 13.3614 49.4097L14.835 50.5836C15.3595 50.9957 16.1088 50.9332 16.5584 50.4337L18.8812 47.7487C19.3308 47.2242 19.2559 46.4374 18.7314 45.9879Z" fill="#316AD9"/>
</g>
</g>
<g id="Group_7">
<g id="Group_8">
<path id="Vector_4" d="M33.6291 44.3768H25.8738C25.187 44.3768 24.625 44.9388 24.625 45.6257C24.625 46.3125 25.1745 46.8745 25.8738 46.8745H33.6291C34.3159 46.8745 34.8779 46.3125 34.8779 45.6257C34.8779 44.9388 34.3159 44.3768 33.6291 44.3768Z" fill="#316AD9"/>
</g>
</g>
<g id="Group_9">
<g id="Group_10">
<path id="Vector_5" d="M38.8367 49.6219H25.8738C25.187 49.6219 24.625 50.1839 24.625 50.8708C24.625 51.5576 25.187 52.1196 25.8738 52.1196H38.8492C39.5361 52.1196 40.098 51.5576 40.098 50.8708C40.098 50.1839 39.5361 49.6219 38.8367 49.6219Z" fill="#316AD9"/>
</g>
</g>
<g id="Group_11">
<g id="Group_12">
<path id="Vector_6" d="M40.9832 26.6809L38.1108 25.3821L35.5507 21.3109C34.689 19.9497 33.1904 19.1255 31.5794 19.1505H21.6512C20.1901 19.138 18.8164 19.8123 17.9297 20.9613L14.6328 25.2822L9.08798 26.7933C7.42704 27.2429 6.26562 28.754 6.26562 30.4649V32.6378C6.26562 34.7484 7.98901 36.5092 10.0995 36.5092H10.2244C10.8613 38.2576 12.6222 39.6813 14.6828 39.6813C16.7433 39.6813 18.5042 38.2576 19.1411 36.5092H29.9185C30.5554 38.2576 32.3163 39.6813 34.3768 39.6813C36.4374 39.6813 38.1983 38.2576 38.8352 36.5092H39.3971C41.5077 36.5092 43.231 34.7484 43.231 32.6378V30.1652C43.231 28.6666 42.3444 27.3053 40.9832 26.6809ZM14.6828 37.1336C13.4589 37.1336 12.4598 36.1346 12.4598 34.9107C12.4598 33.6869 13.4589 32.6878 14.6828 32.6878C15.9066 32.6878 16.9057 33.6869 16.9057 34.9107C16.9057 36.1471 15.9066 37.1336 14.6828 37.1336ZM34.3893 37.1336C33.1655 37.1336 32.1664 36.1346 32.1664 34.9107C32.1664 33.6869 33.1655 32.6878 34.3893 32.6878C35.6132 32.6878 36.6122 33.6869 36.6122 34.9107C36.5998 36.1471 35.6132 37.1336 34.3893 37.1336ZM39.3971 34.0116H39.01C38.5729 31.7637 36.6622 30.2401 34.3893 30.2401C32.1164 30.2401 30.1932 31.7637 29.7562 34.0116H19.3034C18.8913 31.7886 16.9306 30.1901 14.6828 30.2151C12.4473 30.2151 10.5117 31.7761 10.0496 33.9741C9.33775 33.9491 8.76329 33.3622 8.76329 32.6378V30.4649C8.76329 29.8654 9.16292 29.3409 9.73738 29.1911L15.6943 27.5676C15.9566 27.4927 16.1938 27.3428 16.3562 27.118L19.9154 22.4723C20.3275 21.9354 20.9769 21.6356 21.6512 21.6481H31.5794C32.3287 21.6356 33.0281 22.0103 33.4277 22.6472L36.1876 27.0431C36.3125 27.2429 36.5123 27.4052 36.7246 27.5051L39.9341 28.9538C40.4087 29.1661 40.7084 29.6406 40.7084 30.1527L40.7209 32.6378C40.7209 33.3746 40.1464 33.9866 39.3971 34.0116Z" fill="#316AD9"/>
</g>
</g>
</g>
</svg>
