<svg width="61" height="60" viewBox="0 0 61 60" fill="none" xmlns="http://www.w3.org/2000/svg">
<g id="file 1" clip-path="url(#clip0_3996_24361)">
<path id="Vector" d="M59.868 12.2339L48.1497 0.514922C47.8201 0.185156 47.3729 0 46.9067 0H19.9531C17.0454 0 14.6797 2.36566 14.6797 5.27344V28.4576C6.78055 29.3348 0.617188 36.0505 0.617188 44.1797C0.617188 52.903 7.71418 60 16.4375 60H55.1094C58.0171 60 60.3828 57.6343 60.3828 54.7266V13.4769C60.3828 13.0106 60.1977 12.5637 59.868 12.2339ZM48.6641 6.00152L52.4832 9.82078L54.3812 11.7188H48.6641V6.00152ZM4.13281 44.1797C4.13281 37.3949 9.6527 31.875 16.4375 31.875C23.2223 31.875 28.7422 37.3949 28.7422 44.1797C28.7422 50.9645 23.2223 56.4844 16.4375 56.4844C9.6527 56.4844 4.13281 50.9645 4.13281 44.1797ZM55.1094 56.4844H26.369C29.5287 53.9291 31.688 50.1845 32.1597 45.9375H50.4219C51.3927 45.9375 52.1797 45.1505 52.1797 44.1797C52.1797 43.2089 51.3927 42.4219 50.4219 42.4219H32.1596C31.873 39.8414 30.9638 37.4462 29.5852 35.3906H50.4219C51.3927 35.3906 52.1797 34.6036 52.1797 33.6328C52.1797 32.662 51.3927 31.875 50.4219 31.875H26.369C24.0814 30.0251 21.2701 28.7991 18.1953 28.4576V5.27344C18.1953 4.30418 18.9839 3.51562 19.9531 3.51562H45.1484V13.4766C45.1484 14.4473 45.9355 15.2344 46.9062 15.2344H56.8672V54.7266C56.8672 55.6958 56.0786 56.4844 55.1094 56.4844Z" fill="#316AD9"/>
<path id="Vector_2" d="M50.4219 21.3281H24.6406C23.6698 21.3281 22.8828 22.1152 22.8828 23.0859C22.8828 24.0567 23.6698 24.8438 24.6406 24.8438H50.4219C51.3927 24.8438 52.1797 24.0567 52.1797 23.0859C52.1797 22.1152 51.3927 21.3281 50.4219 21.3281Z" fill="#316AD9"/>
<path id="Vector_3" d="M23.4226 39.7727C22.7363 39.0863 21.6232 39.0863 20.9367 39.7727L13.9766 46.7328L11.7039 44.4601C11.0175 43.7737 9.90447 43.7737 9.21799 44.4601C8.5315 45.1465 8.5315 46.2595 9.21799 46.946L12.7336 50.4616C13.0769 50.8049 13.5267 50.9765 13.9766 50.9765C14.4265 50.9765 14.8764 50.8049 15.2195 50.4616L23.4226 42.2585C24.1091 41.5721 24.1091 40.4591 23.4226 39.7727Z" fill="#316AD9"/>
</g>
<defs>
<clipPath id="clip0_3996_24361">
<rect width="60" height="60" fill="white" transform="translate(0.5)"/>
</clipPath>
</defs>
</svg>
