<svg width="32" height="26" viewBox="0 0 32 26" fill="none" xmlns="http://www.w3.org/2000/svg">
<path fill-rule="evenodd" clip-rule="evenodd" d="M16 19.3385H22.4V13.1961H16V19.3385ZM9.6 13.1961H16V7.0536H9.6V13.1961ZM16 7.0536H22.4V0.911133H16V7.0536ZM28.8 0.911133V7.0536H22.4V13.1961H28.8V25.0889H30.625C31.3844 25.0889 32 24.4981 32 23.7692V2.2308C32 1.50197 31.3844 0.911133 30.625 0.911133H28.8ZM3.2 13.1961H9.6V19.3385H3.2V25.0889H1.375C0.61561 25.0889 0 24.4981 0 23.7692V2.2308C0 1.50197 0.615609 0.911133 1.375 0.911133H9.6V7.0536H3.2V13.1961Z" fill="#696B78"/>
</svg>
