<svg width="38" height="38" viewBox="0 0 38 38" fill="none" xmlns="http://www.w3.org/2000/svg">
<path d="M36.1 32.9967H35.2V32.0967C35.1997 31.8581 35.1048 31.6293 34.9361 31.4606C34.7674 31.2919 34.5386 31.197 34.3 31.1967H33.4V28.9467C33.3996 28.6676 33.313 28.3955 33.1518 28.1677C32.9907 27.9398 32.763 27.7674 32.5 27.6741V17.6193C32.763 17.526 32.9907 17.3536 33.1518 17.1257C33.313 16.8979 33.3996 16.6257 33.4 16.3467V14.9967H34.75C34.8694 14.9967 34.9838 14.9493 35.0682 14.8649C35.1526 14.7805 35.2 14.666 35.2 14.5467V10.4967C35.2 10.419 35.1799 10.3426 35.1416 10.275C35.1033 10.2073 35.0482 10.1508 34.9815 10.1108L19.2315 0.660809C19.1616 0.618846 19.0816 0.59668 19 0.59668C18.9184 0.59668 18.8384 0.618846 18.7685 0.660809L3.01848 10.1108C2.95184 10.1508 2.8967 10.2073 2.85841 10.275C2.82012 10.3426 2.8 10.419 2.8 10.4967V14.5467C2.8 14.666 2.84741 14.7805 2.9318 14.8649C3.01619 14.9493 3.13065 14.9967 3.25 14.9967H4.6V16.3467C4.60035 16.6257 4.68705 16.8979 4.84818 17.1257C5.00932 17.3536 5.237 17.526 5.5 17.6193V27.6741C5.237 27.7674 5.00932 27.9398 4.84818 28.1677C4.68705 28.3955 4.60035 28.6676 4.6 28.9467V31.1967H3.7C3.46139 31.197 3.23263 31.2919 3.06391 31.4606C2.89518 31.6293 2.80027 31.8581 2.8 32.0967V32.9967H1.9C1.66139 32.997 1.43263 33.0919 1.26391 33.2606C1.09518 33.4293 1.00027 33.6581 1 33.8967V36.1467C1 36.266 1.04741 36.3805 1.1318 36.4649C1.21619 36.5493 1.33065 36.5967 1.45 36.5967H36.55C36.6693 36.5967 36.7838 36.5493 36.8682 36.4649C36.9526 36.3805 37 36.266 37 36.1467V33.8967C36.9997 33.6581 36.9048 33.4293 36.7361 33.2606C36.5674 33.0919 36.3386 32.997 36.1 32.9967ZM22.6 31.1967V28.9467C22.5996 28.6676 22.513 28.3955 22.3518 28.1677C22.1907 27.9398 21.963 27.7674 21.7 27.6741V17.6193C21.963 17.526 22.1907 17.3536 22.3518 17.1257C22.513 16.8979 22.5996 16.6257 22.6 16.3467V14.9967H26.2V16.3467C26.2004 16.6257 26.287 16.8979 26.4482 17.1257C26.6093 17.3536 26.837 17.526 27.1 17.6193V27.6741C26.837 27.7674 26.6093 27.9398 26.4482 28.1677C26.287 28.3955 26.2004 28.6676 26.2 28.9467V31.1967H22.6ZM11.8 31.1967V28.9467C11.7996 28.6676 11.713 28.3955 11.5518 28.1677C11.3907 27.9398 11.163 27.7674 10.9 27.6741V17.6193C11.163 17.526 11.3907 17.3536 11.5518 17.1257C11.713 16.8979 11.7996 16.6257 11.8 16.3467V14.9967H15.4V16.3467C15.4004 16.6257 15.487 16.8979 15.6482 17.1257C15.8093 17.3536 16.037 17.526 16.3 17.6193V27.6741C16.037 27.7674 15.8093 27.9398 15.6482 28.1677C15.487 28.3955 15.4004 28.6676 15.4 28.9467V31.1967H11.8ZM6.4 17.6967H10V27.5967H6.4V17.6967ZM17.2 17.6967H20.8V27.5967H17.2V17.6967ZM21.25 16.7967H16.75C16.6307 16.7966 16.5163 16.7491 16.4319 16.6647C16.3476 16.5804 16.3001 16.466 16.3 16.3467V14.9967H21.7V16.3467C21.6999 16.466 21.6524 16.5804 21.5681 16.6647C21.4837 16.7491 21.3693 16.7966 21.25 16.7967ZM16.3 28.9467C16.3001 28.8274 16.3476 28.713 16.4319 28.6286C16.5163 28.5443 16.6307 28.4968 16.75 28.4967H21.25C21.3693 28.4968 21.4837 28.5443 21.5681 28.6286C21.6524 28.713 21.6999 28.8274 21.7 28.9467V31.1967H16.3V28.9467ZM31.6 27.5967H28V17.6967H31.6V27.5967ZM27.1 28.9467C27.1001 28.8274 27.1476 28.713 27.2319 28.6286C27.3163 28.5443 27.4307 28.4968 27.55 28.4967H32.05C32.1693 28.4968 32.2837 28.5443 32.3681 28.6286C32.4524 28.713 32.4999 28.8274 32.5 28.9467V31.1967H27.1V28.9467ZM32.5 16.3467C32.4999 16.466 32.4524 16.5804 32.3681 16.6647C32.2837 16.7491 32.1693 16.7966 32.05 16.7967H27.55C27.4307 16.7966 27.3163 16.7491 27.2319 16.6647C27.1476 16.5804 27.1001 16.466 27.1 16.3467V14.9967H32.5V16.3467ZM3.7 10.7515L19 1.57147L34.3 10.7515V14.0967H3.7V10.7515ZM10.9 14.9967V16.3467C10.8999 16.466 10.8524 16.5804 10.7681 16.6647C10.6837 16.7491 10.5693 16.7966 10.45 16.7967H5.95C5.83069 16.7966 5.71631 16.7491 5.63195 16.6647C5.54758 16.5804 5.50013 16.466 5.5 16.3467V14.9967H10.9ZM5.5 28.9467C5.50013 28.8274 5.54758 28.713 5.63195 28.6286C5.71631 28.5443 5.83069 28.4968 5.95 28.4967H10.45C10.5693 28.4968 10.6837 28.5443 10.7681 28.6286C10.8524 28.713 10.8999 28.8274 10.9 28.9467V31.1967H5.5V28.9467ZM3.7 32.0967H34.3V32.9967H3.7V32.0967ZM36.1 35.6967H1.9V33.8967H36.1V35.6967ZM19 12.2967C19.712 12.2967 20.408 12.0855 21.0001 11.69C21.5921 11.2944 22.0535 10.7322 22.326 10.0743C22.5984 9.41653 22.6697 8.69269 22.5308 7.99436C22.3919 7.29603 22.0491 6.65457 21.5456 6.1511C21.0421 5.64763 20.4007 5.30476 19.7023 5.16586C19.004 5.02695 18.2802 5.09824 17.6223 5.37072C16.9645 5.64319 16.4023 6.10461 16.0067 6.69663C15.6111 7.28865 15.4 7.98467 15.4 8.69668C15.4011 9.65113 15.7807 10.5662 16.4556 11.2411C17.1305 11.916 18.0456 12.2956 19 12.2967ZM19 5.99668C19.534 5.99668 20.056 6.15504 20.5 6.45171C20.9441 6.74839 21.2901 7.17008 21.4945 7.66344C21.6988 8.1568 21.7523 8.69968 21.6481 9.22343C21.5439 9.74718 21.2868 10.2283 20.9092 10.6059C20.5316 10.9835 20.0505 11.2406 19.5267 11.3448C19.003 11.449 18.4601 11.3955 17.9668 11.1912C17.4734 10.9868 17.0517 10.6407 16.755 10.1967C16.4584 9.75271 16.3 9.23069 16.3 8.69668C16.3008 7.98085 16.5855 7.29456 17.0917 6.78839C17.5979 6.28222 18.2842 5.99749 19 5.99668Z" fill="#316AD9" stroke="#316AD9"/>
</svg>
