<svg width="41" height="51" viewBox="0 0 41 51" fill="none" xmlns="http://www.w3.org/2000/svg">
<path d="M39.8329 13.5001C39.9178 13.5001 40.001 13.4931 40.082 13.4795V48C40.082 49.2426 39.0747 50.25 37.832 50.25H3.83203C2.58939 50.25 1.58203 49.2426 1.58203 48V3C1.58203 1.75736 2.58939 0.75 3.83203 0.75H27.8326C27.8328 1.03689 27.8329 1.33025 27.8329 1.50012V12.0001C27.8329 12.8285 28.5045 13.5001 29.3329 13.5001H39.8329ZM30.8329 2.04201L38.4678 10.5001H30.8329V2.04201ZM7.58203 14.75C6.7536 14.75 6.08203 15.4216 6.08203 16.25C6.08203 17.0784 6.7536 17.75 7.58203 17.75H19.082C19.9105 17.75 20.582 17.0784 20.582 16.25C20.582 15.4216 19.9105 14.75 19.082 14.75H7.58203ZM7.58203 20.75C6.7536 20.75 6.08203 21.4216 6.08203 22.25C6.08203 23.0784 6.7536 23.75 7.58203 23.75H19.082C19.9105 23.75 20.582 23.0784 20.582 22.25C20.582 21.4216 19.9105 20.75 19.082 20.75H7.58203Z" fill="#316AD9" stroke="#316AD9" stroke-width="1.5" stroke-linecap="round" stroke-linejoin="round"/>
</svg>
