<svg width="55" height="55" viewBox="0 0 55 55" fill="none" xmlns="http://www.w3.org/2000/svg">
<path d="M24.9004 27.9C24.5004 28.3 24.6671 29 25.1671 29C25.7338 29 25.8004 28.7 25.4004 28.0667C25.2338 27.8333 25.0338 27.7667 24.9004 27.9Z" fill="#317ED9"/>
<path fill-rule="evenodd" clip-rule="evenodd" d="M16.6672 16.5C7.43385 25.7333 6.86719 26.3667 6.86719 27.5C6.86719 28.6333 7.43385 29.3 16.7005 38.5333C25.8005 47.6 26.6005 48.3333 27.6672 48.3333C28.7672 48.3333 29.5672 47.6 38.6672 38.5C47.9005 29.2667 48.4672 28.6333 48.4672 27.5C48.4672 26.3667 47.9005 25.7 38.6339 16.4667C29.5339 7.4 28.7339 6.66667 27.6672 6.66667C26.5672 6.66667 25.7672 7.4 16.6672 16.5ZM21.2672 24.7333C21.3672 25.6333 21.3339 25.6667 19.8672 25.6667H18.3672L18.2668 28.912C18.1672 32.1334 18.1662 32.1667 17.3339 32.1667C16.5016 32.1667 16.5005 32.1334 16.4009 28.912L16.3005 25.6667H14.8672C13.3005 25.6667 12.6339 25 13.3672 24.1C13.6672 23.7667 14.6005 23.6667 17.4672 23.7333L21.1672 23.8333L21.2672 24.7333ZM27.4339 27.6C28.3339 29.7 28.9672 31.6 28.8672 31.8667C28.6005 32.6 27.0672 32.4333 26.8339 31.6667C26.6672 31.1333 26.3339 31 25.1672 31C24.0339 31 23.6005 31.1667 23.3339 31.6667C22.9339 32.4333 21.5005 32.5667 21.2339 31.9C21.0339 31.3667 23.9339 24.3 24.4672 23.9333C25.3339 23.3333 25.9005 24.0333 27.4339 27.6ZM34.1005 26.3333L34.9005 25.2667C35.8339 24 36.5339 23.5333 37.2005 23.8C37.9672 24.1 37.7339 25.1333 36.6672 26.5C36.1339 27.2 35.6672 27.9 35.6672 28.0667C35.6672 28.2667 36.1339 29 36.7005 29.7C37.8339 31.1333 37.8672 32.1 36.7672 32.2667C36.2672 32.3333 35.8005 32 35.1672 31.2C34.6672 30.5333 34.1672 30 34.0339 30C33.9339 30 33.4672 30.5333 33.0339 31.1667C32.2005 32.4333 30.9005 32.7333 30.5339 31.8C30.3005 31.2 30.4005 30.9667 31.7672 29.2667L32.7672 28.0333L31.7672 26.7667C30.3339 24.9333 30.2339 24.7 30.6672 24.1667C31.3339 23.3667 31.9005 23.5667 33.0339 25L34.1005 26.3333ZM41.9672 24.1333C42.2339 24.4333 42.3339 25.8667 42.2672 28.3667C42.1672 32.1 42.1339 32.1667 41.3672 32.2667C40.9339 32.3333 40.4339 32.2 40.3005 31.9333C40.1339 31.7 40.0005 29.9667 40.0005 28.1C40.0005 25.4667 40.1005 24.6 40.5339 24.2C41.1672 23.5333 41.4672 23.5333 41.9672 24.1333Z" fill="#317ED9"/>
<path fill-rule="evenodd" clip-rule="evenodd" d="M0.7 23.6667C1.66667 21.4667 21.1667 1.9 23.5 0.799998C24.7667 0.199997 25.7333 0 27.5 0C31.4667 0 31.8667 0.299998 43.4 11.8667C54.8 23.3333 54.9667 23.5667 55 27.5C55 31.4667 54.7 31.8667 43.1333 43.4C31.6667 54.8 31.4333 54.9667 27.5 55C23.5333 55 23.1333 54.7 11.6 43.1333C4.06667 35.5667 1.16667 32.4333 0.7 31.3333C-0.233333 29.3 -0.233333 25.7 0.7 23.6667ZM40.2333 15.4333C35.0667 10.2333 30.3667 5.76667 29.8 5.5C28.4667 4.86666 26.8 4.86666 25.4667 5.53333C24.9333 5.8 20.2333 10.2667 15.1 15.4333C4.86667 25.7 4.63333 26 5.36667 28.8333C5.66667 29.9667 7.2 31.6667 15.4333 39.9C23.8333 48.3 25.3333 49.6333 26.4 49.8333C29.3666 50.4 29.4 50.3667 39.7324 40.0676L39.7333 40.0667C50.3667 29.5 50.8 28.9 50.0333 26.2333C49.6667 25.0667 48.1 23.3333 40.2333 15.4333Z" fill="#317ED9"/>
</svg>
