<svg width="41" height="51" viewBox="0 0 41 51" fill="none" xmlns="http://www.w3.org/2000/svg">
<path d="M18.5136 42.6058L18.0068 42.0529L18.5136 42.6057L30.5136 31.6057C31.1243 31.046 31.1655 30.0971 30.6057 29.4864C30.0459 28.8757 29.0971 28.8345 28.4864 29.3943L17.6045 39.3694C16.1373 37.8118 14.1679 35.9574 13.1668 35.0147L13.1573 35.0058L12.6432 35.5518L13.1573 35.0057C12.8425 34.7093 12.6364 34.5151 12.5607 34.4394C11.9749 33.8536 11.0251 33.8536 10.4393 34.4394C9.85355 35.0251 9.85355 35.9749 10.4393 36.5607C10.5681 36.6894 10.8428 36.9483 11.1941 37.2795L11.2122 37.2965C12.5537 38.5609 15.0984 40.9611 16.3477 42.4603C16.6102 42.7753 16.9903 42.9692 17.3995 42.9966C17.8087 43.0241 18.2113 42.8829 18.5136 42.6058ZM27.5019 0.75V12C27.5019 12.8284 28.1735 13.5 29.0019 13.5H39.75V48C39.75 49.2426 38.7426 50.25 37.5 50.25H3.5C2.25736 50.25 1.25 49.2426 1.25 48V3.00001C1.25 1.75737 2.25736 0.750009 3.5 0.750009L27.5019 0.75ZM7.25 14.75C6.42157 14.75 5.75 15.4216 5.75 16.25C5.75 17.0784 6.42157 17.75 7.25 17.75H18.75C19.5784 17.75 20.25 17.0784 20.25 16.25C20.25 15.4216 19.5784 14.75 18.75 14.75H7.25ZM7.25 20.75C6.42157 20.75 5.75 21.4216 5.75 22.25C5.75 23.0784 6.42157 23.75 7.25 23.75H18.75C19.5784 23.75 20.25 23.0784 20.25 22.25C20.25 21.4216 19.5784 20.75 18.75 20.75H7.25ZM30.5019 1.71254L38.1909 10.5H30.5019V1.71254Z" fill="#316AD9" stroke="#316AD9" stroke-width="1.5" stroke-linecap="round" stroke-linejoin="round"/>
</svg>
