<svg width="51" height="38" viewBox="0 0 51 38" fill="none" xmlns="http://www.w3.org/2000/svg">
<path d="M47.0932 38H42.3522C41.1876 38 40.4923 36.7864 40.4923 34.754V33.1849C36.482 33.5497 30.9942 33.9272 25.4666 33.9272C19.9743 33.9272 14.4749 33.5444 10.4467 33.1749V34.754C10.4467 36.7864 9.74999 38 8.58354 38H3.84447C2.67802 38 1.98136 36.7864 1.98136 34.754V31.249C0.205013 25.5345 1.06105 20.0091 2.47493 15.7512L2.41067 15.7439L2.79306 14.8372C2.83226 14.73 2.87146 14.6248 2.91067 14.519L1.95244 14.3306C0.839331 14.1096 0 13.0591 0 11.8868V9.9542C0 8.69268 0.991002 7.66615 2.20822 7.66615H6.32583C7.07197 6.4459 7.79819 5.44999 8.46979 4.73834C8.90552 4.19779 9.33932 3.70316 9.76092 3.26512C12.374 0.557672 20.5938 0.0910068 24.0071 0.016447C29.2146 -0.099387 34.2538 0.401894 37.4865 1.35386C39.2236 1.8658 40.4312 2.4909 41.178 3.26446C41.6137 3.71581 42.0617 4.22841 42.5122 4.7896C43.1844 5.49925 43.8984 6.47186 44.6324 7.66681C44.6375 7.66681 44.6433 7.66681 44.6478 7.66681H48.795C49.3856 7.66681 49.9402 7.9058 50.3579 8.34051C50.7757 8.77522 51.0032 9.3504 51 9.96152V11.8881C51 13.0598 50.1632 14.1102 49.0533 14.3313L48.0321 14.5323L48.5443 15.7452L48.4588 15.7546C49.8701 20.0105 50.7255 25.5339 48.9518 31.2497L48.955 34.754C48.9543 36.7864 48.259 38 47.0932 38ZM43.0964 35.3418H46.3515C46.3721 35.1807 46.3881 34.983 46.3881 34.754L46.3849 30.8223L46.4511 30.6173C48.1786 25.2416 47.2307 19.9745 45.8277 16.0222C43.4576 16.1513 39.9537 15.9609 35.9775 15.7452C32.4415 15.5542 28.7853 15.3551 25.4672 15.3551C22.1497 15.3551 18.4974 15.5542 14.9646 15.7459C10.9814 15.9623 7.47236 16.1533 5.1054 16.0215C3.70051 19.9758 2.75193 25.2436 4.482 30.6166L4.5482 30.8216V34.754C4.5482 34.983 4.56362 35.1807 4.58483 35.3418H7.84447C7.86568 35.1807 7.8811 34.983 7.8811 34.754V30.2558L9.28598 30.3942C13.3226 30.7937 19.4062 31.2683 25.4672 31.2683C31.572 31.2683 37.6388 30.799 41.6549 30.4049L43.0591 30.2677V34.7533C43.0591 34.983 43.0745 35.1807 43.0964 35.3418ZM46.1079 10.3243C46.3856 10.8696 46.6626 11.4427 46.9396 12.0399L48.4331 11.7463V10.325L46.1079 10.3243ZM2.56555 11.7456L4.01863 12.0326C4.2937 11.4401 4.57133 10.8696 4.84897 10.325H2.56555V11.7456ZM41.8901 25.898C39.3329 25.898 37.2525 23.7444 37.2525 21.0949C37.2525 18.4474 39.3329 16.2938 41.8901 16.2938C44.446 16.2938 46.5244 18.4474 46.5244 21.0949C46.5244 23.7444 44.4453 25.898 41.8901 25.898ZM41.8901 18.9526C40.7487 18.9526 39.8187 19.9139 39.8187 21.0956C39.8187 22.2779 40.748 23.2405 41.8901 23.2405C43.0302 23.2405 43.9582 22.2785 43.9582 21.0956C43.9576 19.9139 43.0302 18.9526 41.8901 18.9526ZM9.04691 25.898C6.49036 25.898 4.41067 23.7444 4.41067 21.0949C4.41067 18.4474 6.49036 16.2938 9.04691 16.2938C11.6035 16.2938 13.6832 18.4474 13.6832 21.0949C13.6832 23.7444 11.6035 25.898 9.04691 25.898ZM9.04691 18.9526C7.90552 18.9526 6.9775 19.9139 6.9775 21.0956C6.9775 22.2779 7.90552 23.2405 9.04691 23.2405C10.1883 23.2405 11.117 22.2785 11.117 21.0956C11.117 19.9139 10.1889 18.9526 9.04691 18.9526Z" fill="#316AD9"/>
</svg>
