<svg width="59" height="58" viewBox="0 0 59 58" fill="none" xmlns="http://www.w3.org/2000/svg">
<path d="M29.1756 7.419C17.6993 7.419 8.36293 16.7555 8.36293 28.2317C8.36293 39.7079 17.6995 49.0444 29.1756 49.0444C40.6518 49.0444 49.9889 39.7079 49.9889 28.2317C49.9889 16.7555 40.6519 7.419 29.1756 7.419ZM29.1756 47.4493C18.579 47.4493 9.95805 38.8284 9.95805 28.2317C9.95805 17.635 18.579 9.01411 29.1756 9.01411C39.7729 9.01411 48.3938 17.635 48.3938 28.2317C48.3938 38.8284 39.7728 47.4493 29.1756 47.4493ZM56.7969 24.4239C54.919 10.6509 43.1629 0.342773 29.1761 0.342773C15.1911 0.342773 3.43656 10.6477 1.5553 24.4175C0.470855 24.6603 -0.34375 25.627 -0.34375 26.7835V29.6809C-0.34375 30.837 0.470402 31.8034 1.55439 32.0462C3.24104 44.3158 13.1173 54.1836 25.3919 55.8564C25.6703 56.8902 26.6064 57.6577 27.727 57.6577H30.6249C31.9635 57.6577 33.0524 56.5683 33.0524 55.2297C33.0524 53.8911 31.9635 52.8017 30.6249 52.8017H27.727C26.7324 52.8017 25.878 53.4043 25.5031 54.2624C13.9886 52.6447 4.73465 43.3772 3.13772 31.8579C3.94791 31.464 4.51216 30.6405 4.51216 29.6809V26.7835C4.51216 25.8244 3.94825 25.0007 3.13863 24.6066C4.92394 11.639 16.0002 1.93789 29.1761 1.93789C42.3482 1.93789 53.4224 11.6342 55.2114 24.5967C54.3918 24.9872 53.8199 25.817 53.8199 26.7835V29.6809C53.8199 31.0196 54.9092 32.1084 56.2478 32.1084C57.5865 32.1084 58.6758 31.0196 58.6758 29.6809V26.7835C58.6758 25.6345 57.8709 24.6743 56.7969 24.4239ZM27.7269 54.3969H30.6247C31.0838 54.3969 31.4571 54.7707 31.4571 55.2297C31.4571 55.6887 31.0838 56.0625 30.6247 56.0625H27.7269C27.2679 56.0625 26.8945 55.6887 26.8945 55.2297C26.8945 54.7707 27.2679 54.3969 27.7269 54.3969ZM1.25136 26.7835C1.25136 26.3245 1.62519 25.9507 2.08421 25.9507C2.54322 25.9507 2.91705 26.3245 2.91705 26.7835V29.6809C2.91705 30.1399 2.54322 30.5133 2.08421 30.5133C1.62519 30.5133 1.25136 30.1399 1.25136 29.6809V26.7835ZM57.0807 29.6809C57.0807 30.1399 56.7068 30.5133 56.2478 30.5133C55.7888 30.5133 55.415 30.1399 55.415 29.6809V26.7835C55.415 26.3245 55.7888 25.9507 56.2478 25.9507C56.7068 25.9507 57.0807 26.3245 57.0807 26.7835V29.6809ZM37.2166 31.7642C36.775 30.4066 35.8777 29.2945 34.6998 28.5884C35.3385 27.5789 35.7139 26.3872 35.7139 25.107C35.7139 21.5019 32.7813 18.5687 29.1761 18.5687C25.5709 18.5687 22.6378 21.5019 22.6378 25.107C22.6378 26.3872 23.0133 27.579 23.6519 28.5883C22.4735 29.2946 21.5761 30.4065 21.1352 31.7642L19.9014 35.5619C19.7238 36.1108 19.8162 36.6934 20.1548 37.1601C20.4945 37.6274 21.0204 37.8953 21.5978 37.8953H36.7539C37.3313 37.8953 37.8573 37.6274 38.1969 37.1601C38.5355 36.6933 38.6278 36.1107 38.4503 35.5603L37.2166 31.7642Z" fill="#316AD9"/>
</svg>
