<svg width="37" height="58" viewBox="0 0 37 58" fill="none" xmlns="http://www.w3.org/2000/svg">
<path d="M13.8228 37.889C14.0874 39.8567 15.8878 41.3407 18.0108 41.3407C20.3385 41.3407 22.2321 39.5684 22.2321 37.3899C22.2308 37.319 22.2009 37.0388 22.1864 36.9037C22.1735 36.7829 22.1631 36.6807 22.1601 36.6366C21.9111 32.9057 19.9406 30.5473 18.6512 29.3877C18.0786 31.4823 16.7311 32.772 16.6616 32.8374C16.4954 32.9937 16.2698 33.0816 16.0342 33.082H16.0331C15.7979 33.082 15.5725 32.9946 15.4062 32.839L15.0439 32.4998C13.4089 35.3082 13.8133 37.8306 13.818 37.8583C13.8196 37.8674 13.8215 37.8798 13.8228 37.889Z" fill="#316AD9"/>
<path fill-rule="evenodd" clip-rule="evenodd" d="M26.3642 12.273C31.8407 12.7074 36.1641 17.2987 36.1641 22.8802L36.1639 47.3562L36.1641 47.3585L36.1638 47.3629C36.1617 50.2401 34.0315 52.6288 31.2642 53.0405V57.1504C31.2642 57.6197 30.8836 58 30.4138 58H5.91406C5.44433 58 5.06372 57.6197 5.06372 57.1504V53.0405C2.29501 52.6285 0.164176 50.2377 0.164176 47.3585L0.164062 22.8803C0.164062 17.2988 4.48731 12.7078 9.96372 12.2735V0.849609C9.96372 0.380285 10.3443 0 10.8141 0H25.5138C25.9836 0 26.3642 0.380285 26.3642 0.849609V12.273ZM24.6635 1.69922H11.6644V12.2395L15.4762 12.2394V8.19329C15.4762 7.72397 15.8568 7.34368 16.3265 7.34368H20.0016C20.4713 7.34368 20.8519 7.72397 20.8519 8.19329V12.2392L24.6635 12.2391V1.69922ZM19.1512 12.2391V9.0429H17.1769V12.2391H19.1512ZM6.7644 56.3008H29.5635V53.1038H6.7644V56.3008ZM23.9459 36.6969C23.9474 36.7103 23.9489 36.7242 23.9504 36.7384C23.9832 37.0466 24.0049 37.2586 24.0049 37.39C24.0049 40.4834 21.3159 43 18.0108 43C15.0063 43 12.4567 40.9053 12.0677 38.1233C12.0396 37.9802 12.0181 37.7721 12.0034 37.4502C11.9791 36.916 12.0047 36.355 12.0798 35.7826C12.3147 33.9877 13.0286 32.2307 14.1441 30.7016C14.2929 30.4978 14.5309 30.3665 14.7937 30.3435C15.055 30.3204 15.3163 30.4083 15.5029 30.5829L15.9538 31.0049C16.4295 30.3394 17.0529 29.2098 17.1253 27.79C17.1403 27.4949 17.322 27.2295 17.6021 27.0933C17.8821 26.9573 18.2185 26.9707 18.4853 27.1288C18.69 27.2503 23.5051 30.1768 23.9295 36.533C23.9317 36.5632 23.9381 36.6233 23.9459 36.6969Z" fill="#316AD9"/>
</svg>
