<svg width="24" height="20" viewBox="0 0 24 20" fill="none" xmlns="http://www.w3.org/2000/svg">
<path fill-rule="evenodd" clip-rule="evenodd" d="M1.33269 11.1459L1.59358 10.1596C1.15877 10.1596 0.694973 10.1596 0.260164 10.1596C-0.43553 9.60851 0.4051 7.89711 1.12978 7.66505C1.56459 7.66505 1.97041 7.66505 2.40522 7.66505C3.1299 5.72159 3.8256 3.77814 4.55028 1.83468C7.07217 -0.253812 16.9278 -0.253812 19.4497 1.83468C20.1744 3.77814 20.8701 5.72159 21.5948 7.66505C22.0296 7.66505 22.4354 7.66505 22.8702 7.66505C23.5949 7.89711 24.4355 9.60851 23.7398 10.1596C23.305 10.1596 22.8412 10.1596 22.4064 10.1596L22.6673 11.1459C22.6963 13.6985 22.6673 16.2511 22.6673 18.8037C22.6673 19.3258 22.2325 19.7319 21.7107 19.7319H18.5801C18.0583 19.7319 17.6525 19.3258 17.6525 18.8037V17.6144C13.8842 17.6434 10.1158 17.6434 6.34749 17.6144V18.8037C6.34749 19.3258 5.94167 19.7319 5.41989 19.7319H2.28927C1.7675 19.7319 1.33269 19.3258 1.33269 18.8037C1.33269 16.2511 1.30371 13.6985 1.33269 11.1459ZM9.99988 14.5397H14.0001C14.261 14.5397 14.4929 14.7427 14.4929 15.0328V15.961C14.4929 16.2511 14.261 16.4831 14.0001 16.4831H9.99988C9.73899 16.4831 9.5071 16.2511 9.5071 15.961V15.0328C9.5071 14.7427 9.73899 14.5397 9.99988 14.5397ZM9.68102 15.845H14.29V15.6419H9.68102V15.845ZM14.29 16.048H9.71001C9.76798 16.1641 9.88393 16.2801 10.0289 16.2801H13.9711C14.1161 16.2801 14.232 16.1641 14.29 16.048ZM9.68102 15.4389H14.29V15.2068H9.68102V15.4389ZM9.71001 14.9748H14.29C14.261 14.8297 14.1161 14.7137 13.9711 14.7137H10.0289C9.88393 14.7137 9.73899 14.8297 9.71001 14.9748ZM5.27496 2.84992C4.7242 4.4743 4.28939 6.04067 3.73863 7.66505C7.18812 9.17341 16.8119 9.17341 20.2614 7.66505C19.7106 6.04067 19.2758 4.4743 18.725 2.84992C17.5656 0.877454 6.40546 0.877454 5.27496 2.84992ZM19.3917 14.3366C18.899 14.3366 18.4931 14.7427 18.4931 15.2358C18.4931 15.729 18.899 16.135 19.3917 16.135C19.8845 16.135 20.2904 15.729 20.2904 15.2358C20.2904 14.7427 19.8845 14.3366 19.3917 14.3366ZM21.3049 12.9733C21.2759 12.4222 21.3049 12.0741 21.2759 11.523C21.131 11.0008 20.4643 10.9138 19.7976 11.0298C18.783 11.3779 17.6235 11.813 16.493 12.3642C16.0582 12.7703 15.9713 13.2344 16.493 13.6405C18.725 14.0175 20.7831 13.8435 21.3049 12.9733ZM4.60825 14.3366C5.10104 14.3366 5.50686 14.7427 5.50686 15.2358C5.50686 15.729 5.10104 16.135 4.60825 16.135C4.11547 16.135 3.70965 15.729 3.70965 15.2358C3.70965 14.7427 4.11547 14.3366 4.60825 14.3366ZM2.69509 12.9733C2.72408 12.4222 2.69509 12.0741 2.72408 11.523C2.86902 11.0008 3.50674 10.9138 4.20243 11.0298C5.21698 11.3779 6.37647 11.813 7.50698 12.3642C7.94179 12.7703 8.02875 13.2344 7.50698 13.6405C5.27496 14.0175 3.21686 13.8435 2.69509 12.9733Z" fill="#316AD9"/>
</svg>
