<svg width="61" height="59" viewBox="0 0 61 59" fill="none" xmlns="http://www.w3.org/2000/svg">
<g id="money 1" clip-path="url(#clip0_3996_24373)">
<g id="Group">
<g id="Group_2">
<g id="Group_3">
<path id="Vector" d="M60.1658 32.84C60.1656 32.8397 60.1656 32.8396 60.1655 32.8393L48.8373 4.86912C48.5968 4.27483 47.9118 3.98471 47.3074 4.22112C47.307 4.22126 47.3065 4.22141 47.3061 4.2217L1.3489 22.2164C1.16148 22.2961 0.998944 22.4232 0.877776 22.5847C0.495575 22.78 0.254122 23.1666 0.25 23.59V53.7029C0.25 54.3425 0.777367 54.8611 1.42782 54.8611H50.8961C51.5465 54.8611 52.0739 54.3425 52.0739 53.7029V37.2566L59.5083 34.345C60.1125 34.108 60.4068 33.4342 60.1658 32.84ZM49.7183 52.5447H2.60563V24.7482H49.7183V52.5447ZM19.9019 22.4376L39.6232 14.7102C41.3833 16.5294 43.8221 17.5634 46.3756 17.5733L48.3426 22.4376H19.9019ZM52.0739 34.7688V23.59C52.0739 22.9504 51.5465 22.4319 50.8961 22.4319H50.8772L48.3815 16.268C48.3538 16.2166 48.3215 16.1677 48.2849 16.1221C48.1585 15.5642 47.6332 15.1836 47.054 15.2303C44.6781 15.4432 42.3538 14.459 40.8788 12.6151C40.5117 12.1696 39.8666 12.0589 39.3676 12.3556C39.3117 12.3622 39.2562 12.3723 39.2015 12.3858L15.1246 21.8134C14.8333 21.9257 14.6002 22.1485 14.478 22.4319H7.16614L47.0847 6.80214L57.5425 32.6239L52.0739 34.7688Z" fill="#316AD9"/>
<path id="Vector_2" d="M5.8019 44.7258C8.08863 45.3904 9.87802 47.1478 10.5567 49.3956C10.7056 49.8862 11.1645 50.2224 11.6851 50.2225C11.7462 50.2187 11.8068 50.2098 11.8665 50.1959C11.9193 50.2106 11.9734 50.2215 12.0278 50.2283H40.2954C40.344 50.2221 40.392 50.2124 40.4391 50.1993C41.0276 50.3401 41.6206 49.9852 41.7638 49.4066C41.7643 49.4044 41.7649 49.4024 41.7653 49.4002C42.4423 47.1501 44.232 45.3903 46.5202 44.7246C47.0751 44.5578 47.4199 44.014 47.3281 43.4506C47.3439 43.3944 47.3552 43.3371 47.3623 43.2792V34.0137C47.3554 33.9556 47.3436 33.8983 47.327 33.8423C47.4193 33.2787 47.0743 32.7346 46.519 32.5683C44.2308 31.9028 42.4415 30.1422 41.7665 27.8915C41.596 27.3421 41.0376 27.0022 40.4615 27.097C40.407 27.0821 40.3515 27.0712 40.2954 27.0646H12.0278C11.9685 27.0715 11.9098 27.0831 11.8523 27.0993C11.2795 27.0096 10.7268 27.3485 10.5567 27.8938C9.87935 30.1435 8.0898 31.9028 5.8019 32.5683C5.247 32.7351 4.90219 33.2788 4.99392 33.8423C4.9786 33.8986 4.96756 33.9558 4.96094 34.0137V43.2792C4.96771 43.3336 4.97875 43.3875 4.99392 43.4402C4.89734 44.0072 5.24288 44.5571 5.8019 44.7258ZM7.31657 34.4839C9.68162 33.5498 11.5561 31.7066 12.506 29.3809H39.816C40.7664 31.7066 42.6413 33.5498 45.0067 34.4839V42.809C42.6423 43.744 40.7682 45.587 39.8172 47.9119H12.506C11.5551 45.587 9.68089 43.744 7.31657 42.809V34.4839Z" fill="#316AD9"/>
<path id="Vector_3" d="M26.1606 45.5955C30.0636 45.5955 33.2275 42.4843 33.2275 38.6464C33.2275 34.8084 30.0636 31.6973 26.1606 31.6973C22.2577 31.6973 19.0938 34.8084 19.0938 38.6464C19.0976 42.4827 22.2593 45.5917 26.1606 45.5955ZM26.1606 34.0136C28.7626 34.0136 30.8719 36.0878 30.8719 38.6464C30.8719 41.205 28.7626 43.2791 26.1606 43.2791C23.5587 43.2791 21.4494 41.205 21.4494 38.6464C21.4494 36.0878 23.5587 34.0136 26.1606 34.0136Z" fill="#316AD9"/>
<path id="Vector_4" d="M13.2042 40.3837C14.1799 40.3837 14.9709 39.6059 14.9709 38.6465C14.9709 37.687 14.1799 36.9092 13.2042 36.9092C12.2286 36.9092 11.4375 37.687 11.4375 38.6465C11.4375 39.606 12.2286 40.3837 13.2042 40.3837ZM13.2042 38.0674C13.5294 38.0674 13.7931 38.3267 13.7931 38.6465C13.7931 38.9663 13.5294 39.2256 13.2042 39.2256C12.879 39.2256 12.6153 38.9663 12.6153 38.6465C12.6153 38.3267 12.879 38.0674 13.2042 38.0674Z" fill="#316AD9"/>
<path id="Vector_5" d="M39.1183 40.3837C40.094 40.3837 40.885 39.6059 40.885 38.6465C40.885 37.687 40.094 36.9092 39.1183 36.9092C38.1426 36.9092 37.3516 37.687 37.3516 38.6465C37.3516 39.606 38.1426 40.3837 39.1183 40.3837ZM39.1183 38.0674C39.4435 38.0674 39.7072 38.3267 39.7072 38.6465C39.7072 38.9663 39.4435 39.2256 39.1183 39.2256C38.7931 39.2256 38.5294 38.9663 38.5294 38.6465C38.5294 38.3267 38.7931 38.0674 39.1183 38.0674Z" fill="#316AD9"/>
</g>
</g>
</g>
</g>
<defs>
<clipPath id="clip0_3996_24373">
<rect width="60" height="59" fill="white" transform="translate(0.25)"/>
</clipPath>
</defs>
</svg>
