<svg width="27" height="28" viewBox="0 0 27 28" fill="none" xmlns="http://www.w3.org/2000/svg">
<g id="plus 1" clip-path="url(#clip0_3893_10926)">
<path id="Vector" d="M13.5 0.5C6.0558 0.5 0 6.5558 0 14C0 21.4442 6.0558 27.5 13.5 27.5C20.9442 27.5 27 21.4442 27 14C27 6.5558 20.9442 0.5 13.5 0.5ZM19.4062 15.1249H14.6249V19.9062C14.6249 20.5273 14.1211 21.0312 13.5 21.0312C12.8789 21.0312 12.3751 20.5273 12.3751 19.9062V15.1249H7.59375C6.97268 15.1249 6.46882 14.6211 6.46882 14C6.46882 13.3789 6.97268 12.8751 7.59375 12.8751H12.3751V8.09375C12.3751 7.47268 12.8789 6.96882 13.5 6.96882C14.1211 6.96882 14.6249 7.47268 14.6249 8.09375V12.8751H19.4062C20.0273 12.8751 20.5312 13.3789 20.5312 14C20.5312 14.6211 20.0273 15.1249 19.4062 15.1249Z" fill="#316AD9"/>
</g>
<defs>
<clipPath id="clip0_3893_10926">
<rect width="27" height="27" fill="white" transform="translate(0 0.5)"/>
</clipPath>
</defs>
</svg>
