<svg width="38" height="38" viewBox="0 0 38 38" fill="none" xmlns="http://www.w3.org/2000/svg">
<g id="Group 3418">
<path id="Vector" d="M1.98844 22.5176C2.07313 22.9501 2.13226 23.3874 2.16555 23.8269C2.25107 24.7072 2.33951 25.6174 2.75007 26.4929C3.18456 27.3123 3.75846 28.0492 4.44587 28.6705C4.755 28.9681 5.0462 29.2839 5.31793 29.6162C5.57521 29.9651 5.81168 30.329 6.0261 30.7059C6.45703 31.5229 7.02676 32.2582 7.70967 32.8788C8.46792 33.5016 9.37447 33.8234 10.1743 34.1074C10.5835 34.243 10.9844 34.4023 11.3752 34.5846C11.7485 34.7816 12.11 35.0002 12.4579 35.2393C13.1736 35.7091 13.9847 36.2415 14.9575 36.469C15.3481 36.5574 15.7476 36.6002 16.148 36.5965C16.6628 36.5869 17.1766 36.5468 17.6867 36.4763C18.1221 36.4153 18.5606 36.3797 19 36.3694C19.4394 36.3797 19.8779 36.4153 20.3133 36.4763C20.8234 36.5468 21.3372 36.587 21.852 36.5965C22.2524 36.6002 22.6519 36.5574 23.0426 36.469C24.0153 36.2416 24.8264 35.7092 25.542 35.2394C25.8899 35.0003 26.2514 34.7817 26.6246 34.5847C27.0154 34.4024 27.4164 34.2431 27.8256 34.1075C28.6254 33.8235 29.5319 33.5017 30.2902 32.8789C30.9731 32.2584 31.5428 31.5231 31.9737 30.7061C32.1882 30.3292 32.4246 29.9653 32.6819 29.6164C32.9536 29.2841 33.2448 28.9683 33.554 28.6707C34.2414 28.0494 34.8153 27.3125 35.2499 26.493C35.6604 25.6176 35.7489 24.7073 35.8344 23.827C35.8677 23.3874 35.9269 22.9502 36.0116 22.5176C36.1139 22.1063 36.2408 21.7015 36.3917 21.3056C36.7501 20.445 36.956 19.5283 37 18.5967C36.956 17.6651 36.7501 16.7484 36.3917 15.8878C36.2408 15.4919 36.1139 15.0871 36.0116 14.6758C35.9269 14.2432 35.8677 13.806 35.8345 13.3664C35.749 12.4862 35.6605 11.5759 35.2499 10.7005C34.8155 9.88108 34.2416 9.14412 33.5541 8.52286C33.245 8.22527 32.9538 7.90948 32.6821 7.57718C32.4248 7.22826 32.1883 6.86437 31.9739 6.48744C31.543 5.67046 30.9733 4.93515 30.2904 4.31459C29.5321 3.69179 28.6255 3.36992 27.8257 3.08595C27.4165 2.95035 27.0156 2.79103 26.6248 2.60878C26.2515 2.41178 25.89 2.19315 25.5421 1.95401C24.8265 1.48426 24.0153 0.95181 23.0426 0.724319C22.6519 0.635946 22.2524 0.59319 21.852 0.596902C21.3372 0.606414 20.8234 0.646544 20.3133 0.71708C19.878 0.778015 19.4395 0.813696 19 0.823945C18.5606 0.813698 18.1221 0.77802 17.6867 0.717088C17.1766 0.646543 16.6628 0.606414 16.148 0.596911C15.7476 0.593199 15.3481 0.635955 14.9574 0.724327C13.9847 0.951781 13.1736 1.48419 12.4581 1.95395C12.1101 2.19309 11.7486 2.4117 11.3754 2.60868C10.9846 2.79094 10.5836 2.95028 10.1745 3.08588C9.37464 3.36983 8.46809 3.69167 7.70985 4.31443C7.02695 4.93499 6.45722 5.67029 6.02629 6.48726C5.81185 6.86419 5.57537 7.22808 5.3181 7.577C5.04636 7.90928 4.75516 8.22507 4.44604 8.52267C3.75859 9.14392 3.18466 9.8809 2.75015 10.7003C2.33955 11.5758 2.25111 12.4861 2.16557 13.3664C2.13229 13.806 2.07315 14.2432 1.98845 14.6758C1.88615 15.0871 1.7592 15.4918 1.60829 15.8878C1.24991 16.7484 1.04405 17.6651 1 18.5967C1.04405 19.5283 1.2499 20.445 1.60828 21.3055C1.7592 21.7015 1.88615 22.1063 1.98844 22.5176ZM3.08679 14.92C3.36155 13.6765 3.24137 12.3038 3.76813 11.1807C4.30515 10.0357 5.44105 9.25526 6.20572 8.27029C6.97698 7.27681 7.45512 5.98212 8.42259 5.18751C9.38903 4.39374 10.7474 4.17934 11.8743 3.6201C12.9862 3.06827 13.979 2.11182 15.2129 1.82329C15.5198 1.75482 15.8336 1.72196 16.148 1.72535C17.0758 1.72535 18.0462 1.95237 19 1.95237C19.9538 1.95237 20.9242 1.72533 21.852 1.72533C22.1664 1.72194 22.4802 1.7548 22.7871 1.82327C24.0211 2.11183 25.0139 3.0683 26.1259 3.62019C27.2528 4.17944 28.6112 4.39386 29.5776 5.18767C30.5451 5.9823 31.0232 7.27701 31.7944 8.27048C32.5591 9.25546 33.695 10.0359 34.232 11.1809C34.7587 12.3039 34.6385 13.6766 34.9132 14.92C35.1789 16.1224 35.875 17.3123 35.875 18.5967C35.875 19.881 35.1789 21.0709 34.9132 22.2734C34.6385 23.5168 34.7586 24.8896 34.2319 26.0127C33.6949 27.1577 32.559 27.9381 31.7943 28.9231C31.023 29.9166 30.5449 31.2113 29.5774 32.0059C28.611 32.7996 27.2526 33.014 26.1258 33.5733C25.0138 34.1251 24.021 35.0816 22.7871 35.3701C22.4802 35.4385 22.1664 35.4714 21.852 35.468C20.9242 35.468 19.9538 35.241 19 35.241C18.0462 35.241 17.0758 35.468 16.148 35.468C15.8336 35.4714 15.5198 35.4386 15.2129 35.3701C13.979 35.0815 12.9861 34.1251 11.8741 33.5732C10.7472 33.0139 9.38883 32.7995 8.4224 32.0057C7.45493 31.2111 6.9768 29.9164 6.20556 28.9229C5.44094 27.9379 4.30505 27.1575 3.76806 26.0125C3.24134 24.8894 3.36154 23.5168 3.08679 22.2734C2.82107 21.0709 2.125 19.881 2.125 18.5967C2.125 17.3123 2.82107 16.1224 3.08679 14.92Z" fill="#316AD9" stroke="#316AD9"/>
<path id="Vector_2" d="M16.4688 15.6741C16.4688 12.8222 14.9518 10.9795 12.6043 10.9795H12.586C10.6632 10.9795 8.59375 12.5004 8.59375 15.8396C8.61854 19.0932 10.6333 20.5711 12.4947 20.5711C14.4728 20.5711 16.4688 19.0569 16.4688 15.6741ZM12.4947 19.4427C11.0154 19.4427 9.73698 18.2293 9.71875 15.8396C9.71875 13.4499 11.0154 12.1079 12.586 12.1079H12.6043C14.248 12.1079 15.3438 13.3947 15.3438 15.6741C15.3438 18.1926 14.0289 19.4427 12.4947 19.4427Z" fill="#316AD9" stroke="#316AD9"/>
<path id="Vector_3" d="M13.8088 25.6522C13.9078 25.8229 14.0497 25.9645 14.2203 26.063C14.391 26.1614 14.5844 26.2133 14.7812 26.2133H15.8407C16.0392 26.2133 16.2341 26.1606 16.4058 26.0606C16.5774 25.9606 16.7196 25.8168 16.8179 25.6439L24.196 12.6669C24.2936 12.4953 24.3445 12.301 24.3437 12.1034C24.3429 11.9059 24.2905 11.712 24.1915 11.5411C24.0926 11.3703 23.9507 11.2285 23.7799 11.1299C23.6092 11.0314 23.4157 10.9795 23.2187 10.9795H22.1401C21.9414 10.9795 21.7462 11.0323 21.5744 11.1325C21.4027 11.2327 21.2604 11.3768 21.1622 11.55L13.8034 24.5269C13.706 24.6986 13.6553 24.8928 13.6563 25.0903C13.6572 25.2877 13.7098 25.4815 13.8088 25.6522ZM22.1401 12.1079H23.2187L19.5297 18.5964L15.8407 25.0848H14.7812L22.1401 12.1079Z" fill="#316AD9" stroke="#316AD9"/>
<path id="Vector_4" d="M21.25 21.2185C21.2749 24.4769 23.2318 25.9315 25.1601 25.9315C27.1336 25.9315 29.125 24.4173 29.125 21.0347C29.125 18.1827 27.6118 16.3398 25.27 16.3398H25.2517C23.3244 16.3398 21.25 17.8665 21.25 21.2185ZM25.2517 17.4683H25.27C26.919 17.4683 28 18.7552 28 21.0347C28 23.5532 26.6807 24.8031 25.1601 24.8031C23.6758 24.8031 22.3933 23.6082 22.375 21.2185C22.375 18.8103 23.6758 17.4683 25.2517 17.4683Z" fill="#316AD9" stroke="#316AD9"/>
</g>
</svg>
