<svg width="60" height="60" viewBox="0 0 60 60" fill="none" xmlns="http://www.w3.org/2000/svg">
<g id="protection 1" clip-path="url(#clip0_3986_20379)">
<g id="Group">
<path id="Vector" d="M48.75 52.5H6.25C2.805 52.5 0 49.695 0 46.25V43.75C0 38.925 3.925 35 8.75 35H34.625C35.315 35 35.875 35.56 35.875 36.25C35.875 36.94 35.315 37.5 34.625 37.5H8.75C5.305 37.5 2.5 40.305 2.5 43.75V46.25C2.5 48.3175 4.1825 50 6.25 50H48.75C50.8175 50 52.5 48.3175 52.5 46.25V43.75C52.5 42.185 51.9175 40.6925 50.8575 39.5475C50.3875 39.04 50.42 38.25 50.9275 37.78C51.43 37.31 52.225 37.34 52.695 37.85C54.18 39.46 55 41.555 55 43.75V46.25C55 49.695 52.195 52.5 48.75 52.5Z" fill="#316AD9"/>
</g>
<g id="Group_2">
<path id="Vector_2" d="M5 60C2.2425 60 0 57.7575 0 55V46.25C0 45.56 0.56 45 1.25 45C1.94 45 2.5 45.56 2.5 46.25V55C2.5 56.3775 3.6225 57.5 5 57.5C6.3775 57.5 7.5 56.3775 7.5 55V51.25C7.5 50.56 8.06 50 8.75 50C9.44 50 10 50.56 10 51.25V55C10 57.7575 7.7575 60 5 60Z" fill="#316AD9"/>
</g>
<g id="Group_3">
<path id="Vector_3" d="M50 60C47.2425 60 45 57.7575 45 55V51.25C45 50.56 45.56 50 46.25 50C46.94 50 47.5 50.56 47.5 51.25V55C47.5 56.3775 48.6225 57.5 50 57.5C51.3775 57.5 52.5 56.3775 52.5 55V46.25C52.5 45.56 53.06 45 53.75 45C54.44 45 55 45.56 55 46.25V55C55 57.7575 52.7575 60 50 60Z" fill="#316AD9"/>
</g>
<g id="Group_4">
<path id="Vector_4" d="M6.25084 37.5C6.09084 37.5 5.92834 37.47 5.77084 37.4025C5.13334 37.1375 4.83334 36.405 5.09834 35.7675L10.0733 23.8425C11.0508 21.51 13.3083 20 15.8258 20H24.3008C24.9908 20 25.5508 20.56 25.5508 21.25C25.5508 21.94 24.9933 22.5 24.3008 22.5H15.8258C14.3408 22.5 12.9583 23.4275 12.3808 24.8075L7.40584 36.7325C7.20334 37.21 6.73834 37.5 6.25084 37.5Z" fill="#316AD9"/>
</g>
<g id="Group_5">
<path id="Vector_5" d="M16.25 45H8.75C8.06 45 7.5 44.44 7.5 43.75C7.5 43.06 8.06 42.5 8.75 42.5H16.25C16.94 42.5 17.5 43.06 17.5 43.75C17.5 44.44 16.94 45 16.25 45Z" fill="#316AD9"/>
</g>
<g id="Group_6">
<path id="Vector_6" d="M46.25 45H38.75C38.06 45 37.5 44.44 37.5 43.75C37.5 43.06 38.06 42.5 38.75 42.5H46.25C46.94 42.5 47.5 43.06 47.5 43.75C47.5 44.44 46.94 45 46.25 45Z" fill="#316AD9"/>
</g>
<g id="Group_7">
<path id="Vector_7" d="M45 34.9997C44.835 34.9997 44.67 34.9672 44.515 34.8997C43.92 34.6522 30 28.6347 30 16.3397V5.89215C30 5.35715 30.3425 4.87965 30.85 4.70715L44.6 0.0646485C44.86 -0.0228516 45.14 -0.0228516 45.4 0.0646485L59.15 4.70715C59.6575 4.87965 60 5.35715 60 5.89215V16.3397C60 28.6347 46.08 34.6522 45.485 34.9022C45.33 34.9672 45.165 34.9997 45 34.9997ZM32.5 6.78965V16.3397C32.5 25.8022 42.6375 31.2347 45 32.3747C47.36 31.2322 57.5 25.7797 57.5 16.3397V6.78965L45 2.56965L32.5 6.78965Z" fill="#316AD9"/>
</g>
<g id="Group_8">
<path id="Vector_8" d="M43.7505 22.4996C43.728 22.4996 43.703 22.4996 43.6805 22.4971C43.3255 22.4771 42.9955 22.3071 42.773 22.0296L37.773 15.7796C37.343 15.2396 37.4305 14.4546 37.968 14.0221C38.508 13.5896 39.293 13.6796 39.7255 14.2171L43.853 19.3771L51.6155 11.6146C52.103 11.1271 52.8955 11.1271 53.383 11.6146C53.8705 12.1021 53.8705 12.8946 53.383 13.3821L44.633 22.1321C44.4005 22.3696 44.0805 22.4996 43.7505 22.4996Z" fill="#316AD9"/>
</g>
</g>
<defs>
<clipPath id="clip0_3986_20379">
<rect width="60" height="60" fill="white"/>
</clipPath>
</defs>
</svg>
