<svg width="65" height="60" viewBox="0 0 65 60" fill="none" xmlns="http://www.w3.org/2000/svg">
<path d="M45.0008 0H22.5008C16.2314 0 8.57227 13.8433 8.57227 30C8.57227 46.1567 16.2314 60 22.5008 60H45.0008C51.9599 60 55.7151 44.5435 55.7151 30C55.7151 15.4565 51.9599 0 45.0008 0ZM22.5008 58C20.8657 58 18.6844 56.1929 16.6428 53H21.4294C21.6407 53 21.8479 52.9414 22.0238 52.832L25.2381 50.832L24.0495 49.1679L21.105 51H15.4795C14.7035 49.5303 13.9704 47.8553 13.3224 46H19.2865C19.4979 46 19.7051 45.9414 19.8809 45.832L23.0952 43.832L21.9066 42.1679L18.9622 44H12.858V44.5829C12.3211 42.8532 11.8603 40.9873 11.505 39H17.1437C17.355 39 17.5622 38.9414 17.7381 38.832L20.9524 36.832L19.7637 35.1679L16.8193 37H11.1902C10.9712 35.3991 10.8232 33.7296 10.7576 32H16.0723C16.2836 32 16.4908 31.9414 16.6666 31.832L19.8809 29.832L18.6923 28.1679L15.7479 30H10.7151C10.7151 28.2756 10.8034 26.609 10.9585 25H16.0723C16.2836 25 16.4908 24.9414 16.6666 24.832L19.8809 22.832L18.6923 21.1679L15.7479 23H11.1902C11.4299 21.2469 11.7535 19.5777 12.1417 18H18.2151C18.4265 18 18.6336 17.9414 18.8095 17.832L22.0238 15.832L20.8352 14.1679L17.8907 16H12.6803C13.217 14.1816 13.8381 12.509 14.5108 11H20.358C20.5693 11 20.7765 10.9414 20.9524 10.832L24.1666 8.832L22.978 7.16787L20.0336 9H15.4795C17.8204 4.56625 20.5498 2 22.5008 2H40.9474C39.4615 3.58262 38.2157 6.0225 37.2169 9H31.3966L28.4524 7.168L27.2637 8.83212L30.478 10.8321C30.6537 10.9414 30.8609 11 31.0723 11H36.6045C36.168 12.5659 35.7922 14.2443 35.4773 16H30.3252L27.3809 14.168L26.1923 15.8321L29.4066 17.8321C29.5824 17.9415 29.7895 18.0001 30.001 18.0001H35.1481C34.9068 19.6251 34.7158 21.3006 34.5754 23.0001H29.2539L26.3096 21.1681L25.121 22.8323L28.3353 24.8323C28.5111 24.9416 28.7182 25.0002 28.9297 25.0002H34.4357C34.3384 26.6628 34.2868 28.3371 34.2868 30.0002H29.254L26.3098 28.1682L25.1211 29.8324L28.3354 31.8324C28.5113 31.9417 28.7183 32.0004 28.9298 32.0004H34.3132C34.3524 33.6734 34.4392 35.3477 34.5757 37.0004H29.2542L26.3099 35.1684L25.1213 36.8325L28.3356 38.8325C28.5114 38.9419 28.7185 39.0005 28.9299 39.0005H34.7672C34.9515 40.7131 35.1888 42.3882 35.4778 44.0005H30.3257L27.3815 42.1685L26.1928 43.8326L29.4071 45.8326C29.583 45.942 29.79 46.0006 30.0015 46.0006H35.8684C36.2502 47.784 36.7014 49.4624 37.2176 51.0006H32.4687L29.5244 49.1686L28.3358 50.8327L31.5501 52.8327C31.726 52.9421 31.933 53.0008 32.1445 53.0008H37.9609C38.8144 55.0732 39.8107 56.7891 40.9482 58.0008H22.5008V58ZM45.0008 58C40.9464 58 36.4294 46.501 36.4294 30C36.4294 13.499 40.9464 2 45.0008 2C49.0553 2 53.5723 13.499 53.5723 30C53.5723 46.501 49.0553 58 45.0008 58Z" fill="#316AD9"/>
<path d="M44.9997 15C41.3188 15 39.6426 22.7754 39.6426 30C39.6426 37.2246 41.3188 45 44.9997 45C48.6806 45 50.3569 37.2246 50.3569 30C50.3569 22.7754 48.6806 15 44.9997 15ZM44.9997 43C44.0381 43 41.7854 38.5771 41.7854 30C41.7854 21.4229 44.0381 17 44.9997 17C45.9613 17 48.214 21.4229 48.214 30C48.214 38.5771 45.9613 43 44.9997 43Z" fill="#316AD9"/>
</svg>
