<svg width="66" height="60" viewBox="0 0 66 60" fill="none" xmlns="http://www.w3.org/2000/svg">
<path d="M65.2225 17.8201L48.8069 0.518385C48.4901 0.183892 48.0679 0 47.6197 0C47.171 0 46.7493 0.18442 46.432 0.518385L37.4045 10.0332C37.033 10.4248 37.033 11.0599 37.4045 11.452C37.7765 11.8436 38.3791 11.8441 38.7511 11.452L47.6197 2.10472L63.7174 19.0714L34.7142 49.6402L31.3345 46.0787C31.4719 45.9143 31.6068 45.7473 31.7361 45.5751L32.255 44.8834C32.5839 44.9779 32.9434 44.941 33.2627 44.7586C34.1582 44.2492 35.2702 44.2492 36.1651 44.7586C36.3727 44.877 36.5968 44.9346 36.8184 44.9346C37.1683 44.9346 37.5118 44.7909 37.773 44.5156L39.9815 42.1879C40.353 41.7963 40.353 41.1611 39.9815 40.769C39.6095 40.3775 39.0068 40.3775 38.6353 40.769L36.7036 42.8045C35.8808 42.4235 34.9879 42.2909 34.1156 42.4029L34.7884 41.5067L39.086 36.9771L39.0865 36.9765L42.9159 32.9404C44.1077 32.6144 45.1931 31.9613 46.0685 31.0386C48.7708 28.1904 48.7708 23.5551 46.068 20.7063C43.3657 17.8581 38.9682 17.8581 36.2654 20.7069C34.463 22.6065 33.8132 25.4289 34.5287 27.9679C33.73 28.4773 33.0035 29.057 32.4089 29.6837L28.6096 33.6892C28.3655 33.9471 28.0376 34.0887 27.6871 34.0887H27.656C27.1396 34.0887 26.4001 33.4805 26.1901 32.9077V29.4301L45.6298 8.94042C46.9002 9.52961 48.3391 9.52961 49.6096 8.94042L57.2318 16.9741C56.6733 18.3136 56.6733 19.8297 57.2318 21.1687L41.8185 37.4135C41.4469 37.8056 41.4469 38.4408 41.8185 38.8329C42.0045 39.0284 42.2481 39.1267 42.4918 39.1267C42.7354 39.1267 42.9791 39.0284 43.1651 38.8329L58.8552 22.2953C59.2818 21.8451 59.3746 21.1639 59.0858 20.6006C58.602 19.6574 58.602 18.4854 59.0853 17.5427C59.3751 16.9788 59.2823 16.2972 58.8552 15.8475L50.679 7.22991C50.2513 6.77969 49.6056 6.68193 49.0706 6.98631C48.1757 7.49624 47.0637 7.49676 46.1688 6.98631C45.6343 6.68193 44.9881 6.77969 44.5604 7.22991L26.1896 26.5925V24.6917L35.5314 14.8456C35.7896 14.5734 35.8773 14.1687 35.7565 13.8046C35.6357 13.4405 35.3273 13.1821 34.9639 13.1393C33.375 12.9517 31.8128 12.8164 30.5569 12.7081C29.6961 12.6336 29.0157 12.5749 28.6101 12.5231C27.3597 12.3657 26.1409 12.8196 24.8855 13.9113L16.5775 20.8194C16.572 20.8242 16.5659 20.8289 16.5604 20.8342C15.2308 21.9941 14.2848 23.5345 13.825 25.2899C12.9637 28.5783 11.1026 34.5579 9.92994 36.994L5.88246 41.2605L5.73155 41.1009C5.33397 40.6819 4.80504 40.4509 4.24301 40.4509C3.68099 40.4509 3.15205 40.6819 2.75447 41.1009L0.616673 43.3546C0.219094 43.7737 0 44.3306 0 44.923C0 45.5159 0.219094 46.0728 0.616673 46.4919L12.7666 59.2977C13.1642 59.7168 13.6926 59.9477 14.2547 59.9477C14.8172 59.9477 15.3456 59.7168 15.7432 59.2977L17.881 57.044C18.2786 56.6255 18.4977 56.068 18.4977 55.4756C18.4977 54.8833 18.2786 54.3258 17.8815 53.9067L17.7261 53.7435L18.7348 52.6803C19.169 52.2226 19.71 51.8855 20.2996 51.7053C20.3126 51.7016 20.3251 51.6974 20.3382 51.6926L26.4407 49.5266C27.7292 49.0611 28.9175 48.363 29.9618 47.4695L33.5265 51.2266C33.8438 51.5611 34.2655 51.745 34.7142 51.745C35.1629 51.745 35.584 51.5611 35.9014 51.2266L65.2225 20.3232C65.5398 19.9887 65.7143 19.5443 65.7143 19.0714C65.7143 18.599 65.5398 18.154 65.2225 17.8201ZM38.4132 34.848L37.7158 34.1125C37.4717 33.8551 37.4717 33.4366 37.7158 33.1787L39.078 31.743C39.4901 31.3086 40.0316 31.0915 40.5731 31.0915C40.9541 31.0915 41.3351 31.1993 41.6711 31.4143L38.4132 34.848ZM37.6115 22.1257C39.5719 20.059 42.7615 20.0595 44.7218 22.1252C46.5528 24.055 46.6731 27.114 45.0848 29.1934C45.0818 28.4472 44.7985 27.7518 44.2475 27.1552C43.6404 26.3911 42.6497 25.9494 41.3788 25.8775C39.8396 25.7892 37.9856 26.2363 36.2624 27.0263C35.8989 25.2841 36.3902 23.4129 37.6115 22.1257ZM16.5349 55.6252L14.3971 57.8789C14.3484 57.9302 14.2928 57.9413 14.2547 57.9413C14.2171 57.9413 14.1614 57.9302 14.1128 57.8789L1.96283 45.0731C1.91369 45.0218 1.90366 44.9631 1.90366 44.923C1.90366 44.8828 1.91369 44.8247 1.96283 44.7734L4.10063 42.5197C4.14926 42.4685 4.20491 42.4574 4.24301 42.4574C4.28112 42.4574 4.33626 42.4685 4.3849 42.5197L16.5349 55.3256C16.584 55.3768 16.594 55.4355 16.594 55.4756C16.594 55.5158 16.584 55.5739 16.5349 55.6252ZM31.321 42.8933L30.2431 44.3301C29.9643 44.7021 29.6625 45.0503 29.3406 45.3743C29.3371 45.378 29.3331 45.3811 29.3296 45.3848C29.3271 45.3875 29.3251 45.3901 29.3226 45.3928C28.3264 46.391 27.1376 47.1535 25.8281 47.6269L19.7486 49.7845C18.8597 50.0603 18.044 50.5708 17.3887 51.2614L16.3799 52.3246L7.22861 42.6793L11.3814 38.3024C11.4491 38.2305 11.5062 38.1486 11.5508 38.0593C12.7957 35.5582 14.737 29.3466 15.66 25.8241C16.0144 24.4708 16.7424 23.2824 17.7657 22.3873L26.0732 15.4797C26.0788 15.4749 26.0848 15.4702 26.0903 15.4649C26.9486 14.7166 27.656 14.4239 28.3835 14.5158C28.8247 14.5718 29.5206 14.6316 30.401 14.7082C31.1089 14.7695 31.9156 14.8387 32.7669 14.9217L24.5641 23.5672C24.3857 23.7553 24.2854 24.0106 24.2854 24.2764L24.2859 33.063C24.2859 33.1502 24.2969 33.2374 24.3185 33.3214C24.6925 34.7994 26.2522 36.0956 27.656 36.0956H27.6871C28.5459 36.0956 29.3521 35.7448 29.9563 35.1075L33.7551 31.1031C34.3778 30.4468 35.1855 29.8449 36.0719 29.3434C36.0754 29.3419 36.0789 29.3408 36.0824 29.3392C36.123 29.3202 36.1606 29.298 36.1972 29.2742C37.8617 28.3574 39.7819 27.7946 41.2765 27.8813C42.0055 27.9225 42.5459 28.127 42.7981 28.4567C42.8197 28.4847 42.8427 28.5117 42.8663 28.5371C43.2032 28.8922 43.2022 29.1786 43.1641 29.3878C43.134 29.5501 43.0633 29.7276 42.9596 29.912C41.3883 28.6877 39.1547 28.8245 37.7319 30.3242L36.3697 31.7599C35.8919 32.264 35.6287 32.9336 35.6287 33.6459C35.6287 34.3582 35.8919 35.0277 36.3697 35.5313L37.0676 36.2669L33.4026 40.1291C33.3766 40.1566 33.352 40.1857 33.3294 40.2163L31.3235 42.8901C31.3225 42.8912 31.3215 42.8923 31.321 42.8933Z" fill="#316AD9"/>
</svg>
