<svg width="62" height="62" viewBox="0 0 62 62" fill="none" xmlns="http://www.w3.org/2000/svg">
<mask id="path-1-outside-1_3986_20435" maskUnits="userSpaceOnUse" x="0" y="0" width="62" height="62" fill="black">
<rect fill="white" width="62" height="62"/>
<path d="M59.5 55H58V53.5C57.9995 53.1023 57.8414 52.7211 57.5602 52.4398C57.279 52.1586 56.8977 52.0005 56.5 52H55V48.25C54.9994 47.7849 54.8549 47.3314 54.5864 46.9516C54.3178 46.5719 53.9383 46.2845 53.5 46.129V29.371C53.9383 29.2155 54.3178 28.9281 54.5864 28.5484C54.8549 28.1686 54.9994 27.7151 55 27.25V25H57.25C57.4489 25 57.6397 24.921 57.7803 24.7803C57.921 24.6397 58 24.4489 58 24.25V17.5C58 17.3705 57.9665 17.2432 57.9027 17.1305C57.8388 17.0178 57.7469 16.9235 57.6359 16.8569L31.3859 1.10688C31.2693 1.03694 31.1359 1 31 1C30.8641 1 30.7307 1.03694 30.6141 1.10688L4.36413 16.8569C4.25307 16.9235 4.16116 17.0178 4.09735 17.1305C4.03354 17.2432 4 17.3705 4 17.5V24.25C4 24.4489 4.07902 24.6397 4.21967 24.7803C4.36032 24.921 4.55109 25 4.75 25H7V27.25C7.00059 27.7151 7.14508 28.1686 7.41363 28.5484C7.68219 28.9281 8.06167 29.2155 8.5 29.371V46.129C8.06167 46.2845 7.68219 46.5719 7.41363 46.9516C7.14508 47.3314 7.00059 47.7849 7 48.25V52H5.5C5.10232 52.0005 4.72105 52.1586 4.43984 52.4398C4.15864 52.7211 4.00046 53.1023 4 53.5V55H2.5C2.10232 55.0005 1.72105 55.1586 1.43984 55.4398C1.15864 55.721 1.00046 56.1023 1 56.5V60.25C1 60.4489 1.07902 60.6397 1.21967 60.7803C1.36032 60.921 1.55109 61 1.75 61H60.25C60.4489 61 60.6397 60.921 60.7803 60.7803C60.921 60.6397 61 60.4489 61 60.25V56.5C60.9995 56.1023 60.8414 55.721 60.5602 55.4398C60.279 55.1586 59.8977 55.0005 59.5 55ZM37 52V48.25C36.9994 47.7849 36.8549 47.3314 36.5864 46.9516C36.3178 46.5719 35.9383 46.2845 35.5 46.129V29.371C35.9383 29.2155 36.3178 28.9281 36.5864 28.5484C36.8549 28.1686 36.9994 27.7151 37 27.25V25H43V27.25C43.0006 27.7151 43.1451 28.1686 43.4136 28.5484C43.6822 28.9281 44.0617 29.2155 44.5 29.371V46.129C44.0617 46.2845 43.6822 46.5719 43.4136 46.9516C43.1451 47.3314 43.0006 47.7849 43 48.25V52H37ZM19 52V48.25C18.9994 47.7849 18.8549 47.3314 18.5864 46.9516C18.3178 46.5719 17.9383 46.2845 17.5 46.129V29.371C17.9383 29.2155 18.3178 28.9281 18.5864 28.5484C18.8549 28.1686 18.9994 27.7151 19 27.25V25H25V27.25C25.0006 27.7151 25.1451 28.1686 25.4136 28.5484C25.6822 28.9281 26.0617 29.2155 26.5 29.371V46.129C26.0617 46.2845 25.6822 46.5719 25.4136 46.9516C25.1451 47.3314 25.0006 47.7849 25 48.25V52H19ZM10 29.5H16V46H10V29.5ZM28 29.5H34V46H28V29.5ZM34.75 28H27.25C27.0512 27.9998 26.8605 27.9207 26.7199 27.7801C26.5793 27.6395 26.5002 27.4488 26.5 27.25V25H35.5V27.25C35.4998 27.4488 35.4207 27.6395 35.2801 27.7801C35.1395 27.9207 34.9488 27.9998 34.75 28ZM26.5 48.25C26.5002 48.0512 26.5793 47.8605 26.7199 47.7199C26.8605 47.5793 27.0512 47.5002 27.25 47.5H34.75C34.9488 47.5002 35.1395 47.5793 35.2801 47.7199C35.4207 47.8605 35.4998 48.0512 35.5 48.25V52H26.5V48.25ZM52 46H46V29.5H52V46ZM44.5 48.25C44.5002 48.0512 44.5793 47.8605 44.7199 47.7199C44.8605 47.5793 45.0512 47.5002 45.25 47.5H52.75C52.9488 47.5002 53.1395 47.5793 53.2801 47.7199C53.4207 47.8605 53.4998 48.0512 53.5 48.25V52H44.5V48.25ZM53.5 27.25C53.4998 27.4488 53.4207 27.6395 53.2801 27.7801C53.1395 27.9207 52.9488 27.9998 52.75 28H45.25C45.0512 27.9998 44.8605 27.9207 44.7199 27.7801C44.5793 27.6395 44.5002 27.4488 44.5 27.25V25H53.5V27.25ZM5.5 17.9247L31 2.62466L56.5 17.9247V23.5H5.5V17.9247ZM17.5 25V27.25C17.4998 27.4488 17.4207 27.6395 17.2801 27.7801C17.1395 27.9207 16.9488 27.9998 16.75 28H9.25C9.05116 27.9998 8.86052 27.9207 8.71991 27.7801C8.57931 27.6395 8.50022 27.4488 8.5 27.25V25H17.5ZM8.5 48.25C8.50022 48.0512 8.57931 47.8605 8.71991 47.7199C8.86052 47.5793 9.05116 47.5002 9.25 47.5H16.75C16.9488 47.5002 17.1395 47.5793 17.2801 47.7199C17.4207 47.8605 17.4998 48.0512 17.5 48.25V52H8.5V48.25ZM5.5 53.5H56.5V55H5.5V53.5ZM59.5 59.5H2.5V56.5H59.5V59.5ZM31 20.5C32.1867 20.5 33.3467 20.1481 34.3334 19.4888C35.3201 18.8295 36.0891 17.8925 36.5433 16.7961C36.9974 15.6997 37.1162 14.4934 36.8847 13.3295C36.6532 12.1656 36.0818 11.0965 35.2426 10.2574C34.4035 9.41825 33.3344 8.84681 32.1705 8.61529C31.0067 8.38378 29.8003 8.5026 28.7039 8.95673C27.6075 9.41085 26.6705 10.1799 26.0112 11.1666C25.3519 12.1533 25 13.3133 25 14.5C25.0018 16.0907 25.6345 17.6158 26.7594 18.7406C27.8842 19.8655 29.4093 20.4982 31 20.5ZM31 10C31.89 10 32.76 10.2639 33.5001 10.7584C34.2401 11.2529 34.8169 11.9557 35.1575 12.7779C35.4981 13.6002 35.5872 14.505 35.4135 15.3779C35.2399 16.2508 34.8113 17.0527 34.182 17.682C33.5526 18.3113 32.7508 18.7399 31.8779 18.9135C31.005 19.0872 30.1002 18.9981 29.2779 18.6575C28.4557 18.3169 27.7529 17.7401 27.2584 17.0001C26.7639 16.2601 26.5 15.39 26.5 14.5C26.5014 13.3069 26.9759 12.1631 27.8195 11.3195C28.6631 10.4759 29.8069 10.0014 31 10Z"/>
</mask>
<path d="M59.5 55H58V53.5C57.9995 53.1023 57.8414 52.7211 57.5602 52.4398C57.279 52.1586 56.8977 52.0005 56.5 52H55V48.25C54.9994 47.7849 54.8549 47.3314 54.5864 46.9516C54.3178 46.5719 53.9383 46.2845 53.5 46.129V29.371C53.9383 29.2155 54.3178 28.9281 54.5864 28.5484C54.8549 28.1686 54.9994 27.7151 55 27.25V25H57.25C57.4489 25 57.6397 24.921 57.7803 24.7803C57.921 24.6397 58 24.4489 58 24.25V17.5C58 17.3705 57.9665 17.2432 57.9027 17.1305C57.8388 17.0178 57.7469 16.9235 57.6359 16.8569L31.3859 1.10688C31.2693 1.03694 31.1359 1 31 1C30.8641 1 30.7307 1.03694 30.6141 1.10688L4.36413 16.8569C4.25307 16.9235 4.16116 17.0178 4.09735 17.1305C4.03354 17.2432 4 17.3705 4 17.5V24.25C4 24.4489 4.07902 24.6397 4.21967 24.7803C4.36032 24.921 4.55109 25 4.75 25H7V27.25C7.00059 27.7151 7.14508 28.1686 7.41363 28.5484C7.68219 28.9281 8.06167 29.2155 8.5 29.371V46.129C8.06167 46.2845 7.68219 46.5719 7.41363 46.9516C7.14508 47.3314 7.00059 47.7849 7 48.25V52H5.5C5.10232 52.0005 4.72105 52.1586 4.43984 52.4398C4.15864 52.7211 4.00046 53.1023 4 53.5V55H2.5C2.10232 55.0005 1.72105 55.1586 1.43984 55.4398C1.15864 55.721 1.00046 56.1023 1 56.5V60.25C1 60.4489 1.07902 60.6397 1.21967 60.7803C1.36032 60.921 1.55109 61 1.75 61H60.25C60.4489 61 60.6397 60.921 60.7803 60.7803C60.921 60.6397 61 60.4489 61 60.25V56.5C60.9995 56.1023 60.8414 55.721 60.5602 55.4398C60.279 55.1586 59.8977 55.0005 59.5 55ZM37 52V48.25C36.9994 47.7849 36.8549 47.3314 36.5864 46.9516C36.3178 46.5719 35.9383 46.2845 35.5 46.129V29.371C35.9383 29.2155 36.3178 28.9281 36.5864 28.5484C36.8549 28.1686 36.9994 27.7151 37 27.25V25H43V27.25C43.0006 27.7151 43.1451 28.1686 43.4136 28.5484C43.6822 28.9281 44.0617 29.2155 44.5 29.371V46.129C44.0617 46.2845 43.6822 46.5719 43.4136 46.9516C43.1451 47.3314 43.0006 47.7849 43 48.25V52H37ZM19 52V48.25C18.9994 47.7849 18.8549 47.3314 18.5864 46.9516C18.3178 46.5719 17.9383 46.2845 17.5 46.129V29.371C17.9383 29.2155 18.3178 28.9281 18.5864 28.5484C18.8549 28.1686 18.9994 27.7151 19 27.25V25H25V27.25C25.0006 27.7151 25.1451 28.1686 25.4136 28.5484C25.6822 28.9281 26.0617 29.2155 26.5 29.371V46.129C26.0617 46.2845 25.6822 46.5719 25.4136 46.9516C25.1451 47.3314 25.0006 47.7849 25 48.25V52H19ZM10 29.5H16V46H10V29.5ZM28 29.5H34V46H28V29.5ZM34.75 28H27.25C27.0512 27.9998 26.8605 27.9207 26.7199 27.7801C26.5793 27.6395 26.5002 27.4488 26.5 27.25V25H35.5V27.25C35.4998 27.4488 35.4207 27.6395 35.2801 27.7801C35.1395 27.9207 34.9488 27.9998 34.75 28ZM26.5 48.25C26.5002 48.0512 26.5793 47.8605 26.7199 47.7199C26.8605 47.5793 27.0512 47.5002 27.25 47.5H34.75C34.9488 47.5002 35.1395 47.5793 35.2801 47.7199C35.4207 47.8605 35.4998 48.0512 35.5 48.25V52H26.5V48.25ZM52 46H46V29.5H52V46ZM44.5 48.25C44.5002 48.0512 44.5793 47.8605 44.7199 47.7199C44.8605 47.5793 45.0512 47.5002 45.25 47.5H52.75C52.9488 47.5002 53.1395 47.5793 53.2801 47.7199C53.4207 47.8605 53.4998 48.0512 53.5 48.25V52H44.5V48.25ZM53.5 27.25C53.4998 27.4488 53.4207 27.6395 53.2801 27.7801C53.1395 27.9207 52.9488 27.9998 52.75 28H45.25C45.0512 27.9998 44.8605 27.9207 44.7199 27.7801C44.5793 27.6395 44.5002 27.4488 44.5 27.25V25H53.5V27.25ZM5.5 17.9247L31 2.62466L56.5 17.9247V23.5H5.5V17.9247ZM17.5 25V27.25C17.4998 27.4488 17.4207 27.6395 17.2801 27.7801C17.1395 27.9207 16.9488 27.9998 16.75 28H9.25C9.05116 27.9998 8.86052 27.9207 8.71991 27.7801C8.57931 27.6395 8.50022 27.4488 8.5 27.25V25H17.5ZM8.5 48.25C8.50022 48.0512 8.57931 47.8605 8.71991 47.7199C8.86052 47.5793 9.05116 47.5002 9.25 47.5H16.75C16.9488 47.5002 17.1395 47.5793 17.2801 47.7199C17.4207 47.8605 17.4998 48.0512 17.5 48.25V52H8.5V48.25ZM5.5 53.5H56.5V55H5.5V53.5ZM59.5 59.5H2.5V56.5H59.5V59.5ZM31 20.5C32.1867 20.5 33.3467 20.1481 34.3334 19.4888C35.3201 18.8295 36.0891 17.8925 36.5433 16.7961C36.9974 15.6997 37.1162 14.4934 36.8847 13.3295C36.6532 12.1656 36.0818 11.0965 35.2426 10.2574C34.4035 9.41825 33.3344 8.84681 32.1705 8.61529C31.0067 8.38378 29.8003 8.5026 28.7039 8.95673C27.6075 9.41085 26.6705 10.1799 26.0112 11.1666C25.3519 12.1533 25 13.3133 25 14.5C25.0018 16.0907 25.6345 17.6158 26.7594 18.7406C27.8842 19.8655 29.4093 20.4982 31 20.5ZM31 10C31.89 10 32.76 10.2639 33.5001 10.7584C34.2401 11.2529 34.8169 11.9557 35.1575 12.7779C35.4981 13.6002 35.5872 14.505 35.4135 15.3779C35.2399 16.2508 34.8113 17.0527 34.182 17.682C33.5526 18.3113 32.7508 18.7399 31.8779 18.9135C31.005 19.0872 30.1002 18.9981 29.2779 18.6575C28.4557 18.3169 27.7529 17.7401 27.2584 17.0001C26.7639 16.2601 26.5 15.39 26.5 14.5C26.5014 13.3069 26.9759 12.1631 27.8195 11.3195C28.6631 10.4759 29.8069 10.0014 31 10Z" fill="#316AD9"/>
<path d="M59.5 55H58V53.5C57.9995 53.1023 57.8414 52.7211 57.5602 52.4398C57.279 52.1586 56.8977 52.0005 56.5 52H55V48.25C54.9994 47.7849 54.8549 47.3314 54.5864 46.9516C54.3178 46.5719 53.9383 46.2845 53.5 46.129V29.371C53.9383 29.2155 54.3178 28.9281 54.5864 28.5484C54.8549 28.1686 54.9994 27.7151 55 27.25V25H57.25C57.4489 25 57.6397 24.921 57.7803 24.7803C57.921 24.6397 58 24.4489 58 24.25V17.5C58 17.3705 57.9665 17.2432 57.9027 17.1305C57.8388 17.0178 57.7469 16.9235 57.6359 16.8569L31.3859 1.10688C31.2693 1.03694 31.1359 1 31 1C30.8641 1 30.7307 1.03694 30.6141 1.10688L4.36413 16.8569C4.25307 16.9235 4.16116 17.0178 4.09735 17.1305C4.03354 17.2432 4 17.3705 4 17.5V24.25C4 24.4489 4.07902 24.6397 4.21967 24.7803C4.36032 24.921 4.55109 25 4.75 25H7V27.25C7.00059 27.7151 7.14508 28.1686 7.41363 28.5484C7.68219 28.9281 8.06167 29.2155 8.5 29.371V46.129C8.06167 46.2845 7.68219 46.5719 7.41363 46.9516C7.14508 47.3314 7.00059 47.7849 7 48.25V52H5.5C5.10232 52.0005 4.72105 52.1586 4.43984 52.4398C4.15864 52.7211 4.00046 53.1023 4 53.5V55H2.5C2.10232 55.0005 1.72105 55.1586 1.43984 55.4398C1.15864 55.721 1.00046 56.1023 1 56.5V60.25C1 60.4489 1.07902 60.6397 1.21967 60.7803C1.36032 60.921 1.55109 61 1.75 61H60.25C60.4489 61 60.6397 60.921 60.7803 60.7803C60.921 60.6397 61 60.4489 61 60.25V56.5C60.9995 56.1023 60.8414 55.721 60.5602 55.4398C60.279 55.1586 59.8977 55.0005 59.5 55ZM37 52V48.25C36.9994 47.7849 36.8549 47.3314 36.5864 46.9516C36.3178 46.5719 35.9383 46.2845 35.5 46.129V29.371C35.9383 29.2155 36.3178 28.9281 36.5864 28.5484C36.8549 28.1686 36.9994 27.7151 37 27.25V25H43V27.25C43.0006 27.7151 43.1451 28.1686 43.4136 28.5484C43.6822 28.9281 44.0617 29.2155 44.5 29.371V46.129C44.0617 46.2845 43.6822 46.5719 43.4136 46.9516C43.1451 47.3314 43.0006 47.7849 43 48.25V52H37ZM19 52V48.25C18.9994 47.7849 18.8549 47.3314 18.5864 46.9516C18.3178 46.5719 17.9383 46.2845 17.5 46.129V29.371C17.9383 29.2155 18.3178 28.9281 18.5864 28.5484C18.8549 28.1686 18.9994 27.7151 19 27.25V25H25V27.25C25.0006 27.7151 25.1451 28.1686 25.4136 28.5484C25.6822 28.9281 26.0617 29.2155 26.5 29.371V46.129C26.0617 46.2845 25.6822 46.5719 25.4136 46.9516C25.1451 47.3314 25.0006 47.7849 25 48.25V52H19ZM10 29.5H16V46H10V29.5ZM28 29.5H34V46H28V29.5ZM34.75 28H27.25C27.0512 27.9998 26.8605 27.9207 26.7199 27.7801C26.5793 27.6395 26.5002 27.4488 26.5 27.25V25H35.5V27.25C35.4998 27.4488 35.4207 27.6395 35.2801 27.7801C35.1395 27.9207 34.9488 27.9998 34.75 28ZM26.5 48.25C26.5002 48.0512 26.5793 47.8605 26.7199 47.7199C26.8605 47.5793 27.0512 47.5002 27.25 47.5H34.75C34.9488 47.5002 35.1395 47.5793 35.2801 47.7199C35.4207 47.8605 35.4998 48.0512 35.5 48.25V52H26.5V48.25ZM52 46H46V29.5H52V46ZM44.5 48.25C44.5002 48.0512 44.5793 47.8605 44.7199 47.7199C44.8605 47.5793 45.0512 47.5002 45.25 47.5H52.75C52.9488 47.5002 53.1395 47.5793 53.2801 47.7199C53.4207 47.8605 53.4998 48.0512 53.5 48.25V52H44.5V48.25ZM53.5 27.25C53.4998 27.4488 53.4207 27.6395 53.2801 27.7801C53.1395 27.9207 52.9488 27.9998 52.75 28H45.25C45.0512 27.9998 44.8605 27.9207 44.7199 27.7801C44.5793 27.6395 44.5002 27.4488 44.5 27.25V25H53.5V27.25ZM5.5 17.9247L31 2.62466L56.5 17.9247V23.5H5.5V17.9247ZM17.5 25V27.25C17.4998 27.4488 17.4207 27.6395 17.2801 27.7801C17.1395 27.9207 16.9488 27.9998 16.75 28H9.25C9.05116 27.9998 8.86052 27.9207 8.71991 27.7801C8.57931 27.6395 8.50022 27.4488 8.5 27.25V25H17.5ZM8.5 48.25C8.50022 48.0512 8.57931 47.8605 8.71991 47.7199C8.86052 47.5793 9.05116 47.5002 9.25 47.5H16.75C16.9488 47.5002 17.1395 47.5793 17.2801 47.7199C17.4207 47.8605 17.4998 48.0512 17.5 48.25V52H8.5V48.25ZM5.5 53.5H56.5V55H5.5V53.5ZM59.5 59.5H2.5V56.5H59.5V59.5ZM31 20.5C32.1867 20.5 33.3467 20.1481 34.3334 19.4888C35.3201 18.8295 36.0891 17.8925 36.5433 16.7961C36.9974 15.6997 37.1162 14.4934 36.8847 13.3295C36.6532 12.1656 36.0818 11.0965 35.2426 10.2574C34.4035 9.41825 33.3344 8.84681 32.1705 8.61529C31.0067 8.38378 29.8003 8.5026 28.7039 8.95673C27.6075 9.41085 26.6705 10.1799 26.0112 11.1666C25.3519 12.1533 25 13.3133 25 14.5C25.0018 16.0907 25.6345 17.6158 26.7594 18.7406C27.8842 19.8655 29.4093 20.4982 31 20.5ZM31 10C31.89 10 32.76 10.2639 33.5001 10.7584C34.2401 11.2529 34.8169 11.9557 35.1575 12.7779C35.4981 13.6002 35.5872 14.505 35.4135 15.3779C35.2399 16.2508 34.8113 17.0527 34.182 17.682C33.5526 18.3113 32.7508 18.7399 31.8779 18.9135C31.005 19.0872 30.1002 18.9981 29.2779 18.6575C28.4557 18.3169 27.7529 17.7401 27.2584 17.0001C26.7639 16.2601 26.5 15.39 26.5 14.5C26.5014 13.3069 26.9759 12.1631 27.8195 11.3195C28.6631 10.4759 29.8069 10.0014 31 10Z" stroke="#316AD9" stroke-width="0.6" mask="url(#path-1-outside-1_3986_20435)"/>
</svg>
