<svg width="22" height="23" viewBox="0 0 22 23" fill="none" xmlns="http://www.w3.org/2000/svg">
<g id="Search">
<g id="Search_2">
<path fill-rule="evenodd" clip-rule="evenodd" d="M10.6115 1C5.30323 1 1 5.42478 1 10.883C1 16.3413 5.30323 20.7661 10.6115 20.7661C12.8824 20.7661 14.9694 19.9563 16.6142 18.6022L19.7385 21.8065L19.8216 21.8801C20.1117 22.1008 20.5229 22.0757 20.7853 21.8051C21.074 21.5075 21.0734 21.0256 20.784 20.7287L17.6962 17.5619C19.2654 15.803 20.2231 13.458 20.2231 10.883C20.2231 5.42478 15.9198 1 10.6115 1ZM10.6116 2.52246C15.1023 2.52246 18.7427 6.26571 18.7427 10.8832C18.7427 15.5008 15.1023 19.244 10.6116 19.244C6.12089 19.244 2.48047 15.5008 2.48047 10.8832C2.48047 6.26571 6.12089 2.52246 10.6116 2.52246Z" fill="#316AD9"/>
<path d="M16.6142 18.6022L16.9721 18.2532L16.6512 17.9241L16.2964 18.2162L16.6142 18.6022ZM19.7385 21.8065L19.3805 22.1556L19.3933 22.1687L19.4071 22.1809L19.7385 21.8065ZM19.8216 21.8801L19.4902 22.2544L19.5041 22.2668L19.5189 22.278L19.8216 21.8801ZM20.7853 21.8051L20.4264 21.457L20.4264 21.457L20.7853 21.8051ZM20.784 20.7287L20.426 21.0778L20.784 20.7287ZM17.6962 17.5619L17.3231 17.2291L17.0126 17.5771L17.3382 17.911L17.6962 17.5619ZM1.5 10.883C1.5 5.68771 5.59241 1.5 10.6115 1.5V0.5C5.01405 0.5 0.5 5.16186 0.5 10.883H1.5ZM10.6115 20.2661C5.59241 20.2661 1.5 16.0784 1.5 10.883H0.5C0.5 16.6042 5.01405 21.2661 10.6115 21.2661V20.2661ZM16.2964 18.2162C14.7367 19.5002 12.761 20.2661 10.6115 20.2661V21.2661C13.0039 21.2661 15.202 20.4124 16.9319 18.9882L16.2964 18.2162ZM20.0965 21.4574L16.9721 18.2532L16.2562 18.9513L19.3805 22.1556L20.0965 21.4574ZM20.1531 21.5057L20.07 21.4321L19.4071 22.1809L19.4902 22.2544L20.1531 21.5057ZM20.4264 21.457C20.3417 21.5444 20.2148 21.551 20.1244 21.4822L19.5189 22.278C20.0086 22.6506 20.7041 22.607 21.1442 22.1532L20.4264 21.457ZM20.426 21.0778C20.5264 21.1808 20.5267 21.3536 20.4264 21.457L21.1442 22.1532C21.6214 21.6613 21.6204 20.8703 21.142 20.3796L20.426 21.0778ZM17.3382 17.911L20.426 21.0778L21.142 20.3796L18.0542 17.2129L17.3382 17.911ZM19.7231 10.883C19.7231 13.3322 18.8126 15.5595 17.3231 17.2291L18.0693 17.8948C19.7181 16.0466 20.7231 13.5838 20.7231 10.883H19.7231ZM10.6115 1.5C15.6307 1.5 19.7231 5.68771 19.7231 10.883H20.7231C20.7231 5.16186 16.209 0.5 10.6115 0.5V1.5ZM19.2427 10.8832C19.2427 6.00279 15.3914 2.02246 10.6116 2.02246V3.02246C14.8131 3.02246 18.2427 6.52863 18.2427 10.8832H19.2427ZM10.6116 19.744C15.3914 19.744 19.2427 15.7637 19.2427 10.8832H18.2427C18.2427 15.2378 14.8131 18.744 10.6116 18.744V19.744ZM1.98047 10.8832C1.98047 15.7637 5.83171 19.744 10.6116 19.744V18.744C6.41007 18.744 2.98047 15.2378 2.98047 10.8832H1.98047ZM10.6116 2.02246C5.83171 2.02246 1.98047 6.00279 1.98047 10.8832H2.98047C2.98047 6.52863 6.41007 3.02246 10.6116 3.02246V2.02246Z" fill="#316AD9"/>
</g>
</g>
</svg>
