<svg width="33" height="34" viewBox="0 0 33 34" fill="none" xmlns="http://www.w3.org/2000/svg">
<g id="Search">
<path fill-rule="evenodd" clip-rule="evenodd" d="M14.5608 1C7.0714 1 1 6.90985 1 14.2C1 21.4902 7.0714 27.4 14.5608 27.4C17.745 27.4 20.6728 26.3318 22.9867 24.5434L30.2181 32.7032L30.3353 32.8015C30.7446 33.0962 31.3247 33.0627 31.695 32.7013C32.1023 32.3038 32.1015 31.6601 31.6931 31.2637L24.5152 23.1642C26.7536 20.8101 28.1217 17.6606 28.1217 14.2C28.1217 6.90985 22.0503 1 14.5608 1ZM14.5608 3.03333C20.8967 3.03333 26.033 8.0329 26.033 14.2002C26.033 20.3675 20.8967 25.367 14.5608 25.367C8.22497 25.367 3.08873 20.3675 3.08873 14.2002C3.08873 8.0329 8.22497 3.03333 14.5608 3.03333Z" fill="white"/>
<path d="M22.9867 24.5434L23.3609 24.2118L23.0509 23.8619L22.681 24.1478L22.9867 24.5434ZM30.2181 32.7032L29.8439 33.0348L29.8685 33.0626L29.8969 33.0864L30.2181 32.7032ZM30.3353 32.8015L30.0142 33.1847L30.0282 33.1965L30.0431 33.2072L30.3353 32.8015ZM31.695 32.7013L32.0442 33.0592L31.695 32.7013ZM31.6931 31.2637L31.3189 31.5953L31.3313 31.6093L31.3448 31.6224L31.6931 31.2637ZM24.5152 23.1642L24.1528 22.8196L23.8365 23.1523L24.141 23.4958L24.5152 23.1642ZM1.5 14.2C1.5 7.19862 7.33474 1.5 14.5608 1.5V0.5C6.80805 0.5 0.5 6.62108 0.5 14.2H1.5ZM14.5608 26.9C7.33474 26.9 1.5 21.2014 1.5 14.2H0.5C0.5 21.7789 6.80805 27.9 14.5608 27.9V26.9ZM22.681 24.1478C20.4525 25.8702 17.6316 26.9 14.5608 26.9V27.9C17.8583 27.9 20.8932 26.7934 23.2925 24.939L22.681 24.1478ZM30.5923 32.3716L23.3609 24.2118L22.6125 24.8751L29.8439 33.0348L30.5923 32.3716ZM30.6565 32.4183L30.5392 32.32L29.8969 33.0864L30.0142 33.1847L30.6565 32.4183ZM31.3458 32.3435C31.1528 32.5318 30.8438 32.5515 30.6275 32.3958L30.0431 33.2072C30.6454 33.641 31.4966 33.5936 32.0442 33.0592L31.3458 32.3435ZM31.3448 31.6224C31.5513 31.8229 31.5517 32.1425 31.3458 32.3435L32.0442 33.0592C32.653 32.4651 32.6516 31.4974 32.0414 30.9049L31.3448 31.6224ZM24.141 23.4958L31.3189 31.5953L32.0673 30.932L24.8894 22.8326L24.141 23.4958ZM27.6217 14.2C27.6217 17.5256 26.3077 20.5535 24.1528 22.8196L24.8775 23.5087C27.1995 21.0668 28.6217 17.7956 28.6217 14.2H27.6217ZM14.5608 1.5C21.7869 1.5 27.6217 7.19862 27.6217 14.2H28.6217C28.6217 6.62108 22.3136 0.5 14.5608 0.5V1.5ZM26.533 14.2002C26.533 7.74413 21.1601 2.53333 14.5608 2.53333V3.53333C20.6334 3.53333 25.533 8.32167 25.533 14.2002H26.533ZM14.5608 25.867C21.1601 25.867 26.533 20.6562 26.533 14.2002H25.533C25.533 20.0787 20.6334 24.867 14.5608 24.867V25.867ZM2.58873 14.2002C2.58873 20.6562 7.96163 25.867 14.5608 25.867V24.867C8.48832 24.867 3.58873 20.0787 3.58873 14.2002H2.58873ZM14.5608 2.53333C7.96163 2.53333 2.58873 7.74413 2.58873 14.2002H3.58873C3.58873 8.32167 8.48832 3.53333 14.5608 3.53333V2.53333Z" fill="white"/>
</g>
</svg>
