<svg width="53" height="61" viewBox="0 0 53 61" fill="none" xmlns="http://www.w3.org/2000/svg">
<path d="M0.572082 7.12783C0.651039 6.49832 1.20374 5.9475 1.8354 5.9475C5.46743 5.63275 23.1539 4.21635 25.2068 1.30488C25.7595 0.360614 27.1017 0.360614 27.5755 1.30488C29.7073 4.21635 47.3148 5.63275 51.0258 5.86881C51.6574 5.9475 52.2101 6.49832 52.2101 7.20652C53.4735 28.8459 48.815 50.8786 27.0228 60.4786C26.628 60.636 26.1542 60.636 25.7595 60.4786C3.96724 50.8786 -0.612278 28.8459 0.572082 7.12783ZM27.7334 4.53111V57.1737C46.6831 47.8098 50.552 27.7442 49.6046 8.46553C43.6828 8.07209 33.1814 7.20652 27.7334 4.53111Z" fill="#316AD9"/>
</svg>
