<svg width="64" height="62" viewBox="0 0 64 62" fill="none" xmlns="http://www.w3.org/2000/svg">
<path d="M8.16566 18.5967C5.01932 18.5967 2.09249 17.0253 0.409561 14.4538C0.263219 14.2395 0.263219 13.8824 0.409561 13.5967C0.555902 13.311 0.848585 13.1681 1.14127 13.1681H5.16566C5.97054 13.1681 6.77541 12.7395 7.21444 12.0253C8.09249 10.5253 8.09249 8.66811 7.21444 7.16811C6.77541 6.45382 6.04371 6.02525 5.16566 6.02525H1.14127C0.848585 6.02525 0.555902 5.88239 0.409561 5.59668C0.263219 5.31097 0.263219 5.02525 0.409561 4.73954C2.16566 2.16811 5.01932 0.59668 8.16566 0.59668C11.312 0.59668 14.2388 2.16811 15.9218 4.73954H22.873H47.5315C49.2876 2.16811 52.2144 0.59668 55.434 0.59668C58.5803 0.59668 61.5071 2.16811 63.19 4.73954C63.3364 4.95382 63.3364 5.31097 63.19 5.59668C63.0437 5.88239 62.751 6.02525 62.4583 6.02525H58.434C57.6291 6.02525 56.8242 6.45382 56.3852 7.16811C55.5071 8.66811 55.5071 10.5253 56.3852 12.0253C56.8242 12.7395 57.5559 13.1681 58.434 13.1681H62.4583C62.751 13.1681 63.0437 13.311 63.19 13.5967C63.3364 13.8824 63.3364 14.1681 63.19 14.4538C61.5071 17.0253 58.5803 18.5967 55.434 18.5967C52.2876 18.5967 49.3608 17.0253 47.6779 14.4538H15.9949C14.312 17.0253 11.3852 18.5967 8.16566 18.5967Z" fill="#316AD9"/>
<mask id="path-2-inside-1_3718_6413" fill="white">
<path fill-rule="evenodd" clip-rule="evenodd" d="M57.2035 61.5967H51.6259C50.2558 61.5967 49.4378 60.2553 49.4378 58.009V56.2747C44.7198 56.6779 38.2636 57.0951 31.7605 57.0951C25.299 57.0951 18.8291 56.6721 14.09 56.2637V58.009C14.09 60.2553 13.2704 61.5967 11.8981 61.5967H6.32271C4.95042 61.5967 4.13082 60.2553 4.13082 58.009V54.1351C2.041 47.8191 3.0481 41.712 4.71149 37.0059L4.63588 36.9978L5.08575 35.9957C5.12032 35.9069 5.15488 35.8194 5.18944 35.7319L5.18954 35.7316L5.22412 35.644L4.09679 35.4358C2.78725 35.1915 1.7998 34.0304 1.7998 32.7347V30.5987C1.7998 29.2044 2.96569 28.0698 4.39772 28.0698H9.24196C10.1198 26.7211 10.9742 25.6204 11.7643 24.8338C12.2769 24.2363 12.7872 23.6896 13.2832 23.2055C16.3575 20.2131 26.0278 19.6973 30.0434 19.6149C36.17 19.4868 42.0984 20.0409 45.9015 21.0931C47.9452 21.6589 49.3659 22.3498 50.2445 23.2048C50.7571 23.7036 51.2841 24.2702 51.8141 24.8905C52.605 25.6748 53.445 26.7498 54.3085 28.0705H54.3266H59.2056C59.9005 28.0705 60.553 28.3347 61.0444 28.8151C61.5359 29.2956 61.8035 29.9313 61.7998 30.6068V32.7362C61.7998 34.0311 60.8153 35.1922 59.5096 35.4365L58.3082 35.6587L58.9108 36.9993L58.8102 37.0096C60.4706 41.7135 61.4769 47.8183 59.3901 54.1358L59.3939 58.009C59.3931 60.2553 58.5751 61.5967 57.2035 61.5967ZM31.7612 33.6301C35.7421 33.6301 40.0803 33.8514 44.2768 34.0654L44.2835 34.0657C48.1184 34.2607 51.7907 34.4447 54.4151 34.4079C53.8662 33.2836 53.315 32.2424 52.7729 31.2999L52.323 30.6016C50.9855 28.5252 49.4499 26.5857 48.1093 25.2804C47.828 25.0074 47.0606 24.4674 45.0751 23.9177C41.5465 22.9414 35.9522 22.4322 30.1062 22.5506C21.765 22.7228 16.6456 24.0862 15.4192 25.2804C14.0832 26.5835 12.5551 28.5105 11.2274 30.5678L10.984 30.9452C10.3708 31.9849 9.74703 33.1504 9.13157 34.4071C11.7516 34.4468 15.412 34.2604 19.2356 34.0656L19.248 34.065L19.2987 34.0624C23.4769 33.8498 27.795 33.6301 31.7612 33.6301ZM56.0444 31.0078C56.3711 31.6104 56.6969 32.2439 57.0228 32.9039L58.78 32.5794V31.0085L56.0444 31.0078ZM4.8181 32.5787L6.52761 32.8958C6.85122 32.241 7.17784 31.6104 7.50447 31.0085H4.8181V32.5787ZM15.4527 44.1754C15.4527 45.6185 13.3685 45.9174 11.8948 45.9174C10.421 45.9174 9.22626 44.7475 9.22626 43.3044C9.22626 41.8613 10.421 40.6914 11.8948 40.6914C13.3685 40.6914 15.4527 42.7323 15.4527 44.1754ZM51.3012 45.9174C52.7749 45.9174 53.9697 44.7475 53.9697 43.3044C53.9697 41.8613 52.7749 40.6914 51.3012 40.6914C49.8274 40.6914 47.7432 42.7323 47.7432 44.1754C47.7432 45.6185 49.8274 45.9174 51.3012 45.9174Z"/>
</mask>
<path d="M49.4378 56.2747H51.4378V54.0965L49.2675 54.282L49.4378 56.2747ZM14.09 56.2637L14.2617 54.2711L12.09 54.084V56.2637H14.09ZM4.13082 54.1351H6.13082V53.8128L6.02958 53.5068L4.13082 54.1351ZM4.71149 37.0059L6.59717 37.6724L7.44045 35.2866L4.92435 35.0173L4.71149 37.0059ZM4.63588 36.9978L2.8113 36.1788L1.68256 38.6931L4.42303 38.9865L4.63588 36.9978ZM5.08575 35.9957L6.91034 36.8148L6.9311 36.7685L6.94948 36.7213L5.08575 35.9957ZM5.18944 35.7319L7.04968 36.4664L7.0517 36.4612L5.18944 35.7319ZM5.18954 35.7316L3.32917 34.9974L3.32729 35.0022L5.18954 35.7316ZM5.22412 35.644L7.08449 36.3782L7.97625 34.1185L5.58739 33.6773L5.22412 35.644ZM4.09679 35.4358L3.73004 37.4018L3.73352 37.4025L4.09679 35.4358ZM9.24196 28.0698V30.0698H10.3265L10.9182 29.1608L9.24196 28.0698ZM11.7643 24.8338L13.1753 26.2512L13.231 26.1958L13.2821 26.1361L11.7643 24.8338ZM13.2832 23.2055L11.8882 21.7723L11.8862 21.7743L13.2832 23.2055ZM30.0434 19.6149L30.0844 21.6144L30.0852 21.6144L30.0434 19.6149ZM45.9015 21.0931L46.4352 19.1656L46.4348 19.1655L45.9015 21.0931ZM50.2445 23.2048L51.6394 21.7714L51.6393 21.7714L50.2445 23.2048ZM51.8141 24.8905L50.2936 26.1897L50.3472 26.2524L50.4058 26.3105L51.8141 24.8905ZM54.3085 28.0705L52.6345 29.1649L53.2265 30.0705H54.3085V28.0705ZM61.0444 28.8151L59.6463 30.2452V30.2453L61.0444 28.8151ZM61.7998 30.6068L59.7998 30.5956V30.6068H61.7998ZM59.5096 35.4365L59.8733 37.4031L59.8774 37.4024L59.5096 35.4365ZM58.3082 35.6587L57.9444 33.6921L55.4396 34.1553L56.484 36.4787L58.3082 35.6587ZM58.9108 36.9993L59.1146 38.9889L61.8709 38.7065L60.7349 36.1793L58.9108 36.9993ZM58.8102 37.0096L58.6064 35.02L56.0784 35.279L56.9242 37.6753L58.8102 37.0096ZM59.3901 54.1358L57.491 53.5085L57.3898 53.815L57.3901 54.1377L59.3901 54.1358ZM59.3939 58.009L61.3939 58.0097V58.007L59.3939 58.009ZM44.2768 34.0654L44.379 32.068L44.3786 32.068L44.2768 34.0654ZM44.2835 34.0657L44.1813 36.0631L44.182 36.0631L44.2835 34.0657ZM54.4151 34.4079L54.4431 36.4077L57.5955 36.3635L56.2123 33.5304L54.4151 34.4079ZM52.7729 31.2999L54.5065 30.3027L54.4814 30.2591L54.4541 30.2167L52.7729 31.2999ZM52.323 30.6016L50.6416 31.6847L50.6417 31.6848L52.323 30.6016ZM48.1093 25.2804L49.5046 23.8475L49.5022 23.8452L48.1093 25.2804ZM45.0751 23.9177L45.6087 21.9902L45.6085 21.9902L45.0751 23.9177ZM30.1062 22.5506L30.0656 20.5511L30.0649 20.5511L30.1062 22.5506ZM15.4192 25.2804L14.0239 23.8475L14.0227 23.8487L15.4192 25.2804ZM11.2274 30.5678L9.547 29.4833L9.54672 29.4837L11.2274 30.5678ZM10.984 30.9452L9.30326 29.8612L9.28159 29.8948L9.26128 29.9292L10.984 30.9452ZM9.13157 34.4071L7.3354 33.5275L5.94866 36.3591L9.10128 36.4069L9.13157 34.4071ZM19.2356 34.0656L19.134 32.0682L19.1339 32.0682L19.2356 34.0656ZM19.248 34.065L19.3496 36.0624H19.3496L19.248 34.065ZM19.2987 34.0624L19.4003 36.0598L19.4003 36.0598L19.2987 34.0624ZM57.0228 32.9039L55.2295 33.7894L55.899 35.1453L57.386 34.8707L57.0228 32.9039ZM56.0444 31.0078L56.045 29.0078L52.685 29.0069L54.2861 31.9608L56.0444 31.0078ZM58.78 32.5794L59.1431 34.5462L60.78 34.2439V32.5794H58.78ZM58.78 31.0085H60.78V29.0091L58.7805 29.0085L58.78 31.0085ZM6.52761 32.8958L6.16282 34.8623L7.65037 35.1382L8.32063 33.7819L6.52761 32.8958ZM4.8181 32.5787H2.8181V34.2418L4.45331 34.5451L4.8181 32.5787ZM7.50447 31.0085L9.26231 31.9625L10.8654 29.0085H7.50447V31.0085ZM4.8181 31.0085V29.0085H2.8181V31.0085H4.8181ZM51.6259 63.5967H57.2035V59.5967H51.6259V63.5967ZM47.4378 58.009C47.4378 59.3316 47.6717 60.6391 48.3106 61.6866C49.0058 62.8266 50.1636 63.5967 51.6259 63.5967V59.5967C51.6227 59.5967 51.6726 59.5998 51.7314 59.6349C51.7832 59.6658 51.7719 59.6799 51.7255 59.6038C51.6129 59.4191 51.4378 58.9328 51.4378 58.009H47.4378ZM47.4378 56.2747V58.009H51.4378V56.2747H47.4378ZM31.7605 59.0951C38.3411 59.0951 44.8587 58.6734 49.6081 58.2675L49.2675 54.282C44.5809 54.6825 38.1861 55.0951 31.7605 55.0951V59.0951ZM13.9183 58.2563C18.6883 58.6673 25.2203 59.0951 31.7605 59.0951V55.0951C25.3777 55.0951 18.97 54.6768 14.2617 54.2711L13.9183 58.2563ZM16.09 58.009V56.2637H12.09V58.009H16.09ZM11.8981 63.5967C13.3599 63.5967 14.5187 62.8282 15.2153 61.6879C15.8555 60.6401 16.09 59.3321 16.09 58.009H12.09C12.09 58.9323 11.9147 59.4181 11.802 59.6025C11.7556 59.6784 11.7442 59.6646 11.7954 59.6341C11.8535 59.5994 11.9024 59.5967 11.8981 59.5967V63.5967ZM6.32271 63.5967H11.8981V59.5967H6.32271V63.5967ZM2.13082 58.009C2.13082 59.3321 2.36528 60.6401 3.00548 61.6879C3.70213 62.8282 4.86093 63.5967 6.32271 63.5967V59.5967C6.31836 59.5967 6.36729 59.5994 6.42541 59.6341C6.47661 59.6646 6.46523 59.6784 6.41882 59.6025C6.30615 59.4181 6.13082 58.9323 6.13082 58.009H2.13082ZM2.13082 54.1351V58.009H6.13082V54.1351H2.13082ZM2.82581 36.3394C1.07381 41.2962 -0.0441549 47.884 2.23206 54.7633L6.02958 53.5068C4.12615 47.7541 5.0224 42.1278 6.59717 37.6724L2.82581 36.3394ZM4.42303 38.9865L4.49863 38.9946L4.92435 35.0173L4.84874 35.0092L4.42303 38.9865ZM3.26117 35.1766L2.8113 36.1788L6.46047 37.8169L6.91034 36.8148L3.26117 35.1766ZM3.32921 34.9973C3.29493 35.0842 3.25861 35.1761 3.22203 35.2701L6.94948 36.7213C6.98202 36.6377 7.01483 36.5546 7.04968 36.4664L3.32921 34.9973ZM3.32729 35.0022L3.32719 35.0025L7.0517 36.4612L7.0518 36.461L3.32729 35.0022ZM3.36375 34.9098L3.32917 34.9974L7.04991 36.4658L7.08449 36.3782L3.36375 34.9098ZM3.73352 37.4025L4.86084 37.6107L5.58739 33.6773L4.46007 33.469L3.73352 37.4025ZM-0.200195 32.7347C-0.200195 35.0333 1.51333 36.9883 3.73004 37.4018L4.46355 33.4697C4.06118 33.3946 3.7998 33.0275 3.7998 32.7347H-0.200195ZM-0.200195 30.5987V32.7347H3.7998V30.5987H-0.200195ZM4.39772 26.0698C1.91239 26.0698 -0.200195 28.0492 -0.200195 30.5987H3.7998C3.7998 30.3595 4.01899 30.0698 4.39772 30.0698V26.0698ZM9.24196 26.0698H4.39772V30.0698H9.24196V26.0698ZM10.3532 23.4164C9.42795 24.3375 8.48691 25.5635 7.56573 26.9788L10.9182 29.1608C11.7526 27.8787 12.5204 26.9032 13.1753 26.2512L10.3532 23.4164ZM11.8862 21.7743C11.3434 22.3042 10.7929 22.8946 10.2464 23.5315L13.2821 26.1361C13.7609 25.5781 14.2311 25.0751 14.6803 24.6367L11.8862 21.7743ZM30.0024 17.6153C27.9574 17.6572 24.4347 17.8095 21.0033 18.3426C19.2886 18.609 17.5454 18.9781 15.9979 19.4976C14.4876 20.0045 12.9737 20.7158 11.8882 21.7724L14.6783 24.6387C15.1299 24.199 15.9776 23.7237 17.2707 23.2897C18.5264 22.8682 20.0282 22.5421 21.6174 22.2952C24.7935 21.8017 28.1138 21.6549 30.0844 21.6144L30.0024 17.6153ZM46.4348 19.1655C42.3715 18.0413 36.2284 17.4852 30.0016 17.6153L30.0852 21.6144C36.1116 21.4885 41.8253 22.0405 45.3683 23.0206L46.4348 19.1655ZM51.6393 21.7714C50.403 20.5683 48.5976 19.7642 46.4352 19.1656L45.3679 23.0205C47.2929 23.5535 48.3288 24.1312 48.8497 24.6381L51.6393 21.7714ZM53.3346 23.5912C52.771 22.9315 52.2022 22.3192 51.6394 21.7714L48.8497 24.6381C49.3121 25.0881 49.7973 25.6088 50.2936 26.1897L53.3346 23.5912ZM55.9825 26.9761C55.0736 25.5859 54.147 24.3873 53.2225 23.4704L50.4058 26.3105C51.063 26.9624 51.8164 27.9137 52.6345 29.1649L55.9825 26.9761ZM54.3266 26.0705H54.3085V30.0705H54.3266V26.0705ZM59.2056 26.0705H54.3266V30.0705H59.2056V26.0705ZM62.4426 27.385C61.5727 26.5346 60.4164 26.0705 59.2056 26.0705V30.0705C59.3846 30.0705 59.5333 30.1348 59.6463 30.2452L62.4426 27.385ZM63.7997 30.618C63.8066 29.3909 63.3148 28.2378 62.4426 27.385L59.6463 30.2453C59.7569 30.3534 59.8005 30.4718 59.7998 30.5956L63.7997 30.618ZM63.7998 32.7362V30.6068H59.7998V32.7362H63.7998ZM59.8774 37.4024C62.0937 36.9878 63.7998 35.0298 63.7998 32.7362H59.7998C59.7998 33.0325 59.537 33.3967 59.1418 33.4706L59.8774 37.4024ZM58.6719 37.6253L59.8733 37.4031L59.1458 33.4698L57.9444 33.6921L58.6719 37.6253ZM60.7349 36.1793L60.1323 34.8387L56.484 36.4787L57.0866 37.8193L60.7349 36.1793ZM59.014 38.9992L59.1146 38.9889L58.7069 35.0097L58.6064 35.02L59.014 38.9992ZM61.2892 54.7631C63.5618 47.8831 62.4449 41.2982 60.6962 36.3439L56.9242 37.6753C58.4962 42.1288 59.392 47.7536 57.491 53.5085L61.2892 54.7631ZM61.3939 58.007L61.3901 54.1338L57.3901 54.1377L57.3939 58.0109L61.3939 58.007ZM57.2035 63.5967C58.6657 63.5967 59.824 62.8274 60.5199 61.6872C61.1593 60.6396 61.3935 59.3321 61.3939 58.0097L57.3939 58.0083C57.3936 58.9323 57.2183 59.4186 57.1056 59.6032C57.0592 59.6793 57.0479 59.6652 57.0995 59.6345C57.158 59.5996 57.2075 59.5967 57.2035 59.5967V63.5967ZM44.3786 32.068C40.1936 31.8545 35.8025 31.6301 31.7612 31.6301V35.6301C35.6818 35.6301 39.9671 35.8482 44.1749 36.0628L44.3786 32.068ZM44.3858 32.0683L44.379 32.068L44.1745 36.0628L44.1813 36.0631L44.3858 32.0683ZM54.387 32.4081C51.8425 32.4437 48.2452 32.2646 44.3851 32.0683L44.182 36.0631C47.9915 36.2568 51.7389 36.4456 54.4431 36.4077L54.387 32.4081ZM51.0392 32.297C51.5565 33.1964 52.0866 34.1973 52.6178 35.2853L56.2123 33.5304C55.6457 32.3699 55.0735 31.2885 54.5065 30.3027L51.0392 32.297ZM50.6417 31.6848L51.0916 32.3831L54.4541 30.2167L54.0043 29.5184L50.6417 31.6848ZM46.7141 26.7134C47.9181 27.8858 49.3615 29.6974 50.6416 31.6847L54.0043 29.5186C52.6095 27.3531 50.9816 25.2857 49.5046 23.8475L46.7141 26.7134ZM44.5416 25.8453C46.3692 26.3512 46.7745 26.772 46.7164 26.7156L49.5022 23.8452C48.8816 23.2429 47.752 22.5836 45.6087 21.9902L44.5416 25.8453ZM30.1467 24.5502C35.9007 24.4336 41.2776 24.9421 44.5418 25.8453L45.6085 21.9902C41.8153 20.9406 36.0037 20.4307 30.0656 20.5511L30.1467 24.5502ZM16.8145 26.7133C16.7992 26.7282 16.8514 26.6756 17.0309 26.576C17.2017 26.4812 17.4444 26.3676 17.7709 26.2431C18.4257 25.9934 19.3322 25.7321 20.4994 25.4909C22.8296 25.0093 26.0693 24.6344 30.1474 24.5502L30.0649 20.5511C25.8018 20.6391 22.3112 21.0319 19.6899 21.5737C18.3812 21.8441 17.2566 22.1583 16.3459 22.5055C15.4876 22.8328 14.6279 23.2594 14.0239 23.8475L16.8145 26.7133ZM12.9079 31.6523C14.1777 29.6846 15.6142 27.8841 16.8156 26.7122L14.0227 23.8487C12.5522 25.283 10.9325 27.3364 9.547 29.4833L12.9079 31.6523ZM12.6647 32.0293L12.9082 31.6518L9.54672 29.4837L9.30326 29.8612L12.6647 32.0293ZM10.9277 35.2868C11.5239 34.0695 12.1234 32.9503 12.7067 31.9613L9.26128 29.9292C8.6182 31.0196 7.97018 32.2313 7.3354 33.5275L10.9277 35.2868ZM19.1339 32.0682C15.2828 32.2644 11.7002 32.4458 9.16187 32.4074L9.10128 36.4069C11.803 36.4478 15.5412 36.2564 19.3374 36.063L19.1339 32.0682ZM19.1464 32.0676L19.134 32.0682L19.3372 36.063L19.3496 36.0624L19.1464 32.0676ZM19.1971 32.065L19.1464 32.0676L19.3496 36.0624L19.4003 36.0598L19.1971 32.065ZM31.7612 31.6301C27.7347 31.6301 23.364 31.853 19.1971 32.065L19.4003 36.0598C23.5899 35.8467 27.8552 35.6301 31.7612 35.6301V31.6301ZM58.8161 32.0185C58.481 31.3398 58.1435 30.6833 57.8028 30.0547L54.2861 31.9608C54.5987 32.5375 54.9129 33.1481 55.2295 33.7894L58.8161 32.0185ZM58.4168 30.6127L56.6596 30.9372L57.386 34.8707L59.1431 34.5462L58.4168 30.6127ZM56.78 31.0085V32.5794H60.78V31.0085H56.78ZM56.0439 33.0078L58.7794 33.0085L58.7805 29.0085L56.045 29.0078L56.0439 33.0078ZM6.8924 30.9294L5.18289 30.6122L4.45331 34.5451L6.16282 34.8623L6.8924 30.9294ZM5.74664 30.0546C5.40737 30.6797 5.06903 31.333 4.73459 32.0098L8.32063 33.7819C8.6334 33.1489 8.94832 32.5411 9.26231 31.9625L5.74664 30.0546ZM4.8181 33.0085H7.50447V29.0085H4.8181V33.0085ZM6.8181 32.5787V31.0085H2.8181V32.5787H6.8181ZM11.8948 47.9174C12.7138 47.9174 13.8768 47.8409 14.9067 47.4683C15.9132 47.1043 17.4527 46.1629 17.4527 44.1754H13.4527C13.4527 43.9975 13.5376 43.8021 13.651 43.6822C13.7221 43.6069 13.7288 43.6407 13.5461 43.7068C13.1655 43.8445 12.5494 43.9174 11.8948 43.9174V47.9174ZM7.22626 43.3044C7.22626 45.8915 9.35624 47.9174 11.8948 47.9174V43.9174C11.4857 43.9174 11.2263 43.6035 11.2263 43.3044H7.22626ZM11.8948 38.6914C9.35624 38.6914 7.22626 40.7173 7.22626 43.3044H11.2263C11.2263 43.0053 11.4857 42.6914 11.8948 42.6914V38.6914ZM17.4527 44.1754C17.4527 43.359 17.1686 42.6218 16.8535 42.053C16.5276 41.4647 16.0951 40.9229 15.6257 40.4632C14.7794 39.6346 13.4089 38.6914 11.8948 38.6914V42.6914C11.8266 42.6914 11.9053 42.6775 12.1342 42.7991C12.3451 42.9111 12.5916 43.0906 12.8271 43.3212C13.063 43.5522 13.2436 43.7912 13.3546 43.9914C13.4763 44.2111 13.4527 44.2702 13.4527 44.1754H17.4527ZM51.9697 43.3044C51.9697 43.6035 51.7102 43.9174 51.3012 43.9174V47.9174C53.8397 47.9174 55.9697 45.8915 55.9697 43.3044H51.9697ZM51.3012 42.6914C51.7102 42.6914 51.9697 43.0053 51.9697 43.3044H55.9697C55.9697 40.7173 53.8397 38.6914 51.3012 38.6914V42.6914ZM49.7432 44.1754C49.7432 44.2702 49.7196 44.2111 49.8413 43.9914C49.9523 43.7912 50.1329 43.5522 50.3688 43.3212C50.6043 43.0906 50.8508 42.9111 51.0617 42.7991C51.2907 42.6775 51.3693 42.6914 51.3012 42.6914V38.6914C49.787 38.6914 48.4165 39.6346 47.5702 40.4632C47.1008 40.9229 46.6683 41.4647 46.3424 42.053C46.0273 42.6218 45.7432 43.359 45.7432 44.1754H49.7432ZM51.3012 43.9174C50.6465 43.9174 50.0304 43.8445 49.6498 43.7068C49.4671 43.6407 49.4738 43.6069 49.5449 43.6822C49.6583 43.8021 49.7432 43.9975 49.7432 44.1754H45.7432C45.7432 46.1629 47.2827 47.1043 48.2892 47.4683C49.3191 47.8409 50.4821 47.9174 51.3012 47.9174V43.9174Z" fill="#316AD9" mask="url(#path-2-inside-1_3718_6413)"/>
</svg>
