<svg width="51" height="61" viewBox="0 0 51 61" fill="none" xmlns="http://www.w3.org/2000/svg">
<path d="M17.2602 29.6625H15.2402V27.6461C15.2402 27.5157 15.1875 27.3906 15.0937 27.2983C15 27.2061 14.8728 27.1543 14.7402 27.1543C14.6076 27.1543 14.4804 27.2061 14.3866 27.2983C14.2929 27.3906 14.2402 27.5157 14.2402 27.6461V29.6625H12.2002C12.0676 29.6625 11.9404 29.7143 11.8466 29.8065C11.7529 29.8988 11.7002 30.0239 11.7002 30.1543C11.7002 30.2847 11.7529 30.4098 11.8466 30.5021C11.9404 30.5943 12.0676 30.6461 12.2002 30.6461H14.2302V32.6428C14.2302 32.7733 14.2829 32.8983 14.3766 32.9906C14.4704 33.0828 14.5976 33.1346 14.7302 33.1346C14.8628 33.1346 14.99 33.0828 15.0837 32.9906C15.1775 32.8983 15.2302 32.7733 15.2302 32.6428V30.6461H17.2602C17.3928 30.6461 17.52 30.5943 17.6137 30.5021C17.7075 30.4098 17.7602 30.2847 17.7602 30.1543C17.7602 30.0239 17.7075 29.8988 17.6137 29.8065C17.52 29.7143 17.3928 29.6625 17.2602 29.6625Z" fill="#316AD9"/>
<path d="M38.1999 29.6621H33.1299C33.0642 29.6621 32.9992 29.6748 32.9385 29.6995C32.8779 29.7243 32.8228 29.7605 32.7763 29.8062C32.7299 29.8518 32.6931 29.906 32.6679 29.9657C32.6428 30.0254 32.6299 30.0893 32.6299 30.1539C32.6299 30.2185 32.6428 30.2825 32.6679 30.3421C32.6931 30.4018 32.7299 30.456 32.7763 30.5017C32.8228 30.5473 32.8779 30.5836 32.9385 30.6083C32.9992 30.633 33.0642 30.6457 33.1299 30.6457H38.1999C38.3325 30.6457 38.4597 30.5939 38.5534 30.5017C38.6472 30.4094 38.6999 30.2843 38.6999 30.1539C38.6999 30.0235 38.6472 29.8984 38.5534 29.8062C38.4597 29.7139 38.3325 29.6621 38.1999 29.6621Z" fill="#316AD9"/>
<path d="M33.1299 45.4004H38.1999C38.3325 45.4004 38.4597 45.4522 38.5534 45.5444C38.6472 45.6367 38.6999 45.7618 38.6999 45.8922C38.6999 46.0226 38.6472 46.1477 38.5534 46.24C38.4597 46.3322 38.3325 46.384 38.1999 46.384H33.1299C32.9973 46.384 32.8701 46.3322 32.7763 46.24C32.6826 46.1477 32.6299 46.0226 32.6299 45.8922C32.6299 45.7618 32.6826 45.6367 32.7763 45.5444C32.8701 45.4522 32.9973 45.4004 33.1299 45.4004Z" fill="#316AD9"/>
<path d="M35.6602 46.8262C35.5275 46.8262 35.4004 46.878 35.3066 46.9702C35.2128 47.0624 35.1602 47.1875 35.1602 47.318V47.4508C35.1602 47.5812 35.2128 47.7063 35.3066 47.7985C35.4004 47.8908 35.5275 47.9426 35.6602 47.9426C35.7928 47.9426 35.9199 47.8908 36.0137 47.7985C36.1075 47.7063 36.1602 47.5812 36.1602 47.4508V47.318C36.1602 47.1875 36.1075 47.0624 36.0137 46.9702C35.9199 46.878 35.7928 46.8262 35.6602 46.8262Z" fill="#316AD9"/>
<path d="M36.0139 44.8631C35.9202 44.9553 35.793 45.0071 35.6604 45.0071C35.5934 45.0072 35.5272 44.994 35.4655 44.9683C35.4039 44.9427 35.348 44.9051 35.3014 44.8579C35.2548 44.8107 35.2183 44.7547 35.194 44.6933C35.1698 44.6319 35.1584 44.5664 35.1604 44.5006V44.3678C35.1604 44.2373 35.2131 44.1123 35.3068 44.02C35.4006 43.9278 35.5278 43.876 35.6604 43.876C35.793 43.876 35.9202 43.9278 36.0139 44.02C36.1077 44.1123 36.1604 44.2373 36.1604 44.3678V44.5153C36.1604 44.6458 36.1077 44.7708 36.0139 44.8631Z" fill="#316AD9"/>
<path d="M16.8847 43.7817C16.791 43.6901 16.6643 43.6387 16.5322 43.6387C16.4001 43.6387 16.2734 43.6901 16.1797 43.7817L14.7447 45.1932L13.3097 43.7817C13.214 43.7011 13.091 43.659 12.9652 43.6638C12.8393 43.6686 12.72 43.7199 12.6309 43.8075C12.5419 43.8951 12.4897 44.0125 12.4848 44.1362C12.48 44.26 12.5228 44.381 12.6047 44.4751L14.0397 45.8866L12.5947 47.3177C12.5424 47.3618 12.4998 47.4161 12.4698 47.4771C12.4398 47.5381 12.423 47.6046 12.4203 47.6723C12.4176 47.74 12.4292 47.8076 12.4544 47.8707C12.4795 47.9338 12.5176 47.9911 12.5664 48.0391C12.6151 48.087 12.6734 48.1245 12.7375 48.1492C12.8017 48.1739 12.8704 48.1853 12.9392 48.1827C13.0081 48.1801 13.0756 48.1635 13.1377 48.134C13.1997 48.1045 13.2549 48.0627 13.2997 48.0112L14.7347 46.5997L16.1997 47.9964C16.2957 48.0538 16.4084 48.0776 16.5199 48.0642C16.6313 48.0508 16.735 48.0009 16.8141 47.9226C16.8932 47.8442 16.9431 47.7419 16.956 47.6322C16.9688 47.5225 16.9437 47.4117 16.8847 47.3177L15.4497 45.8915L16.8847 44.48C16.9316 44.4343 16.9688 44.3799 16.9941 44.32C17.0195 44.2601 17.0326 44.1958 17.0326 44.1309C17.0326 44.0659 17.0195 44.0017 16.9941 43.9417C16.9688 43.8818 16.9316 43.8274 16.8847 43.7817Z" fill="#316AD9"/>
<path fill-rule="evenodd" clip-rule="evenodd" d="M40.1152 0.59668H10.2852C7.6113 0.599284 5.04768 1.64523 3.15695 3.50496C1.26622 5.3647 0.202843 7.88629 0.200195 10.5164V50.6819C0.204166 53.3111 1.26812 55.8315 3.15871 57.6901C5.0493 59.5488 7.61216 60.5941 10.2852 60.5967H40.1152C42.7891 60.5941 45.3527 59.5481 47.2434 57.6884C49.1342 55.8287 50.1975 53.3071 50.2002 50.677V10.5164C50.1975 7.88629 49.1342 5.3647 47.2434 3.50496C45.3527 1.64523 42.7891 0.599284 40.1152 0.59668ZM41.5002 6.83789H8.9002C8.05104 6.83919 7.23712 7.1719 6.63715 7.76296C6.03718 8.35402 5.70019 9.15512 5.7002 9.99035V13.2805C5.70019 14.1157 6.03718 14.9168 6.63715 15.5079C7.23712 16.099 8.05104 16.4317 8.9002 16.433H41.5002C42.3493 16.4317 43.1633 16.099 43.7632 15.5079C44.3632 14.9168 44.7002 14.1157 44.7002 13.2805V9.99035C44.7002 9.15512 44.3632 8.35402 43.7632 7.76296C43.1633 7.1719 42.3493 6.83919 41.5002 6.83789ZM14.7402 24.2041C13.546 24.2041 12.3786 24.5523 11.3856 25.2047C10.3925 25.857 9.61837 26.7843 9.16092 27.8693C8.70347 28.9543 8.58328 30.1483 8.81553 31.3005C9.04777 32.4527 9.62203 33.5113 10.4657 34.3425C11.3095 35.1738 12.3847 35.7404 13.5557 35.9707C14.7267 36.2011 15.9408 36.0848 17.0447 35.6367C18.1485 35.1885 19.0925 34.4286 19.7574 33.4529C20.4223 32.4772 20.7782 31.3295 20.7802 30.1549C20.7808 29.3741 20.6251 28.6008 20.322 27.8791C20.0188 27.1575 19.5741 26.5017 19.0132 25.9491C18.4523 25.3965 17.7863 24.958 17.0531 24.6586C16.32 24.3592 15.534 24.2047 14.7402 24.2041ZM35.6601 24.2041C34.4659 24.2041 33.2986 24.5523 32.3055 25.2047C31.3125 25.857 30.5383 26.7843 30.0808 27.8693C29.6234 28.9543 29.5032 30.1483 29.7354 31.3005C29.9677 32.4527 30.542 33.5113 31.3857 34.3425C32.2294 35.1738 33.3047 35.7404 34.4756 35.9707C35.6466 36.2011 36.8608 36.0848 37.9646 35.6367C39.0684 35.1885 40.0124 34.4286 40.6773 33.4529C41.3422 32.4772 41.6981 31.3295 41.7001 30.1549C41.7001 28.5784 41.0641 27.0662 39.9316 25.9505C38.7992 24.8348 37.2629 24.2067 35.6601 24.2041ZM32.3055 40.941C33.2986 40.2886 34.4659 39.9404 35.6601 39.9404C37.2629 39.943 38.7992 40.5711 39.9316 41.6869C41.0641 42.8026 41.7001 44.3147 41.7001 45.8913C41.6981 47.0658 41.3422 48.2135 40.6773 49.1892C40.0124 50.1649 39.0684 50.9248 37.9646 51.373C36.8608 51.8211 35.6466 51.9374 34.4756 51.707C33.3047 51.4767 32.2294 50.9101 31.3857 50.0788C30.542 49.2476 29.9677 48.189 29.7354 47.0368C29.5032 45.8847 29.6234 44.6906 30.0808 43.6056C30.5383 42.5206 31.3125 41.5934 32.3055 40.941ZM14.7402 39.9404C13.546 39.9404 12.3786 40.2886 11.3856 40.941C10.3925 41.5934 9.61837 42.5206 9.16092 43.6056C8.70347 44.6906 8.58328 45.8847 8.81553 47.0368C9.04777 48.189 9.62203 49.2476 10.4657 50.0788C11.3095 50.9101 12.3847 51.4767 13.5557 51.707C14.7267 51.9374 15.9408 51.8211 17.0447 51.373C18.1485 50.9248 19.0925 50.1649 19.7574 49.1892C20.4223 48.2135 20.7782 47.0658 20.7802 45.8913C20.7808 45.1104 20.6251 44.3371 20.322 43.6155C20.0188 42.8938 19.5741 42.238 19.0132 41.6854C18.4523 41.1328 17.7863 40.6943 17.0531 40.3949C16.32 40.0955 15.534 39.9411 14.7402 39.9404Z" fill="#316AD9"/>
</svg>
