<svg width="60" height="61" viewBox="0 0 60 61" fill="none" xmlns="http://www.w3.org/2000/svg">
<g id="Group 3415">
<g id="Group">
<path id="Exclude" fill-rule="evenodd" clip-rule="evenodd" d="M30 0.59668C13.4667 0.59668 0 14.0633 0 30.5967C0 47.13 13.4667 60.5967 30 60.5967C46.5333 60.5967 60 47.13 60 30.5967C60 14.0633 46.5333 0.59668 30 0.59668ZM29.9999 4.73047C19.5332 4.73047 10.0665 10.8638 6.3332 20.0638C5.79987 21.3971 5.5332 22.9305 5.5332 24.2638C5.5332 27.2638 7.1332 27.9305 8.46654 27.9305C9.99987 27.9305 12.0665 27.0638 14.6665 25.9305L15.0496 25.7707C19.008 24.1188 24.2518 21.9305 29.9332 21.9305C35.7999 21.9305 41.2665 24.1971 45.1999 25.9305C47.7999 27.0638 49.8665 27.9305 51.3999 27.9305C52.7332 27.9305 54.3332 27.2638 54.3332 24.2638C54.3332 23.4638 54.2665 21.9305 53.6665 20.3971C50.2665 10.9971 40.6665 4.73047 29.9999 4.73047ZM6.66667 31.7296C7.46667 30.9296 8.8 30.4629 10.5333 30.4629C13.8667 30.4629 19 32.1962 22.2 35.4629C27.2667 40.6629 28.1333 50.0629 25.0667 53.2629C24.2667 54.1296 23.2 54.5296 21.9333 54.5296C20.8 54.5296 19.4667 54.1962 18 53.4629C17 52.9962 16 52.3296 14.9333 51.5296L14.8 51.3962C14.7667 51.3629 14.7167 51.3296 14.6667 51.2962C14.6167 51.2629 14.5667 51.2296 14.5333 51.1962L14.2 50.9296C14.1667 50.8962 14.1167 50.8629 14.0667 50.8296L14.0667 50.8296C14.0167 50.7962 13.9667 50.7629 13.9333 50.7296C11.6 48.7962 9.6 46.5296 8 43.9962C6.93333 42.3962 6.2 40.8629 5.73333 39.3962C5.695 39.3579 5.6787 39.3416 5.67178 39.322C5.66667 39.3075 5.66667 39.2912 5.66667 39.2629C5.6 39.1962 5.6 39.1296 5.6 39.0629C4.66666 35.9962 5.06667 33.3962 6.66667 31.7296ZM53.3334 31.7296C52.5334 30.9296 51.2 30.4629 49.4667 30.4629C46.1334 30.4629 41 32.1962 37.8 35.3962C32.7334 40.5962 31.8667 49.9296 34.9334 53.1962C35.7334 54.0629 36.8 54.4629 38.0667 54.4629C39.6 54.4629 41.4667 53.8629 43.4 52.6629C43.4667 52.6296 43.5167 52.5962 43.5667 52.5629C43.6167 52.5296 43.6667 52.4962 43.7334 52.4629L43.8667 52.3962C43.9 52.3962 43.9167 52.3796 43.9334 52.3629C43.95 52.3462 43.9667 52.3296 44 52.3296C44.2 52.1962 44.3834 52.0629 44.5667 51.9295C44.7501 51.7962 44.9334 51.6629 45.1334 51.5296C48.2 49.2629 50.8 46.3962 52.6667 43.1296C55.4 38.3296 55.6667 34.1296 53.3334 31.7296ZM30.1997 25.5967C33.1997 25.5967 35.6664 28.0633 35.6664 31.0633C35.6664 34.0633 33.1997 36.53 30.1997 36.53C27.1997 36.53 24.733 34.0633 24.733 31.0633C24.733 28.0633 27.1997 25.5967 30.1997 25.5967Z" fill="#316AD9"/>
</g>
</g>
</svg>
