<svg width="86" height="61" viewBox="0 0 86 61" fill="none" xmlns="http://www.w3.org/2000/svg">
<path d="M71.704 42.2778V42.8599V44.6964C71.704 45.9375 71.927 46.8663 72.2856 47.4668C72.6305 48.0443 73.0932 48.3155 73.6639 48.3155H79.9345C80.5056 48.3155 80.9684 48.0441 81.3135 47.4662C81.6722 46.8654 81.8952 45.9361 81.8953 44.6944C81.8953 44.6942 81.8953 44.6941 81.8953 44.6939L81.891 40.2467L81.8909 40.1674L81.9154 40.092C82.5543 38.1226 82.9298 36.1701 83.1018 34.2635L83.1048 34.2299L83.1123 34.1971C83.1312 34.1144 83.1414 34.0267 83.1414 33.9367C83.1414 33.911 83.1407 33.8917 83.1395 33.8756L83.1366 33.8381L83.1393 33.8005C83.5411 28.3146 82.2734 23.2249 80.704 19.2174L80.4836 18.6547L81.0777 18.5436L82.4282 18.2912C82.4282 18.2912 82.4283 18.2912 82.4283 18.2912C83.6642 18.0576 84.6009 16.9288 84.6009 15.6814V13.2392V13.2359C84.6051 12.596 84.3576 11.9935 83.8999 11.5358C83.4412 11.0772 82.8332 10.8256 82.1845 10.8256H76.6976H76.6976H76.6976H76.6975H76.6975H76.6974H76.6974H76.6974H76.6973H76.6973H76.6973H76.6972H76.6972H76.6972H76.6971H76.6971H76.6971H76.697H76.697H76.697H76.6969H76.6969H76.6969H76.6968H76.6968H76.6967H76.6967H76.6967H76.6966H76.6966H76.6966H76.6965H76.6965H76.6965H76.6964H76.6964H76.6964H76.6963H76.6963H76.6963H76.6962H76.6962H76.6962H76.6961H76.6961H76.6961H76.696H76.696H76.6959H76.6959H76.6959H76.6958H76.6958H76.6958H76.6957H76.6957H76.6957H76.6956H76.6956H76.6956H76.6955H76.6955H76.6955H76.6954H76.6954H76.6954H76.6953H76.6953H76.6952H76.6952H76.6952H76.6951H76.6951H76.6951H76.695H76.695H76.695H76.6949H76.6949H76.6949H76.6948H76.6948H76.6948H76.6947H76.6947H76.6947H76.6946H76.6946H76.6945H76.6945H76.6945H76.6944H76.6944H76.6944H76.6943H76.6943H76.6943H76.6942H76.6942H76.6942H76.6941H76.6941H76.6941H76.694H76.694H76.694H76.6939H76.6939H76.6938H76.6938H76.6938H76.6937H76.6937H76.6937H76.6936H76.6936H76.6936H76.6935H76.6935H76.6935H76.6934H76.6934H76.6934H76.6933H76.6933H76.6932H76.6932H76.6932H76.6931H76.6931H76.6931H76.693H76.693H76.693H76.6929H76.6929H76.6929H76.6928H76.6928H76.6928H76.6927H76.6927H76.6926H76.6926H76.6926H76.6925H76.6925H76.6925H76.6924H76.6924H76.6924H76.6923H76.6923H76.6923H76.6922H76.6922H76.6922H76.6921H76.6921H76.6921H76.692H76.692H76.6919H76.6919H76.6919H76.6918H76.6918H76.6918H76.6917H76.6917H76.6917H76.6916H76.6916H76.6916H76.6915H76.6915H76.6915H76.6914H76.6914H76.6913H76.6913H76.6913H76.6912H76.6912H76.6912H76.6911H76.6911H76.6911H76.691H76.691H76.691H76.6909H76.6909H76.6908H76.6908H76.6908H76.6907H76.6907H76.6907H76.6906H76.6906H76.6906H76.6905H76.6905H76.6905H76.6904H76.6904H76.6903H76.6903H76.6903H76.6902H76.6902H76.6902H76.6901H76.6901H76.6901H76.69H76.69H76.69H76.6899H76.6899H76.6898H76.6898H76.6898H76.6897H76.6897H76.6897H76.6896H76.6896H76.6896H76.6895H76.6895H76.6895H76.6894H76.6894H76.6893H76.6893H76.6893H76.6892H76.6892H76.6892H76.6891H76.6891H76.6891H76.689H76.689H76.6889H76.6889H76.6889H76.6888H76.6888H76.6888H76.6887H76.6887H76.6887H76.6886H76.6886H76.6886H76.6885H76.6885H76.6884H76.6884H76.6884H76.6883H76.6883H76.6883H76.6882H76.6882H76.6882H76.6881H76.6881H76.688H76.688H76.688H76.6879H76.6879H76.6879H76.6878H76.6878H76.6878H76.6877H76.6877H76.6876H76.6876H76.6876H76.6875H76.6875H76.6875H76.6874H76.6874H76.6874H76.6873H76.6873H76.6872H76.6872H76.6872H76.6871H76.6871H76.6871H76.687H76.687H76.687H76.6869H76.6869H76.6868H76.6868H76.6868H76.6867H76.6867H76.6867H76.6866H76.6866H76.6866H76.6865H76.6865H76.6864H76.6864H76.6864H76.6863H76.6863H76.6863H76.6862H76.6862H76.6861H76.6861H76.6861H76.686H76.686H76.686H76.6859H76.6859H76.6859H76.6858H76.6858H76.6857H76.6857H76.6857H76.6856H76.6856H76.6856H76.6855H76.6855H76.6854H76.6854H76.6854H76.6853H76.6853H76.6853H76.6852H76.6852H76.6852H76.6851H76.6851H76.685H76.685H76.685H76.6849H76.6849H76.6849H76.6848H76.6848H76.6847H76.6847H76.6847H76.6846H76.6846H76.6846H76.6845H76.6845H76.6844H76.6844H76.6844H76.6843H76.6843H76.6843H76.6842H76.6842H76.6841H76.6841H76.6841H76.684H76.684H76.684H76.6839H76.6839H76.6838H76.6838H76.6838H76.6837H76.6837H76.6837H76.6836H76.6836H76.6835H76.6835H76.6835H76.6834H76.6834H76.6833H76.6833H76.6833H76.6832H76.6832H76.6832H76.6831H76.6831H76.683H76.683H76.683H76.6829H76.6829H76.6829H76.6828H76.6828H76.6827H76.6827H76.6827H76.6826H76.6826H76.6825H76.6825H76.6825H76.6824H76.6824H76.6824H76.6823H76.6823H76.6822H76.6822H76.6822H76.6821H76.6821H76.6821H76.682H76.682H76.6819H76.6819H76.6819H76.6818H76.6818H76.6817H76.6817H76.6817H76.6816H76.6816H76.6816H76.6815H76.6815H76.6814H76.6814H76.6814H76.6813H76.6813H76.6812H76.6812H76.6812H76.6811H76.6811H76.681H76.681H76.681H76.6809H76.6809H76.6809H76.6808H76.6808H76.6807H76.6807H76.6807H76.6806H76.6806H76.6805H76.6805H76.6805H76.6804H76.6804H76.6803H76.6803H76.6803H76.6802H76.6802H76.6801H76.6801H76.6801H76.68H76.68H76.68H76.6799H76.6799H76.6798H76.6798H76.6798H76.6797H76.6797H76.6796H76.6796H76.6796H76.6795H76.6795H76.6794H76.6794H76.6794H76.6793H76.6793H76.6792H76.6792H76.6792H76.6791H76.6791H76.679H76.679H76.679H76.6789H76.4052L76.2577 10.5951C75.2998 9.09773 74.3776 7.89546 73.5223 7.02922L73.5079 7.01462L73.4947 6.99888C72.9052 6.2947 72.3223 5.65422 71.7579 5.09411L71.7576 5.09385C70.8582 4.19993 69.3568 3.43598 67.0899 2.79504C62.8825 1.60581 56.2647 0.973582 49.41 1.11665L71.704 42.2778ZM71.704 42.2778L71.1285 42.3657M71.704 42.2778L71.1285 42.3657M69.4941 24.4315C69.9684 24.6485 70.5133 24.5324 70.8586 24.1797L71.7159 23.304V24.5294V29.6783C71.7159 30.33 72.2488 30.8644 72.9134 30.8644H76.2148C76.276 30.8644 76.3328 30.8606 76.3847 30.8529L76.3862 30.8527C77.2231 30.7314 77.8833 30.2788 78.2703 29.5784L78.2703 29.5783C78.8047 28.6114 78.7441 27.1833 78.4222 25.748C78.1068 24.3417 77.5711 23.0581 77.3071 22.4739L77.3069 22.4737C77.1146 22.0475 76.6886 21.772 76.2148 21.772H72.9134C72.7911 21.772 72.6733 21.7901 72.5619 21.8231L71.7695 22.0585L71.9289 21.2474C71.9558 21.1107 71.98 20.974 72.0009 20.8374L72.0681 20.3982L72.5122 20.4133C74.9853 20.4976 76.8294 20.5021 78.2345 20.4281L78.6021 20.4087L78.7298 20.754C79.9355 24.0161 80.8975 27.9883 80.8135 32.2604L80.8038 32.7506H80.3136H68.1465C67.4833 32.7506 66.9498 33.2854 66.9498 33.9376C66.9498 34.5899 67.4826 35.1245 68.1465 35.1245H80.0186H80.604L80.5125 35.7027C80.3086 36.991 79.9979 38.2944 79.5586 39.6059L79.5578 39.6082C79.5174 39.7269 79.497 39.8522 79.4969 39.9814C79.4969 39.9814 79.4969 39.9814 79.4969 39.9814C79.4969 39.9816 79.4969 39.9817 79.4969 39.9818L79.5012 44.696V44.6964C79.5012 45.0115 79.4781 45.2845 79.4483 45.5083L79.3906 45.9424H78.9527H74.6474H74.2131L74.1523 45.5124C74.1201 45.2845 74.0981 45.0102 74.0981 44.6964V40.8587C74.0981 40.5243 73.9573 40.2067 73.7084 39.9825L73.7079 39.9821C73.4588 39.7571 73.1235 39.6459 72.787 39.6764C71.9722 39.7532 71.6198 39.8362 71.3085 39.9096L71.3004 39.9115L69.4941 24.4315ZM69.4941 24.4315C68.8939 24.1559 68.6343 23.4513 68.9101 22.8581L68.9104 22.8575C69.131 22.3814 69.3118 21.88 69.4475 21.3681L69.4478 21.3668C69.6441 20.6189 69.7438 19.843 69.7438 19.063C69.7438 14.0558 65.647 9.98866 60.6171 9.98866C57.7124 9.98866 55.0431 11.3182 53.3002 13.6345M69.4941 24.4315L53.3002 13.6345M53.3002 13.6345C52.9049 14.1595 52.1532 14.2693 51.621 13.8742C51.0935 13.4817 50.987 12.7391 51.3807 12.2162L51.3808 12.2161C53.5811 9.29161 56.9451 7.61552 60.6171 7.61552C66.4744 7.61552 71.3231 11.9809 72.0451 17.6036L72.0992 18.025L72.5239 18.0396C74.248 18.0989 75.6536 18.1194 76.8074 18.1015L77.5873 18.0894L77.2507 17.3857C76.519 15.8566 75.7826 14.4556 75.0616 13.2181L75.0347 13.172L74.9987 13.1326C74.952 13.0815 74.9098 13.026 74.872 12.9658L74.8713 12.9647C73.8747 11.386 72.7817 9.87469 71.7161 8.59197L71.71 8.58464L71.7036 8.57754C71.6849 8.55673 71.6655 8.53324 71.6431 8.50501L71.6432 8.50491L71.6349 8.49497C71.0994 7.85565 70.5706 7.27295 70.063 6.76848C69.6628 6.37083 68.707 5.71906 66.4337 5.07662L66.2977 5.55778L66.4337 5.07662C62.3994 3.93661 56.0581 3.35013 49.4603 3.48832L49.4603 3.48832C44.748 3.58766 40.9328 4.03075 38.1122 4.62611C36.7024 4.92369 35.5329 5.26101 34.6204 5.61641C33.7207 5.9668 33.0247 6.35206 32.6059 6.76858L32.5968 6.77756L32.5883 6.78698L31.0303 8.50256C30.3172 9.21893 29.5992 10.135 28.8392 11.2736C28.4735 11.8199 27.7285 11.9695 27.1771 11.6069C26.6268 11.2444 26.4779 10.5086 26.8411 9.96372C27.7062 8.66865 28.5281 7.63371 29.2834 6.87976L29.292 6.8712L29.3002 6.86223L30.8607 5.14588C31.6616 4.3531 32.9142 3.69392 34.4637 3.1572C36.0104 2.62149 37.8089 2.22251 39.6534 1.92671C43.3418 1.33519 47.1621 1.16419 49.4098 1.11666L53.3002 13.6345ZM71.1285 42.3657C70.8419 42.4094 70.4714 42.4504 69.9357 42.4895C69.2556 42.5321 68.6973 42.042 68.6494 41.3945L68.6493 41.394M71.1285 42.3657L68.6493 41.394M68.6493 41.394C68.6005 40.7434 69.0917 40.1716 69.7538 40.1223L68.6493 41.394ZM74.11 27.9904V28.4904H74.61H75.7839H76.2255L76.28 28.0522C76.3298 27.6524 76.2576 27.083 76.1293 26.4852C75.9972 25.87 75.7926 25.1666 75.5396 24.473L75.4197 24.1443H75.0698H74.61H74.11V24.6443V27.9904ZM78.6323 13.1979V13.5729L78.1323 13.6971V13.6979V14.1979H78.3308C78.6475 14.8034 78.965 15.4351 79.2819 16.0915L79.4486 16.4365L79.825 16.3653L81.8005 15.9919L82.2076 15.915V15.5006V13.6979V13.1979H81.7076H78.6323ZM58.909 17.9532L58.9082 17.9544C58.5504 18.5057 57.8092 18.6657 57.2517 18.3077L57.2514 18.3075C56.6963 17.9517 56.5391 17.2184 56.8959 16.6694L56.8961 16.669C57.712 15.4114 59.0981 14.6608 60.6051 14.6608C63.0417 14.6608 65.0208 16.6319 65.0208 19.0478V19.0482C65.0214 19.6997 64.4877 20.2348 63.8242 20.2348C63.1598 20.2348 62.6267 19.7005 62.6267 19.0478C62.6267 17.9348 61.7181 17.034 60.606 17.034C59.919 17.034 59.2841 17.379 58.909 17.9532Z" fill="#316AD9" stroke="white"/>
<path fill-rule="evenodd" clip-rule="evenodd" d="M62.3871 60.5967H56.1165C54.5763 60.5967 53.6566 59.0567 53.6566 56.4776V54.4865C48.3525 54.9494 41.0942 55.4284 33.7833 55.4284C26.519 55.4284 19.2455 54.9427 13.9176 54.4738V56.4776C13.9176 59.0567 12.9962 60.5967 11.4534 60.5967H5.18537C3.6426 60.5967 2.72118 59.0567 2.72118 56.4776V52.0299C0.371741 44.7785 1.50396 37.767 3.37399 32.3639L3.28899 32.3546L3.79475 31.204C3.83363 31.102 3.87251 31.0015 3.91139 30.9009L3.91149 30.9007L3.9503 30.8002L2.68293 30.5612C1.2107 30.2807 0.100586 28.9477 0.100586 27.46V25.0077C0.100586 23.4069 1.41131 22.1042 3.02124 22.1042H8.46728C9.45414 20.5558 10.4147 19.292 11.3029 18.389C11.8792 17.703 12.453 17.0754 13.0106 16.5195C16.4668 13.0839 27.3384 12.4917 31.8529 12.3971C38.7405 12.2501 45.4055 12.8862 49.6811 14.0942C51.9787 14.7438 53.5758 15.5371 54.5636 16.5187C55.1399 17.0914 55.7323 17.7419 56.3282 18.454C57.2173 19.3545 58.1617 20.5887 59.1324 22.1051H59.1528H64.6379C65.4191 22.1051 66.1526 22.4084 66.7052 22.96C67.2577 23.5116 67.5586 24.2415 67.5543 25.017V27.4617C67.5543 28.9485 66.4476 30.2815 64.9796 30.562L63.629 30.8171L64.3064 32.3563L64.1934 32.3681C66.06 37.7687 67.1914 44.7777 64.8453 52.0308L64.8496 56.4776C64.8487 59.0567 63.929 60.5967 62.3871 60.5967ZM47.8544 28.9878L47.8546 28.9878L47.862 28.9882C52.1733 29.2121 56.3018 29.4233 59.2522 29.381C58.6351 28.0902 58.0155 26.8949 57.406 25.8128L56.9002 25.0111C55.3966 22.6272 53.6702 20.4004 52.1631 18.9018C51.8469 18.5883 50.9841 17.9683 48.752 17.3373C44.785 16.2163 38.4957 15.6317 31.9234 15.7677C22.5461 15.9654 16.7906 17.5307 15.4119 18.9018C13.9099 20.3978 12.192 22.6103 10.6994 24.9722L10.4257 25.4056C9.73635 26.5992 9.03509 27.9373 8.34318 29.3802C11.2887 29.4258 15.4039 29.2117 19.7025 28.9881H19.7025L19.7164 28.9874L19.7733 28.9844L19.7735 28.9844C24.4707 28.7403 29.3251 28.4881 33.7841 28.4881C38.2596 28.4881 43.1367 28.7421 47.8544 28.9878ZM61.084 25.4774C61.4512 26.1692 61.8176 26.8966 62.1839 27.6543L64.1594 27.2818V25.4782L61.084 25.4774ZM3.49384 27.2809L5.41573 27.645C5.77953 26.8932 6.14674 26.1692 6.51394 25.4782H3.49384V27.2809ZM14.1006 40.5969C14.1006 42.2538 11.7574 42.5969 10.1006 42.5969C8.44373 42.5969 7.10059 41.2538 7.10059 39.5969C7.10059 37.9401 8.44373 36.5969 10.1006 36.5969C11.7574 36.5969 14.1006 38.9401 14.1006 40.5969ZM57.1006 42.5969C58.7574 42.5969 60.1006 41.2538 60.1006 39.5969C60.1006 37.9401 58.7574 36.5969 57.1006 36.5969C55.4437 36.5969 53.1006 38.9401 53.1006 40.5969C53.1006 42.2538 55.4437 42.5969 57.1006 42.5969Z" fill="#316AD9"/>
</svg>
