<svg width="44" height="39" viewBox="0 0 44 39" fill="none" xmlns="http://www.w3.org/2000/svg">
<g id="Group 3419">
<path id="Vector" d="M39.4059 15.3994V36.2452C39.4256 36.582 39.3114 36.913 39.0884 37.1661C38.8653 37.4193 38.5514 37.5742 38.2148 37.5972H5.79069C5.45464 37.5727 5.14161 37.4173 4.91887 37.1645C4.69612 36.9117 4.58146 36.5816 4.59951 36.2452V15.3994" stroke="#316AD9" stroke-width="2" stroke-miterlimit="10"/>
<path id="Vector_2" d="M39.4062 15.3994H41.2882C41.5711 15.428 41.8539 15.3451 42.0765 15.1682C42.299 14.9912 42.4436 14.7344 42.4794 14.4524V7.11466C42.4436 6.83265 42.299 6.57579 42.0765 6.39887C41.8539 6.22196 41.5711 6.139 41.2882 6.16767H2.71169C2.42916 6.14053 2.14711 6.22407 1.92493 6.40071C1.70276 6.57734 1.55777 6.83329 1.52051 7.11466V14.4285C1.55777 14.7099 1.70276 14.9659 1.92493 15.1425C2.14711 15.3191 2.42916 15.4027 2.71169 15.3755H4.59377" stroke="#316AD9" stroke-width="2" stroke-miterlimit="10"/>
<path id="Vector_3" d="M4.59375 15.3755H39.4121" stroke="#316AD9" stroke-width="2" stroke-miterlimit="10"/>
<path id="Vector (Stroke)" fill-rule="evenodd" clip-rule="evenodd" d="M19.5244 6.16797V15.3758H18.5244V6.16797H19.5244Z" fill="#316AD9"/>
<path id="Vector_4" d="M24.9805 15.3758V6.16797" stroke="#316AD9" stroke-width="2" stroke-miterlimit="10"/>
<path id="Vector_5" d="M26.5527 4.89319C25.7903 5.65555 22.5205 6.15585 22.5205 6.15585C22.5205 6.15585 23.0208 2.892 23.7891 2.12369C24.1605 1.77706 24.652 1.58822 25.1599 1.59697C25.6678 1.60572 26.1525 1.81139 26.5117 2.1706C26.8709 2.52982 27.0766 3.01449 27.0853 3.52242C27.0941 4.03034 26.9052 4.52182 26.5586 4.89319H26.5527Z" stroke="#316AD9" stroke-width="2" stroke-linecap="round" stroke-linejoin="round"/>
<path id="Vector_6" d="M17.4529 4.89319C18.2152 5.65555 21.485 6.15585 21.485 6.15585C21.485 6.15585 20.9847 2.892 20.2164 2.12369C19.8451 1.77706 19.3536 1.58822 18.8457 1.59697C18.3377 1.60572 17.8531 1.81139 17.4938 2.1706C17.1346 2.52982 16.929 3.01449 16.9202 3.52242C16.9115 4.03034 17.1003 4.52182 17.4469 4.89319H17.4529Z" stroke="#316AD9" stroke-width="2" stroke-linecap="round" stroke-linejoin="round"/>
<path id="Vector_7" d="M17.5833 25.8639C18.8563 25.8639 19.8882 24.4933 19.8882 22.8026C19.8882 21.1118 18.8563 19.7412 17.5833 19.7412C16.3103 19.7412 15.2783 21.1118 15.2783 22.8026C15.2783 24.4933 16.3103 25.8639 17.5833 25.8639Z" stroke="#316AD9" stroke-width="2" stroke-miterlimit="10" stroke-linecap="round"/>
<path id="Vector_8" d="M26.4221 31.3375C27.6951 31.3375 28.7271 29.9669 28.7271 28.2762C28.7271 26.5855 27.6951 25.2148 26.4221 25.2148C25.1491 25.2148 24.1172 26.5855 24.1172 28.2762C24.1172 29.9669 25.1491 31.3375 26.4221 31.3375Z" stroke="#316AD9" stroke-width="2" stroke-miterlimit="10" stroke-linecap="round"/>
<path id="Vector_9" d="M17.8281 30.8312L26.0175 20.2832" stroke="#316AD9" stroke-width="2" stroke-miterlimit="10" stroke-linecap="round"/>
</g>
</svg>
