<svg width="67" height="48" viewBox="0 0 67 48" fill="none" xmlns="http://www.w3.org/2000/svg">
<path id="Vector" d="M61.8675 48H55.6391C54.1092 48 53.1957 46.467 53.1957 43.8998V41.9178C47.9273 42.3786 40.7179 42.8554 33.4561 42.8554C26.2407 42.8554 19.0161 42.3719 13.724 41.9052V43.8998C13.724 46.467 12.8088 48 11.2764 48H5.05058C3.51818 48 2.60296 46.467 2.60296 43.8998V39.4724C0.26933 32.2542 1.39393 25.2747 3.25138 19.8963L3.16695 19.887L3.66931 18.7417C3.72081 18.6063 3.77231 18.4735 3.82382 18.3398L2.56497 18.1018C1.10265 17.8226 0 16.4957 0 15.0149V12.5737C0 10.9802 1.3019 9.68355 2.901 9.68355H8.31041C9.29063 8.14219 10.2447 6.8842 11.127 5.98528C11.6994 5.30247 12.2693 4.67768 12.8232 4.12437C16.2561 0.704428 27.0546 0.114956 31.5387 0.0207752C38.38 -0.125541 45.0001 0.507655 49.2469 1.71014C51.5291 2.35679 53.1155 3.1464 54.0966 4.12352C54.669 4.69365 55.2575 5.34115 55.8493 6.05003C56.7325 6.94643 57.6705 8.17498 58.6347 9.6844C58.6414 9.6844 58.649 9.6844 58.6549 9.6844H64.1032C64.8791 9.6844 65.6077 9.98628 66.1565 10.5354C66.7053 11.0845 67.0042 11.811 67 12.583V15.0165C67 16.4965 65.9007 17.8235 64.4426 18.1026L63.101 18.3566L63.7739 19.8887L63.6616 19.9005C65.5157 25.2764 66.6394 32.2533 64.3092 39.4733L64.3134 43.8998C64.3126 46.467 63.399 48 61.8675 48ZM56.6168 44.6423H60.8932C60.9202 44.4388 60.9413 44.189 60.9413 43.8998L60.9371 38.9334L61.024 38.6744C63.2935 31.8842 62.0482 25.231 60.2051 20.2385C57.0913 20.4017 52.4882 20.1612 47.2645 19.8887C42.6192 19.6474 37.816 19.396 33.4569 19.396C29.0987 19.396 24.3005 19.6474 19.6594 19.8896C14.4265 20.1629 9.81663 20.4042 6.70709 20.2377C4.86146 25.2326 3.61528 31.8867 5.88812 38.6736L5.97508 38.9326V43.8998C5.97508 44.189 5.99535 44.4388 6.02321 44.6423H10.3055C10.3333 44.4388 10.3536 44.189 10.3536 43.8998V38.2178L12.1992 38.3927C17.5023 38.8973 25.4944 39.4968 33.4569 39.4968C41.4769 39.4968 49.447 38.904 54.723 38.4062L56.5678 38.2329V43.8989C56.5678 44.189 56.5881 44.4388 56.6168 44.6423ZM33.4569 16.0382C37.9047 16.0382 42.7518 16.2913 47.4401 16.5361C51.7224 16.7589 55.8232 16.9691 58.7537 16.9271C58.1408 15.6422 57.5253 14.4523 56.9199 13.3751L56.4175 12.5771C54.924 10.2041 53.2092 7.98746 51.7123 6.49571C51.3982 6.18373 50.5412 5.56651 48.3241 4.93836C44.3838 3.82248 38.1368 3.24058 31.6088 3.37596C22.2945 3.57273 16.5778 5.13092 15.2083 6.49571C13.7164 7.98494 12.0101 10.1873 10.5275 12.5384L10.2557 12.9698C9.57094 14.158 8.8744 15.49 8.18714 16.9262C11.116 16.9716 15.2091 16.758 19.4838 16.5352C24.1671 16.2913 29.01 16.0382 33.4569 16.0382ZM60.5732 13.0413C60.9379 13.73 61.3018 14.454 61.6657 15.2083L63.6278 14.8374V13.0421H60.5732V13.0413ZM3.37043 14.8366L5.27938 15.199C5.64074 14.4506 6.00548 13.73 6.37021 13.0421H3.37043V14.8366ZM55.0321 32.7133C51.6726 32.7133 48.9396 29.993 48.9396 26.6462C48.9396 23.3019 51.6726 20.5816 55.0321 20.5816C58.3898 20.5816 61.1203 23.3019 61.1203 26.6462C61.1203 29.993 58.389 32.7133 55.0321 32.7133ZM55.0321 23.9402C53.5326 23.9402 52.3109 25.1544 52.3109 26.647C52.3109 28.1405 53.5317 29.3564 55.0321 29.3564C56.5298 29.3564 57.749 28.1413 57.749 26.647C57.7482 25.1544 56.5298 23.9402 55.0321 23.9402ZM11.8852 32.7133C8.52655 32.7133 5.7944 29.993 5.7944 26.6462C5.7944 23.3019 8.52655 20.5816 11.8852 20.5816C15.2438 20.5816 17.9759 23.3019 17.9759 26.6462C17.9759 29.993 15.2438 32.7133 11.8852 32.7133ZM11.8852 23.9402C10.3857 23.9402 9.16652 25.1544 9.16652 26.647C9.16652 28.1405 10.3857 29.3564 11.8852 29.3564C13.3846 29.3564 14.6046 28.1413 14.6046 26.647C14.6046 25.1544 13.3855 23.9402 11.8852 23.9402Z" fill="#316AD9"/>
</svg>
