<svg width="58" height="66" viewBox="0 0 58 66" fill="none" xmlns="http://www.w3.org/2000/svg">
<path id="Vector" d="M55.9894 16.9879H53.2753C55.2237 15.3818 56.467 12.9574 56.467 10.2494C56.467 5.4249 52.5219 1.5 47.6727 1.5C45.3505 1.5 43.1602 2.39259 41.5032 4.01504L33.8842 11.5075C33.0886 9.6026 31.1993 8.25923 28.9999 8.25923C26.8007 8.25923 24.9113 9.6026 24.1158 11.5076L16.4952 4.0137C14.8398 2.39272 12.6493 1.5 10.3272 1.5C5.47801 1.5 1.53287 5.4249 1.53287 10.2492C1.53287 12.9573 2.77619 15.3817 4.72458 16.9878H2.0105C1.45244 16.9878 1 17.4379 1 17.9931V31.3974C1 31.9526 1.45244 32.4027 2.0105 32.4027H3.69467V63.4947C3.69467 64.0499 4.14711 64.5 4.70517 64.5H53.2948C53.853 64.5 54.3053 64.0499 54.3053 63.4947V32.4028H55.9895C56.5477 32.4028 57 31.9527 57 31.3975V17.9933C56.9999 17.4381 56.5476 16.9879 55.9894 16.9879ZM42.9224 5.44648C44.1973 4.19814 45.8842 3.51064 47.6727 3.51064C51.4076 3.51064 54.446 6.53357 54.446 10.2492C54.446 13.9649 51.4075 16.9878 47.6727 16.9878H34.2867V13.9387L42.9224 5.44648ZM23.2738 18.9986H27.9894V42.1209C27.9894 42.6761 28.4419 43.1262 28.9999 43.1262C29.558 43.1262 30.0104 42.6761 30.0104 42.1209V18.9986H34.7261V48.3878L29.5199 45.28C29.1999 45.089 28.8 45.089 28.48 45.28L23.2738 48.3878V18.9986ZM28.9999 10.2699C30.8006 10.2699 32.2657 11.7274 32.2657 13.5189V16.9879H25.7341V13.5189C25.7341 11.7273 27.1992 10.2699 28.9999 10.2699ZM3.55388 10.2492C3.55388 6.53357 6.59239 3.51064 10.3272 3.51064C12.1155 3.51064 13.8025 4.19814 15.076 5.44501L23.7131 13.9386V16.9878H10.3272C6.59239 16.9879 3.55388 13.965 3.55388 10.2492ZM54.9789 30.3922H39.7786C39.2204 30.3922 38.7681 30.8423 38.7681 31.3975C38.7681 31.9527 39.2204 32.4028 39.7786 32.4028H52.2842V62.4894H5.71568V32.4028H18.2212C18.7793 32.4028 19.2317 31.9527 19.2317 31.3975C19.2317 30.8423 18.7793 30.3922 18.2212 30.3922H3.021V18.9986H21.2528V50.1635C21.2528 50.5257 21.4487 50.8598 21.7654 51.0382C22.0823 51.2168 22.471 51.2118 22.7832 51.0255L28.9999 47.3147L35.2168 51.0256C35.3767 51.1211 35.5565 51.1689 35.7366 51.1689C35.9081 51.1689 36.0799 51.1255 36.2345 51.0384C36.5513 50.86 36.7471 50.5258 36.7471 50.1636V18.9987H54.9789V30.3922Z" fill="#316AD9" stroke="#316AD9" stroke-width="2"/>
</svg>
