<svg width="64" height="64" viewBox="0 0 64 64" fill="none" xmlns="http://www.w3.org/2000/svg">
<g id="road-map 1" clip-path="url(#clip0_4129_26925)">
<path id="Vector" d="M56.0649 63.7212C55.7827 63.7212 55.5117 63.6089 55.313 63.4067C54.6318 62.7192 48.6602 56.5649 48.6602 52.5078C48.6602 48.1909 51.9819 44.6797 56.0649 44.6797C60.1484 44.6797 63.4702 48.1909 63.4702 52.5078C63.4702 56.5649 57.4985 62.7183 56.8174 63.4067C56.6182 63.6089 56.3477 63.7212 56.0649 63.7212ZM56.0649 46.7954C53.1484 46.7954 50.7759 49.3584 50.7759 52.5078C50.7759 54.6689 53.7622 58.6318 56.064 61.1274C58.0254 58.9912 61.3545 54.873 61.3545 52.5078C61.3545 49.3584 58.9814 46.7954 56.0649 46.7954Z" fill="#316AD9" stroke="#316AD9"/>
<path id="Vector_2" d="M58.1797 55.2588H53.9482C53.3647 55.2588 52.8906 54.7861 52.8906 54.2007V49.9697C52.8906 49.3843 53.3647 48.9116 53.9482 48.9116H58.1797C58.7637 48.9116 59.2378 49.3843 59.2378 49.9697V54.2007C59.2378 54.7861 58.7637 55.2588 58.1797 55.2588ZM55.0063 53.1431H57.1221V51.0273H55.0063V53.1431Z" fill="#316AD9" stroke="#316AD9"/>
<path id="Vector_3" d="M7.40479 19.2915C7.12256 19.2915 6.85156 19.1792 6.65283 18.9771C5.97168 18.2896 0 12.1348 0 8.07812C0 3.76123 3.32178 0.25 7.40479 0.25C11.4883 0.25 14.8101 3.76123 14.8101 8.07812C14.8101 12.1348 8.83838 18.2886 8.15723 18.9771C7.95801 19.1792 7.6875 19.2915 7.40479 19.2915ZM7.40479 2.36572C4.48828 2.36572 2.11572 4.92871 2.11572 8.07812C2.11572 10.2393 5.10205 14.2021 7.40381 16.6973C9.36523 14.5615 12.6943 10.4434 12.6943 8.07812C12.6943 4.92871 10.3213 2.36572 7.40479 2.36572Z" fill="#316AD9" stroke="#316AD9"/>
<path id="Vector_4" d="M9.51953 10.8291H5.28809C4.70459 10.8291 4.23047 10.356 4.23047 9.771V5.53955C4.23047 4.95459 4.70459 4.48193 5.28809 4.48193H9.51953C10.1035 4.48193 10.5776 4.95459 10.5776 5.53955V9.771C10.5776 10.356 10.1035 10.8291 9.51953 10.8291ZM6.34619 8.71338H8.46191V6.59766H6.34619V8.71338Z" fill="#316AD9" stroke="#316AD9"/>
<path id="Vector_5" d="M49.7192 63.7217H13.2231C10.0146 63.7217 7.40479 61.1108 7.40479 57.9033C7.40479 54.6958 10.0146 52.085 13.2231 52.085H38.6113C40.6533 52.085 42.314 50.4243 42.314 48.3828C42.314 46.3413 40.6533 44.6802 38.6113 44.6802H5.81836C2.60986 44.6802 0 42.0693 0 38.8618C0 35.6548 2.60986 33.0439 5.81836 33.0439H58.1816C60.2236 33.0439 61.8843 31.3828 61.8843 29.3413C61.8843 27.2998 60.2236 25.6392 58.1816 25.6392H19.5703C16.3618 25.6392 13.752 23.0283 13.752 19.8208C13.752 16.6133 16.3618 14.0024 19.5703 14.0024H48.1323C50.1738 14.0024 51.8345 12.3418 51.8345 10.3003C51.8345 8.2583 50.1738 6.59766 48.1323 6.59766H21.1572C20.5732 6.59766 20.0991 6.12451 20.0991 5.53955C20.0991 4.95459 20.5732 4.48193 21.1572 4.48193H48.1323C51.3408 4.48193 53.9502 7.09277 53.9502 10.3003C53.9502 13.5073 51.3408 16.1182 48.1323 16.1182H19.5703C17.5288 16.1182 15.8677 17.7793 15.8677 19.8208C15.8677 21.8623 17.5288 23.5234 19.5703 23.5234H58.1816C61.3901 23.5234 64 26.1338 64 29.3413C64 32.5488 61.3901 35.1597 58.1816 35.1597H5.81836C3.77637 35.1597 2.11572 36.8203 2.11572 38.8618C2.11572 40.9038 3.77637 42.5645 5.81836 42.5645H38.6113C41.8198 42.5645 44.4297 45.1753 44.4297 48.3828C44.4297 51.5903 41.8198 54.2007 38.6113 54.2007H13.2231C11.1816 54.2007 9.52051 55.8618 9.52051 57.9033C9.52051 59.9448 11.1816 61.606 13.2231 61.606H49.7192C50.3027 61.606 50.7769 62.0786 50.7769 62.6636C50.7769 63.2485 50.3027 63.7217 49.7192 63.7217Z" fill="#316AD9" stroke="#316AD9"/>
</g>
<defs>
<clipPath id="clip0_4129_26925">
<rect width="64" height="64" fill="white"/>
</clipPath>
</defs>
</svg>
