<svg width="64" height="64" viewBox="0 0 64 64" fill="none" xmlns="http://www.w3.org/2000/svg">
<g id="order (1) 1" clip-path="url(#clip0_4129_26914)">
<g id="Group">
<path id="_x38_" d="M1.00391 8.8999H62.9919V10.8984H1.00391V8.8999Z" fill="#316AD9" stroke="#316AD9"/>
<path id="_x37_" fill-rule="evenodd" clip-rule="evenodd" d="M5.95228 4.47803C6.49078 4.47803 6.91578 4.91753 6.91578 5.44153C6.91578 5.98003 6.49078 6.41953 5.95228 6.41953C5.41378 6.41953 4.98828 5.98003 4.98828 5.44153C4.98828 4.91753 5.41378 4.47803 5.95228 4.47803ZM14.3983 4.47803C14.9368 4.47803 15.3618 4.91753 15.3618 5.44153C15.3618 5.98003 14.9368 6.41953 14.3983 6.41953C13.8593 6.41953 13.4203 5.98003 13.4203 5.44153C13.4208 4.91753 13.8598 4.47803 14.3983 4.47803ZM10.1753 4.47803C10.7138 4.47803 11.1388 4.91753 11.1388 5.44153C11.1388 5.98003 10.7138 6.41953 10.1753 6.41953C9.63678 6.41953 9.19728 5.98003 9.19728 5.44153C9.19728 4.91753 9.63678 4.47803 10.1753 4.47803Z" fill="#316AD9" stroke="#316AD9"/>
<path id="_x36_" d="M56.7864 4.44922C57.3389 4.44922 57.7784 4.88872 57.7784 5.44122C57.7784 5.99372 57.3389 6.44772 56.7864 6.44772H22.7604C22.2079 6.44772 21.7539 5.99422 21.7539 5.44122C21.7539 4.88872 22.2074 4.44922 22.7604 4.44922H56.7864Z" fill="#316AD9" stroke="#316AD9"/>
<path id="_x35_" d="M41.2551 31.3621C41.2551 29.4631 42.1341 28.2441 43.2826 27.6776C43.7356 27.4651 44.2316 27.3516 44.7416 27.3516C45.2521 27.3516 45.7476 27.4651 46.2016 27.6916C47.3636 28.2581 48.2711 29.4916 48.2711 31.3621V41.0131C48.5261 41.0696 48.9936 41.1831 49.4321 41.2961C51.1481 41.6931 52.5786 42.0336 54.8606 42.8411C55.7386 43.1531 56.5756 43.8051 57.1846 44.5991C57.7791 45.3921 58.1621 46.3276 58.1621 47.2491V60.3715C58.1621 62.356 56.5186 64 54.5196 64H44.8831C43.2111 64 41.3966 62.937 40.3481 61.6475L33.2346 52.946C32.0576 51.5575 31.8171 50.0831 32.1571 48.9076C32.3126 48.3691 32.6106 47.8871 32.9931 47.5041C33.3756 47.1211 33.8721 46.8381 34.4246 46.6961C35.8271 46.3281 37.2721 46.9656 38.2926 47.9296L41.2546 50.5085V47.9296V45.0661V31.3621H41.2551ZM44.1466 29.4776C43.6506 29.7326 43.2541 30.3421 43.2541 31.3626V45.0666V47.9301V52.7201C43.2541 52.9466 43.1691 53.1881 42.9981 53.3721C42.6446 53.7831 42.0061 53.8256 41.5956 53.4711L36.9891 49.4326C36.2946 48.8801 35.2176 48.1141 34.3961 48.9221C33.6021 49.7016 34.1551 50.9486 34.7641 51.6571L41.8356 60.33C42.2331 60.8545 43.5086 62.0025 44.8826 62.0025H54.5191C55.4261 62.0025 56.1491 61.2655 56.1491 60.3725V47.2491C56.1491 46.7671 55.9371 46.2571 55.5966 45.8031C55.2136 45.3071 54.7041 44.9101 54.1931 44.7266C52.0396 43.9611 50.6366 43.6351 48.9646 43.2381C48.6816 43.1671 48.3971 43.0966 47.6891 42.9261C47.2631 42.8271 46.9096 42.5861 46.6686 42.2741C46.4136 41.9486 46.2711 41.5516 46.2711 41.1261V31.3621C46.2711 30.3701 45.8611 29.7466 45.3366 29.4916C45.1376 29.3926 44.9391 29.3496 44.7411 29.3496C44.5431 29.3496 44.3451 29.3926 44.1466 29.4776Z" fill="#316AD9" stroke="#316AD9"/>
<path id="_x34_" d="M14.5661 15.603H20.9856H27.3776C28.0296 15.603 28.6386 15.8725 29.0641 16.3115C29.5036 16.737 29.7726 17.346 29.7726 17.998V36.4215C29.7726 37.0735 29.5031 37.6825 29.0641 38.108V38.122C28.6386 38.5475 28.0296 38.817 27.3776 38.817H8.17463C7.50813 38.817 6.91313 38.5475 6.47412 38.122V38.108C6.03512 37.6825 5.76562 37.0735 5.76562 36.4215V17.998C5.76562 17.346 6.03512 16.737 6.47412 16.3115C6.91313 15.872 7.50863 15.603 8.17463 15.603H14.5661ZM20.2066 33.8425C19.6541 33.8425 19.2006 33.389 19.2006 32.836C19.2006 32.283 19.6541 31.844 20.2066 31.844H24.0191C24.5716 31.844 25.0111 32.283 25.0111 32.836C25.0111 33.389 24.5716 33.8425 24.0191 33.8425H20.2066ZM21.9781 17.6015V24.418C21.9781 24.7155 21.8931 24.999 21.7371 25.24C21.5811 25.481 21.3546 25.679 21.0711 25.8065C20.5186 26.0475 19.8806 25.9485 19.4271 25.5375L17.8116 24.092L16.0966 25.594C15.6431 25.9765 15.0056 26.0755 14.4526 25.8205C14.1831 25.707 13.9706 25.509 13.8006 25.268C13.6446 25.013 13.5596 24.7295 13.5596 24.432V17.6015H8.17463C8.06113 17.6015 7.96213 17.644 7.89112 17.715C7.82012 17.786 7.77763 17.885 7.77763 17.9985V36.422C7.77763 36.5355 7.82012 36.6345 7.89112 36.7055C7.96213 36.7765 8.06113 36.819 8.17463 36.819H27.3776C27.4911 36.819 27.5901 36.7765 27.6611 36.7055C27.7321 36.634 27.7746 36.535 27.7746 36.422V17.998C27.7746 17.8845 27.7321 17.7855 27.6611 17.7145C27.5901 17.6435 27.4911 17.601 27.3776 17.601H21.9781V17.6015ZM19.9801 17.6015H15.5586V23.3975L16.8196 22.3065C17.0891 22.0655 17.4856 21.938 17.8401 21.938C18.1941 21.938 18.5626 22.0655 18.8461 22.321L19.9801 23.3555V17.6015Z" fill="#316AD9" stroke="#316AD9"/>
<path id="_x33_" d="M38.1513 32.4674C38.7038 32.4674 39.1583 32.9069 39.1583 33.4594C39.1583 34.0124 38.7043 34.4659 38.1513 34.4659H37.3718C35.6988 34.4659 34.3398 33.1054 34.3398 31.4329V26.2459C34.3398 24.5734 35.7138 23.2129 37.3718 23.2129H54.8033C56.4613 23.2129 57.8218 24.5734 57.8218 26.2459V31.4329C57.8218 33.1054 56.4613 34.4659 54.8033 34.4659H51.8553C51.3028 34.4659 50.8493 34.0129 50.8493 33.4594C50.8493 32.9069 51.3023 32.4674 51.8553 32.4674H54.8033C55.3698 32.4674 55.8238 31.9999 55.8238 31.4329V26.2459C55.8238 25.6789 55.3698 25.2114 54.8033 25.2114H37.3718C36.8053 25.2114 36.3378 25.6789 36.3378 26.2459V31.4329C36.3378 31.9999 36.8058 32.4674 37.3718 32.4674H38.1513Z" fill="#316AD9" stroke="#316AD9"/>
<path id="_x32_" d="M6.77163 47.9862C6.21913 47.9862 5.76562 47.5327 5.76562 46.9797C5.76562 46.4267 6.21913 45.9877 6.77163 45.9877H11.5476C12.1001 45.9877 12.5541 46.4272 12.5541 46.9797C12.5541 47.5322 12.1006 47.9862 11.5476 47.9862H6.77163ZM6.77163 43.7627C6.21913 43.7627 5.76562 43.3092 5.76562 42.7707C5.76562 42.2182 6.21913 41.7642 6.77163 41.7642H19.7106C20.2631 41.7642 20.7026 42.2177 20.7026 42.7707C20.7026 43.3092 20.2636 43.7627 19.7106 43.7627H6.77163Z" fill="#316AD9" stroke="#316AD9"/>
<path id="_x31_" d="M28.5135 51.231C29.052 51.231 29.5055 51.6845 29.5055 52.2375C29.5055 52.7905 29.052 53.2295 28.5135 53.2295H2.8485C2.0265 53.2295 1.3175 52.889 0.8075 52.3365C0.2975 51.798 0 51.047 0 50.253V2.9335C0 1.332 1.332 0 2.9335 0H61.0515C62.668 0 64 1.332 64 2.9335V50.253C64 51.061 63.6455 51.812 63.079 52.3505C62.5265 52.889 61.7755 53.2295 60.9665 53.2295C60.414 53.2295 59.9605 52.79 59.9605 52.2375C59.9605 51.685 60.4135 51.231 60.9665 51.231C61.236 51.231 61.491 51.1175 61.69 50.919C61.8735 50.735 62.0015 50.494 62.0015 50.253V2.9335C62.0015 2.4235 61.5755 1.998 61.0515 1.998H2.9335C2.423 1.998 1.998 2.4235 1.998 2.9335V50.253C1.998 50.5365 2.097 50.8055 2.2675 50.976C2.4235 51.132 2.6215 51.231 2.8485 51.231H28.5135Z" fill="#316AD9" stroke="#316AD9"/>
</g>
</g>
<defs>
<clipPath id="clip0_4129_26914">
<rect width="64" height="64" fill="white"/>
</clipPath>
</defs>
</svg>
