<svg width="25" height="24" viewBox="0 0 25 24" fill="none" xmlns="http://www.w3.org/2000/svg">
<g clip-path="url(#clip0_4521_948)">
<path d="M3.18889 13H0.5V16.6667C0.5 20.7168 3.78325 24 7.83333 24H11.5V21.3111H7.83333C5.26828 21.3111 3.18889 19.2317 3.18889 16.6667V13Z" fill="url(#paint0_linear_4521_948)"/>
<path d="M13.5 21.3111V24H17.1667C21.2168 24 24.5 20.7168 24.5 16.6667V13H21.8111V16.6667C21.8111 19.2317 19.7317 21.3111 17.1667 21.3111H13.5Z" fill="url(#paint1_linear_4521_948)"/>
<path d="M13.5 21.3111V24H17.1667C21.2168 24 24.5 20.7168 24.5 16.6667V13H21.8111V16.6667C21.8111 19.2317 19.7317 21.3111 17.1667 21.3111H13.5Z" fill="#A6D547"/>
<path d="M13.5 2.68889H17.1667C19.7317 2.68889 21.8111 4.76828 21.8111 7.33333V11H24.5V7.33333C24.5 3.28325 21.2168 0 17.1667 0H13.5V2.68889Z" fill="url(#paint2_linear_4521_948)"/>
<path d="M13.5 2.68889H17.1667C19.7317 2.68889 21.8111 4.76828 21.8111 7.33333V11H24.5V7.33333C24.5 3.28325 21.2168 0 17.1667 0H13.5V2.68889Z" fill="#FF7577"/>
<path d="M11.5 2.68889V0H7.83333C3.78325 0 0.5 3.28325 0.5 7.33333V11H3.18889V7.33333C3.18889 4.76828 5.26828 2.68889 7.83333 2.68889H11.5Z" fill="url(#paint3_linear_4521_948)"/>
<path d="M11.5 2.68889V0H7.83333C3.78325 0 0.5 3.28325 0.5 7.33333V11H3.18889V7.33333C3.18889 4.76828 5.26828 2.68889 7.83333 2.68889H11.5Z" fill="#4786CF"/>
</g>
<defs>
<linearGradient id="paint0_linear_4521_948" x1="6" y1="13" x2="6" y2="24" gradientUnits="userSpaceOnUse">
<stop stop-color="#8F67E4"/>
</linearGradient>
<linearGradient id="paint1_linear_4521_948" x1="19" y1="13" x2="19" y2="24" gradientUnits="userSpaceOnUse">
<stop stop-color="#4D40E8"/>
<stop offset="1" stop-color="#6040E0"/>
</linearGradient>
<linearGradient id="paint2_linear_4521_948" x1="19" y1="0" x2="19" y2="11" gradientUnits="userSpaceOnUse">
<stop stop-color="#4D40E8"/>
<stop offset="1" stop-color="#6040E0"/>
</linearGradient>
<linearGradient id="paint3_linear_4521_948" x1="6" y1="0" x2="6" y2="11" gradientUnits="userSpaceOnUse">
<stop stop-color="#4D40E8"/>
<stop offset="1" stop-color="#6040E0"/>
</linearGradient>
<clipPath id="clip0_4521_948">
<rect width="24" height="24" fill="white" transform="translate(0.5)"/>
</clipPath>
</defs>
</svg>
