<svg width="40" height="40" viewBox="0 0 40 40" fill="none" xmlns="http://www.w3.org/2000/svg">
<g id="plus 1" clip-path="url(#clip0_3996_23515)">
<path id="Vector" d="M20 0C8.97156 0 0 8.97156 0 20C0 31.0284 8.97156 40 20 40C31.0284 40 40 31.0284 40 20C40 8.97156 31.0284 0 20 0Z" fill="#316AD9"/>
<path id="Vector_2" d="M28.4609 11.5396C28.1133 11.1916 27.6509 11 27.1589 11H20.1476C19.6558 11 19.1934 11.1916 18.8455 11.5394L9.53949 20.8455C9.19156 21.1934 9 21.6557 9 22.1475C9 22.6393 9.19164 23.1016 9.53949 23.4493L16.5506 30.4604C16.8983 30.8084 17.3607 31 17.8525 31C18.3443 31 18.8066 30.8084 19.1545 30.4605L28.4606 21.1545C28.8084 20.8066 29 20.3442 29 19.8524V12.8411C29 12.3491 28.8084 11.8866 28.4609 11.5396ZM19 15.6085C20.0152 15.6085 20.8412 16.4344 20.8412 17.4496C20.8412 18.4648 20.0152 19.2907 19 19.2907C17.9848 19.2907 17.1589 18.4648 17.1589 17.4496C17.1589 16.4344 17.9848 15.6085 19 15.6085ZM19 26.3914C17.9848 26.3914 17.1589 25.5655 17.1589 24.5503C17.1589 23.5351 17.9848 22.7092 19 22.7092C20.0152 22.7092 20.8412 23.5351 20.8412 24.5503C20.8412 25.5655 20.0152 26.3914 19 26.3914ZM22.7656 21.5859H15.2345C14.9109 21.5859 14.6485 21.3236 14.6485 21C14.6485 20.6764 14.9109 20.414 15.2345 20.414H22.7656C23.0892 20.414 23.3516 20.6764 23.3516 21C23.3516 21.3236 23.0893 21.5859 22.7656 21.5859ZM25.2761 15.3099C24.9526 15.3099 24.6901 15.0474 24.6901 14.7239C24.6901 14.4005 24.9526 14.138 25.2761 14.138C25.5995 14.138 25.862 14.4005 25.862 14.7239C25.862 15.0474 25.5995 15.3099 25.2761 15.3099Z" fill="white"/>
</g>
<defs>
<clipPath id="clip0_3996_23515">
<rect width="40" height="40" fill="white"/>
</clipPath>
</defs>
</svg>
