<svg width="190" height="71" viewBox="0 0 190 71" fill="none" xmlns="http://www.w3.org/2000/svg">
<g id="Vector" opacity="0.22">
<path d="M126.553 55.4075V44.7182L158.814 1.17679H175.434L143.857 44.7182L136.133 42.4627H190V55.4075H126.553ZM163.409 69.8232V55.4075L163.898 42.4627V29.616H178.855V69.8232H163.409Z" fill="#35347E"/>
<path d="M90.3067 71C84.7017 71 79.6832 69.6271 75.2514 66.8812C70.8195 64.07 67.3327 60.0166 64.7909 54.721C62.2491 49.4254 60.9783 43.0184 60.9783 35.5C60.9783 27.9816 62.2491 21.5746 64.7909 16.279C67.3327 10.9834 70.8195 6.9627 75.2514 4.21685C79.6832 1.40562 84.7017 0 90.3067 0C95.9769 0 100.995 1.40562 105.362 4.21685C109.794 6.9627 113.281 10.9834 115.822 16.279C118.364 21.5746 119.635 27.9816 119.635 35.5C119.635 43.0184 118.364 49.4254 115.822 54.721C113.281 60.0166 109.794 64.07 105.362 66.8812C100.995 69.6271 95.9769 71 90.3067 71ZM90.3067 57.5649C92.9789 57.5649 95.2926 56.8131 97.2478 55.3094C99.2682 53.8057 100.832 51.4194 101.94 48.1505C103.113 44.8817 103.7 40.6648 103.7 35.5C103.7 30.3352 103.113 26.1183 101.94 22.8494C100.832 19.5806 99.2682 17.1943 97.2478 15.6906C95.2926 14.1869 92.9789 13.4351 90.3067 13.4351C87.6997 13.4351 85.386 14.1869 83.3656 15.6906C81.4104 17.1943 79.8462 19.5806 78.6731 22.8494C77.5651 26.1183 77.0111 30.3352 77.0111 35.5C77.0111 40.6648 77.5651 44.8817 78.6731 48.1505C79.8462 51.4194 81.4104 53.8057 83.3656 55.3094C85.386 56.8131 87.6997 57.5649 90.3067 57.5649Z" fill="#35347E"/>
<path d="M26.1024 71C21.3447 71 16.6195 70.3789 11.927 69.1367C7.29959 67.8292 3.32389 65.9986 0 63.645L6.25672 51.4848C8.86369 53.3807 11.8618 54.8844 15.2509 55.9958C18.7051 57.1073 22.1919 57.663 25.7113 57.663C29.687 57.663 32.8153 56.8784 35.0964 55.3094C37.3775 53.7403 38.5181 51.5502 38.5181 48.7389C38.5181 46.9737 38.0619 45.4047 37.1495 44.0318C36.237 42.6588 34.6076 41.6128 32.2613 40.8936C29.9802 40.1745 26.754 39.8149 22.5829 39.8149H5.08358L8.60298 1.17679H50.3473V13.9254H14.2732L22.4852 6.6685L20.0411 34.2251L11.8292 26.9682H26.2979C33.0761 26.9682 38.5181 27.9162 42.6241 29.8121C46.7952 31.6427 49.8259 34.1598 51.7159 37.3632C53.606 40.5667 54.5509 44.1952 54.5509 48.2486C54.5509 52.302 53.5408 56.0612 51.5204 59.5262C49.5 62.9259 46.3716 65.7044 42.1352 67.8619C37.9641 69.9539 32.6198 71 26.1024 71Z" fill="#35347E"/>
</g>
</svg>
