<svg width="164" height="48" viewBox="0 0 164 48" fill="none" xmlns="http://www.w3.org/2000/svg">
<g id="Frame" opacity="0.22" clip-path="url(#clip0_4307_28445)">
<g id="Group">
<g id="Group_2">
<path id="Vector" d="M114.992 39.9337L116.678 24.9314L126.598 18.0383H137.474L150.19 26.3421L150.751 39.9337L147.895 40.8951L114.992 42.5404V39.9337Z" fill="url(#paint0_linear_4307_28445)"/>
<path id="Vector_2" opacity="0.4" d="M114.992 39.9337L116.678 24.9314L126.598 18.0383H137.474L150.19 26.3421L150.751 39.9337L147.895 40.8951L114.992 42.5404V39.9337Z" fill="black"/>
</g>
<g id="Group_3">
<path id="Vector_3" d="M132.874 47.8026C140.238 47.8026 146.208 41.8775 146.208 34.5686C146.208 27.2596 140.238 21.3346 132.874 21.3346C125.509 21.3346 119.539 27.2596 119.539 34.5686C119.539 41.8775 125.509 47.8026 132.874 47.8026Z" fill="#263238"/>
</g>
<g id="Group_4">
<path id="Vector_4" d="M14.5312 40.1312L16.2168 25.126L26.1401 18.2357H37.0127L49.729 26.5395L50.2899 40.1312V42.7379H14.5312V40.1312Z" fill="url(#paint1_linear_4307_28445)"/>
<path id="Vector_5" opacity="0.5" d="M14.5312 40.1312L16.2168 25.126L26.1401 18.2357H37.0127L49.729 26.5395L50.2899 40.1312V42.7379H14.5312V40.1312Z" fill="black"/>
</g>
<path id="Vector_6" d="M46.3984 15.6089C46.3984 15.6089 56.8597 9.17651 66.4695 6.49823C76.0765 3.8171 83.624 1.61096 83.624 1.61096L57.9843 16.682L46.3984 15.6089Z" fill="#263238"/>
<path id="Vector_7" d="M157.522 15.3629L160.013 12.8849L159.913 11.6945H149.351C149.351 11.6945 120.855 0 97.2431 0C73.6284 0 55.0991 15.0653 55.0991 15.0653L47.5257 14.6675C47.5257 14.6675 36.8027 14.802 31.1852 15.5603C21.6214 16.8508 4.98181 21.1114 0 27.8529C0 27.8529 2.79005 39.4501 9.36535 43.9111H18.2245V34.1365H18.2388C18.3999 26.6368 24.5495 20.6021 32.1287 20.6021C39.7078 20.6021 45.8574 26.6368 46.0185 34.1365H46.0329V43.9111H119.092V34.1365H119.106C119.267 26.6368 125.417 20.6021 132.996 20.6021C140.575 20.6021 146.725 26.6368 146.886 34.1365H146.9V41.682C151.574 41.0382 155.731 40.237 158.221 39.2527C158.221 39.2527 163.701 33.1064 164 29.936L157.522 15.3629Z" fill="url(#paint2_linear_4307_28445)"/>
<g id="Group_5">
<path id="Vector_8" d="M32.405 48C39.7695 48 45.7397 42.0749 45.7397 34.766C45.7397 27.4571 39.7695 21.532 32.405 21.532C25.0405 21.532 19.0703 27.4571 19.0703 34.766C19.0703 42.0749 25.0405 48 32.405 48Z" fill="#263238"/>
</g>
<path id="Vector_9" d="M61.3281 15.6576C61.3281 15.6576 118.297 13.4142 127.038 12.0093L128.306 9.45119C128.306 9.45119 115.395 2.11742 96.5805 2.60958C77.7664 3.10461 61.3281 15.6576 61.3281 15.6576Z" fill="#263238"/>
</g>
</g>
<defs>
<linearGradient id="paint0_linear_4307_28445" x1="132.871" y1="18.0383" x2="108.988" y2="48.5471" gradientUnits="userSpaceOnUse">
<stop stop-color="#6066FF"/>
<stop offset="1" stop-color="#1E5AF4"/>
</linearGradient>
<linearGradient id="paint1_linear_4307_28445" x1="32.4106" y1="18.2357" x2="8.52719" y2="48.7445" gradientUnits="userSpaceOnUse">
<stop stop-color="#6066FF"/>
<stop offset="1" stop-color="#1E5AF4"/>
</linearGradient>
<linearGradient id="paint2_linear_4307_28445" x1="82" y1="1.67849e-06" x2="57.3333" y2="80.6372" gradientUnits="userSpaceOnUse">
<stop stop-color="#6066FF"/>
<stop offset="1" stop-color="#1E5AF4"/>
</linearGradient>
<clipPath id="clip0_4307_28445">
<rect width="164" height="48" fill="white"/>
</clipPath>
</defs>
</svg>
