<svg width="143" height="29" viewBox="0 0 143 29" fill="none" xmlns="http://www.w3.org/2000/svg">
<path d="M28 29V5C28 2.79086 29.7909 1 32 1H37.5585L46.3536 22L46.1668 29H44.8632C43.379 29 42.0281 28.073 41.3953 26.6204L34.1872 8.875V29H28Z" fill="#316AD9"/>
<path d="M44.4096 29V22L53.1829 1H59C61.2091 1 63 2.79086 63 5V29H56.5976L56.5976 8.4375L49.211 26.613C48.5797 28.0697 47.6537 29 46.1668 29H44.4096Z" fill="#316AD9"/>
<path d="M0 29L13.7396 3.65904C14.628 2.02054 16.3422 1 18.206 1C20.2109 1 22.0284 2.17903 22.8455 4.00983L34 29H26.7814L19.7783 13.6C19.4909 12.96 19.2276 12.3733 18.9882 11.84C18.7727 11.3067 18.5811 10.8 18.4135 10.32C18.2459 9.81333 18.0783 9.32 17.9107 8.84C17.7671 8.36 17.6354 7.88 17.5157 7.4L18.9882 7.36C18.8445 7.86667 18.345 8.33333 18.1774 8.84C18.0098 9.34667 17.675 10.0286 17.4835 10.5353C17.292 11.042 17.0765 11.562 16.8371 12.0953C16.6216 12.6286 16.3941 13.1753 16.1547 13.7353L7.56086 29H0ZM8.53732 24.76L10.764 19.16H25.8835L26.8173 24.76H8.53732Z" fill="#316AD9"/>
<path d="M71.2587 13.0824L72.3888 10.5824H78.6444L79.7745 13.0824L79.8276 13.2H79.9567H82.0332H82.3466L82.2146 12.9157L77.4247 2.60356C77.0798 1.86096 76.3354 1.38592 75.5166 1.38592C74.6978 1.38592 73.9534 1.86096 73.6084 2.60356L68.8186 12.9157L68.6866 13.2H69H71.0765H71.2055L71.2587 13.0824ZM75.5166 3.66315L77.7137 8.52352H73.3195L75.5166 3.66315ZM92.7593 7.12755C92.6245 7.0629 92.4813 7.00575 92.3298 6.95594C92.8236 6.63609 93.1885 6.24601 93.4127 5.78291C93.6412 5.32118 93.7571 4.84482 93.7571 4.35574C93.7571 3.44659 93.4599 2.71323 92.8504 2.18202C92.252 1.64173 91.4123 1.38592 90.3614 1.38592H82.509H82.2543L82.3147 1.63336L83.6609 7.14646L82.5789 12.9634L82.5349 13.2H82.7755H90.6265C91.4521 13.2 92.1568 13.0649 92.7318 12.784L92.7318 12.784L92.7345 12.7827C93.3039 12.4938 93.7414 12.0989 94.0379 11.5961C94.3433 11.0949 94.4934 10.5208 94.4934 9.88015C94.4934 9.28957 94.3528 8.75208 94.0686 8.27281C93.7892 7.78488 93.3475 7.40493 92.7593 7.12755ZM85.2976 3.39911H89.9343C90.4419 3.39911 90.7971 3.52751 91.0327 3.75414L91.0327 3.75417L91.0354 3.75673C91.2761 3.97973 91.3984 4.26491 91.3984 4.62967C91.3984 5.14312 91.2425 5.51413 90.9517 5.77242C90.6498 6.03032 90.2666 6.16462 89.787 6.16462H85.9375L85.2976 3.39911ZM90.4056 11.1868H85.2736L85.9483 8.11693H89.9785C90.732 8.11693 91.2634 8.27049 91.6059 8.54483L91.6078 8.54631C91.9559 8.81832 92.1348 9.19825 92.1348 9.71274C92.1348 10.2042 91.98 10.5598 91.6892 10.8088C91.4035 11.0517 90.9848 11.1868 90.4056 11.1868ZM101.021 3.5513H104.853H105.053V3.3513V1.58592V1.38592H104.853H94.7934H94.5934V1.58592V3.3513V3.5513H94.7934H98.6771V13V13.2H98.8771H100.821H101.021V13V3.5513ZM105.458 10.1268L105.459 10.1277C106.009 11.0434 106.778 11.7584 107.761 12.2718C108.747 12.7862 109.884 13.0402 111.167 13.0402C112.451 13.0402 113.588 12.7862 114.574 12.2718C115.557 11.7584 116.326 11.0434 116.876 10.1277L116.877 10.1268C117.428 9.19916 117.7 8.12806 117.7 6.9201C117.7 5.71232 117.428 4.64596 116.876 3.72799C116.327 2.80235 115.557 2.08203 114.574 1.56842C113.588 1.05402 112.451 0.8 111.167 0.8C109.884 0.8 108.747 1.05402 107.761 1.56842C106.778 2.08206 106.008 2.80243 105.459 3.72815C104.907 4.64608 104.635 5.71238 104.635 6.9201C104.635 8.12806 104.907 9.19916 105.458 10.1268ZM114.809 9.01036L114.808 9.01242C114.474 9.59698 114.002 10.047 113.388 10.3645C112.774 10.6817 112.036 10.8444 111.167 10.8444C110.309 10.8444 109.571 10.682 108.947 10.3642C108.332 10.0466 107.855 9.59646 107.512 9.01141C107.179 8.428 107.008 7.7333 107.008 6.9201C107.008 6.10692 107.179 5.41222 107.512 4.82882C107.855 4.24373 108.332 3.79354 108.947 3.47598C109.571 3.15822 110.31 2.99582 111.167 2.99582C112.036 2.99582 112.774 3.15851 113.388 3.47572C114.002 3.79325 114.474 4.24322 114.808 4.82779L114.809 4.82984C115.152 5.41308 115.327 6.10736 115.327 6.9201C115.327 7.73285 115.152 8.42713 114.809 9.01036Z" fill="#316AD9" stroke="#316AD9" stroke-width="0.4"/>
<path d="M84.4965 17V29H81.9017V18.056L82.536 18.104L78.6601 27.7093C78.3454 28.4893 77.5886 29 76.7475 29C75.9071 29 75.1508 28.4902 74.8356 27.7112L70.9605 18.136L71.5948 18.072V29H69V17H73.1949L77.3032 27.496H76.2077L80.3016 17H84.4965Z" fill="#316AD9"/>
<path d="M88.1104 26.584V24.136H95.5776V26.584H88.1104ZM91.9079 17C92.9776 17 93.9423 17.6437 94.3529 18.6315L98.6624 29H95.765L91.4836 18.264H92.3197L88.0528 29H85.1409L89.4639 18.629C89.8751 17.6425 90.8391 17 91.9079 17Z" fill="#316AD9"/>
<path d="M106.847 17V19.688H100.83L102.055 18.328V29H99.3307V17H106.847Z" fill="#316AD9"/>
<path d="M108.274 17H110.998V29H108.274V17ZM116.865 17H119.59V29H116.865V17ZM109.787 21.592H118.019V24.248H109.787V21.592Z" fill="#316AD9"/>
<path d="M123.203 26.584V24.136H130.67V26.584H123.203ZM127.001 17C128.07 17 129.035 17.6437 129.446 18.6315L133.755 29H130.858L126.576 18.264H127.413L123.146 29H120.234L124.557 18.629C124.968 17.6425 125.932 17 127.001 17Z" fill="#316AD9"/>
<path d="M136.066 18.344H138.791V29H136.066V18.344ZM131.857 17H143V19.672H131.857V17Z" fill="#316AD9"/>
</svg>
