<svg width="32" height="29" viewBox="0 0 32 29" fill="none" xmlns="http://www.w3.org/2000/svg">
<path id="Vector" d="M31.5315 13.105L18.7314 0.462687C18.5076 0.241748 18.2226 0.0912947 17.9122 0.030347C17.6019 -0.0306007 17.2803 0.000693667 16.9879 0.120274C16.6956 0.239854 16.4457 0.442351 16.2699 0.702165C16.0941 0.96198 16.0002 1.26745 16.0002 1.57995V7.18206C11.6294 7.58154 7.56684 9.57755 4.60755 12.7795C1.64826 15.9814 0.00523483 20.1588 0 24.4941V26.8645C0.000252572 27.1925 0.103857 27.5124 0.296442 27.7796C0.489027 28.0469 0.761047 28.2483 1.07477 28.356C1.3885 28.4637 1.72838 28.4723 2.04727 28.3806C2.36616 28.2889 2.64826 28.1015 2.85443 27.8443C4.42196 26.0032 6.34528 24.4891 8.512 23.3904C10.6787 22.2918 13.0454 21.6307 15.4738 21.4457C15.5538 21.4362 15.7538 21.4204 16.0002 21.4046V26.8645C16.0002 27.177 16.0941 27.4825 16.2699 27.7423C16.4457 28.0021 16.6956 28.2046 16.9879 28.3242C17.2803 28.4438 17.6019 28.475 17.9122 28.4141C18.2226 28.3532 18.5076 28.2027 18.7314 27.9818L31.5315 15.3395C31.8315 15.0431 32 14.6413 32 14.2222C32 13.8032 31.8315 13.4013 31.5315 13.105ZM19.2002 23.0497V19.7532C19.2002 19.3341 19.0316 18.9322 18.7316 18.6358C18.4315 18.3394 18.0245 18.1729 17.6002 18.1729C17.1922 18.1729 15.5266 18.2519 15.101 18.3073C10.7887 18.6997 6.68394 20.3178 3.28324 22.9659C3.66923 19.4805 5.34332 16.2582 7.98497 13.9159C10.6266 11.5736 14.0502 10.276 17.6002 10.2715C18.0245 10.2715 18.4315 10.105 18.7316 9.80866C19.0316 9.5123 19.2002 9.11034 19.2002 8.69123V5.39475L28.1379 14.2222L19.2002 23.0497Z" fill="#2F323D"/>
</svg>
