<svg width="61" height="36" viewBox="0 0 61 36" fill="none" xmlns="http://www.w3.org/2000/svg">
<path d="M60.5 17C60.501 16.1503 60.3208 15.3101 59.9715 14.5355C59.6221 13.7609 59.1116 13.0697 58.474 12.508C58.331 12.193 58.162 11.863 57.96 11.508C54.061 4.62401 43.716 1.16448e-05 36.5 1.16448e-05C33.0456 -0.00403605 29.6723 1.04724 26.8318 3.0131C23.9913 4.97897 21.8191 7.76561 20.606 11H17.5C13.411 11.0003 9.46054 12.4821 6.38 15.171C6.31527 15.2165 6.25648 15.2699 6.205 15.33C4.4125 16.9186 2.97721 18.8693 1.99382 21.0532C1.01043 23.2372 0.501296 25.6049 0.5 28C0.5 28.2652 0.605357 28.5196 0.792893 28.7071C0.98043 28.8947 1.23478 29 1.5 29H6.569C6.81113 30.9327 7.75065 32.7105 9.21105 33.9993C10.6714 35.2882 12.5522 35.9994 14.5 35.9994C16.4478 35.9994 18.3286 35.2882 19.789 33.9993C21.2493 32.7105 22.1889 30.9327 22.431 29H38.569C38.8111 30.9327 39.7507 32.7105 41.211 33.9993C42.6714 35.2882 44.5522 35.9994 46.5 35.9994C48.4478 35.9994 50.3286 35.2882 51.789 33.9993C53.2493 32.7105 54.1889 30.9327 54.431 29H55.5C56.8256 28.9984 58.0964 28.4711 59.0338 27.5338C59.9711 26.5965 60.4984 25.3256 60.5 24V23C60.5048 21.9467 60.2286 20.9111 59.7 20C60.2286 19.0889 60.5048 18.0534 60.5 17ZM58.5 17C58.4986 17.5735 58.3727 18.1399 58.131 18.66C57.7305 18.4564 57.3811 18.165 57.109 17.8074C56.837 17.4499 56.6492 17.0355 56.5598 16.5952C56.4703 16.1549 56.4816 15.7001 56.5926 15.2647C56.7036 14.8293 56.9116 14.4247 57.201 14.081C57.6079 14.4511 57.9334 14.9016 58.157 15.4041C58.3806 15.9066 58.4974 16.45 58.5 17ZM42.086 11H37.5V2.04001C41.1502 2.36512 44.6966 3.42683 47.925 5.16101L42.086 11ZM35.5 2.04001V11H22.757C23.8525 8.4797 25.6214 6.31007 27.8695 4.72941C30.1175 3.14875 32.7577 2.21821 35.5 2.04001ZM13.5 14C13.4989 14.5936 13.3217 15.1734 12.9909 15.6663C12.6602 16.1591 12.1906 16.5427 11.6417 16.7686C11.0929 16.9945 10.4893 17.0525 9.90744 16.9353C9.32558 16.818 8.79158 16.5308 8.373 16.11C9.88798 14.9446 11.6125 14.0806 13.453 13.565C13.4793 13.7087 13.4951 13.8541 13.5 14ZM14.5 34C13.3133 34 12.1533 33.6481 11.1666 32.9888C10.1799 32.3295 9.41085 31.3925 8.95672 30.2961C8.5026 29.1998 8.38378 27.9934 8.61529 26.8295C8.8468 25.6656 9.41824 24.5965 10.2574 23.7574C11.0965 22.9183 12.1656 22.3468 13.3295 22.1153C14.4933 21.8838 15.6997 22.0026 16.7961 22.4567C17.8925 22.9109 18.8295 23.6799 19.4888 24.6666C20.1481 25.6533 20.5 26.8133 20.5 28C20.4984 29.5908 19.8658 31.116 18.7409 32.2409C17.616 33.3658 16.0908 33.9984 14.5 34ZM46.5 34C45.3133 34 44.1533 33.6481 43.1666 32.9888C42.1799 32.3295 41.4108 31.3925 40.9567 30.2961C40.5026 29.1998 40.3838 27.9934 40.6153 26.8295C40.8468 25.6656 41.4182 24.5965 42.2574 23.7574C43.0965 22.9183 44.1656 22.3468 45.3295 22.1153C46.4933 21.8838 47.6997 22.0026 48.7961 22.4567C49.8925 22.9109 50.8295 23.6799 51.4888 24.6666C52.1481 25.6533 52.5 26.8133 52.5 28C52.4984 29.5908 51.8658 31.116 50.7409 32.2409C49.616 33.3658 48.0908 33.9984 46.5 34ZM58.5 24C58.5 24.7957 58.1839 25.5587 57.6213 26.1213C57.0587 26.6839 56.2957 27 55.5 27H54.431C54.1889 25.0673 53.2493 23.2896 51.789 22.0007C50.3286 20.7119 48.4478 20.0006 46.5 20.0006C44.5522 20.0006 42.6714 20.7119 41.211 22.0007C39.7507 23.2896 38.8111 25.0673 38.569 27H22.431C22.1889 25.0673 21.2493 23.2896 19.789 22.0007C18.3286 20.7119 16.4478 20.0006 14.5 20.0006C12.5522 20.0006 10.6714 20.7119 9.21105 22.0007C7.75065 23.2896 6.81113 25.0673 6.569 27H2.533C2.77724 23.3927 4.32094 19.9962 6.878 17.44C7.61171 18.2262 8.58013 18.7537 9.63852 18.9439C10.6969 19.1341 11.7884 18.9766 12.7499 18.4951C13.7114 18.0136 14.4913 17.2338 14.9729 16.2724C15.4545 15.3109 15.6121 14.2194 15.422 13.161C16.1101 13.0592 16.8044 13.0054 17.5 13H42.5C42.6311 12.9994 42.7609 12.9732 42.882 12.923C43.004 12.8731 43.1149 12.7993 43.208 12.706L49.724 6.19001C52.3102 7.70208 54.5006 9.80642 56.115 12.33C55.4865 12.906 55.0165 13.6338 54.7499 14.4436C54.4833 15.2534 54.4291 16.118 54.5925 16.9548C54.7559 17.7915 55.1314 18.5723 55.683 19.2223C56.2347 19.8723 56.944 20.3697 57.743 20.667C58.2379 21.3439 58.5032 22.1615 58.5 23V24Z" fill="white"/>
<path d="M46.5 24C45.7089 24 44.9355 24.2346 44.2777 24.6741C43.6199 25.1136 43.1072 25.7384 42.8045 26.4693C42.5017 27.2002 42.4225 28.0044 42.5769 28.7804C42.7312 29.5563 43.1122 30.269 43.6716 30.8284C44.231 31.3878 44.9437 31.7688 45.7196 31.9231C46.4956 32.0775 47.2998 31.9983 48.0307 31.6955C48.7616 31.3928 49.3864 30.8801 49.8259 30.2223C50.2654 29.5645 50.5 28.7911 50.5 28C50.5 26.9391 50.0786 25.9217 49.3284 25.1716C48.5783 24.4214 47.5609 24 46.5 24ZM46.5 30C46.1044 30 45.7178 29.8827 45.3889 29.6629C45.06 29.4432 44.8036 29.1308 44.6522 28.7654C44.5009 28.3999 44.4613 27.9978 44.5384 27.6098C44.6156 27.2219 44.8061 26.8655 45.0858 26.5858C45.3655 26.3061 45.7219 26.1156 46.1098 26.0384C46.4978 25.9613 46.8999 26.0009 47.2654 26.1522C47.6308 26.3036 47.9432 26.56 48.1629 26.8889C48.3827 27.2178 48.5 27.6044 48.5 28C48.5 28.5304 48.2893 29.0391 47.9142 29.4142C47.5391 29.7893 47.0304 30 46.5 30Z" fill="white"/>
<path d="M14.5 24C13.7089 24 12.9355 24.2346 12.2777 24.6741C11.6199 25.1136 11.1072 25.7384 10.8045 26.4693C10.5017 27.2002 10.4225 28.0044 10.5769 28.7804C10.7312 29.5563 11.1122 30.269 11.6716 30.8284C12.231 31.3878 12.9437 31.7688 13.7196 31.9231C14.4956 32.0775 15.2998 31.9983 16.0307 31.6955C16.7616 31.3928 17.3864 30.8801 17.8259 30.2223C18.2654 29.5645 18.5 28.7911 18.5 28C18.5 26.9391 18.0786 25.9217 17.3284 25.1716C16.5783 24.4214 15.5609 24 14.5 24ZM14.5 30C14.1044 30 13.7178 29.8827 13.3889 29.6629C13.06 29.4432 12.8036 29.1308 12.6522 28.7654C12.5009 28.3999 12.4613 27.9978 12.5384 27.6098C12.6156 27.2219 12.8061 26.8655 13.0858 26.5858C13.3655 26.3061 13.7219 26.1156 14.1098 26.0384C14.4978 25.9613 14.8999 26.0009 15.2654 26.1522C15.6308 26.3036 15.9432 26.56 16.1629 26.8889C16.3827 27.2178 16.5 27.6044 16.5 28C16.5 28.5304 16.2893 29.0391 15.9142 29.4142C15.5391 29.7893 15.0304 30 14.5 30Z" fill="white"/>
</svg>
