<svg width="60" height="36" viewBox="0 0 60 36" fill="none" xmlns="http://www.w3.org/2000/svg">
<path d="M16 24.686C15.4067 24.686 14.8266 24.867 14.3333 25.2061C13.8399 25.5452 13.4554 26.0271 13.2284 26.5909C13.0013 27.1548 12.9419 27.7752 13.0576 28.3738C13.1734 28.9724 13.4591 29.5222 13.8787 29.9538C14.2982 30.3853 14.8328 30.6792 15.4147 30.7983C15.9967 30.9173 16.5999 30.8562 17.1481 30.6227C17.6962 30.3891 18.1648 29.9936 18.4944 29.4862C18.8241 28.9787 19 28.3821 19 27.7718C19 26.9534 18.6839 26.1685 18.1213 25.5898C17.5587 25.0111 16.7957 24.686 16 24.686ZM16 28.8004C15.8022 28.8004 15.6089 28.7401 15.4444 28.627C15.28 28.514 15.1518 28.3534 15.0761 28.1654C15.0004 27.9775 14.9806 27.7707 15.0192 27.5711C15.0578 27.3716 15.153 27.1883 15.2929 27.0445C15.4327 26.9006 15.6109 26.8027 15.8049 26.763C15.9989 26.7233 16.2 26.7437 16.3827 26.8215C16.5654 26.8994 16.7216 27.0312 16.8315 27.2004C16.9414 27.3695 17 27.5684 17 27.7718C17 28.0446 16.8946 28.3062 16.7071 28.4991C16.5196 28.692 16.2652 28.8004 16 28.8004Z" fill="white"/>
<path d="M43 24.686C42.4067 24.686 41.8266 24.867 41.3333 25.2061C40.8399 25.5452 40.4554 26.0271 40.2284 26.5909C40.0013 27.1548 39.9419 27.7752 40.0576 28.3738C40.1734 28.9724 40.4591 29.5222 40.8787 29.9538C41.2982 30.3853 41.8328 30.6792 42.4147 30.7983C42.9967 30.9173 43.5999 30.8562 44.148 30.6227C44.6962 30.3891 45.1648 29.9936 45.4944 29.4862C45.8241 28.9787 46 28.3821 46 27.7718C46 26.9534 45.6839 26.1685 45.1213 25.5898C44.5587 25.0111 43.7957 24.686 43 24.686ZM43 28.8004C42.8022 28.8004 42.6089 28.7401 42.4444 28.627C42.28 28.514 42.1518 28.3534 42.0761 28.1654C42.0004 27.9775 41.9806 27.7707 42.0192 27.5711C42.0578 27.3716 42.153 27.1883 42.2929 27.0445C42.4327 26.9006 42.6109 26.8027 42.8049 26.763C42.9989 26.7233 43.2 26.7437 43.3827 26.8215C43.5654 26.8994 43.7216 27.0312 43.8315 27.2004C43.9414 27.3695 44 27.5684 44 27.7718C44 28.0446 43.8946 28.3062 43.7071 28.4991C43.5196 28.692 43.2652 28.8004 43 28.8004Z" fill="white"/>
<path d="M55 0H23C22.7346 0.00139998 22.4803 0.110002 22.292 0.302405L10.586 12.3431H8C5.879 12.3455 3.84555 13.2133 2.34578 14.7559C0.846002 16.2986 0.00238211 18.3902 0 20.5718V25.7147C0 26.5331 0.316071 27.318 0.87868 27.8967C1.44129 28.4754 2.20435 28.8005 3 28.8005H8.069C8.31113 30.7885 9.25065 32.617 10.711 33.9427C12.1714 35.2684 14.0522 36 16 36C17.9478 36 19.8286 35.2684 21.289 33.9427C22.7493 32.617 23.6889 30.7885 23.931 28.8005H35.069C35.3111 30.7885 36.2507 32.617 37.711 33.9427C39.1714 35.2684 41.0522 36 43 36C44.9478 36 46.8286 35.2684 48.289 33.9427C49.7493 32.617 50.6889 30.7885 50.931 28.8005H57C57.7957 28.8005 58.5587 28.4754 59.1213 27.8967C59.6839 27.318 60 26.5331 60 25.7147V5.14295C59.9984 3.77946 59.4711 2.47227 58.5338 1.50814C57.5964 0.544002 56.3256 0.00163325 55 0ZM58 22.629H49.235C48.4876 21.6662 47.539 20.8889 46.4596 20.3547C45.3803 19.8205 44.1978 19.5431 43 19.5431C41.8022 19.5431 40.6197 19.8205 39.5404 20.3547C38.461 20.8889 37.5124 21.6662 36.765 22.629H22.235C21.4876 21.6662 20.539 20.8889 19.4596 20.3547C18.3803 19.8205 17.1978 19.5431 16 19.5431C14.8022 19.5431 13.6197 19.8205 12.5404 20.3547C11.461 20.8889 10.5124 21.6662 9.765 22.629H2V20.5718H7C7.26522 20.5718 7.51957 20.4634 7.70711 20.2705C7.89464 20.0776 8 19.816 8 19.5432V14.4003H58V22.629ZM35.069 26.7433H23.931C23.8453 26.0373 23.6704 25.3457 23.411 24.6862H35.589C35.3296 25.3457 35.1548 26.0373 35.069 26.7433ZM40 12.3431V2.05718H48V12.3431H40ZM38 12.3431H25V2.05718H38V12.3431ZM58 5.14295V12.3431H50V2.05718H55C55.7957 2.05718 56.5587 2.38229 57.1213 2.96098C57.6839 3.53967 58 4.32455 58 5.14295ZM23 2.48302V12.3431H13.414L23 2.48302ZM6 14.7603V18.5146H2.35C2.64974 17.6496 3.13273 16.864 3.76401 16.2147C4.39529 15.5654 5.15906 15.0686 6 14.7603ZM2 25.7147V24.6862H8.589C8.32955 25.3457 8.15475 26.0373 8.069 26.7433H3C2.73478 26.7433 2.48043 26.635 2.29289 26.4421C2.10536 26.2492 2 25.9875 2 25.7147ZM16 33.9435C14.8133 33.9435 13.6533 33.5815 12.6666 32.9034C11.6799 32.2252 10.9108 31.2614 10.4567 30.1337C10.0026 29.006 9.88378 27.7651 10.1153 26.5679C10.3468 25.3708 10.9182 24.2711 11.7574 23.408C12.5965 22.5449 13.6656 21.9571 14.8295 21.719C15.9933 21.4808 17.1997 21.6031 18.2961 22.0702C19.3925 22.5373 20.3295 23.3283 20.9888 24.3432C21.6481 25.3581 22 26.5513 22 27.7719C21.9984 29.4082 21.3658 30.977 20.2409 32.1341C19.116 33.2911 17.5908 33.9418 16 33.9435ZM43 33.9435C41.8133 33.9435 40.6533 33.5815 39.6666 32.9034C38.6799 32.2252 37.9108 31.2614 37.4567 30.1337C37.0026 29.006 36.8838 27.7651 37.1153 26.5679C37.3468 25.3708 37.9182 24.2711 38.7574 23.408C39.5965 22.5449 40.6656 21.9571 41.8295 21.719C42.9933 21.4808 44.1997 21.6031 45.2961 22.0702C46.3925 22.5373 47.3295 23.3283 47.9888 24.3432C48.6481 25.3581 49 26.5513 49 27.7719C48.9984 29.4082 48.3658 30.977 47.2409 32.1341C46.116 33.2911 44.5908 33.9418 43 33.9435ZM58 25.7147C58 25.9875 57.8946 26.2492 57.7071 26.4421C57.5196 26.635 57.2652 26.7433 57 26.7433H50.931C50.8452 26.0373 50.6704 25.3457 50.411 24.6862H58V25.7147Z" fill="white"/>
</svg>
