<svg width="60" height="36" viewBox="0 0 60 36" fill="none" xmlns="http://www.w3.org/2000/svg">
<path d="M57 22.629V17.486C56.9985 16.3009 56.5999 15.1525 55.8713 14.2344C55.1427 13.3163 54.1286 12.6847 53 12.4459V5.14295C52.9984 3.77946 52.4711 2.47227 51.5338 1.50814C50.5964 0.544002 49.3256 0.00163325 48 0H28.5C28.2348 5.82566e-05 27.9805 0.108466 27.793 0.301377L16.086 12.3431H14.17C12.2343 12.3438 10.3195 12.7539 8.5445 13.5481C6.76949 14.3422 5.17224 15.5034 3.852 16.9594C3.82736 16.9845 3.804 17.011 3.782 17.0386C1.35253 19.7217 0.00122187 23.2517 0 26.9182V27.7719C0 28.0447 0.105357 28.3063 0.292893 28.4992C0.48043 28.6921 0.734784 28.8005 1 28.8005H7.069C7.31113 30.7885 8.25065 32.617 9.71105 33.9427C11.1714 35.2684 13.0522 36 15 36C16.9478 36 18.8286 35.2684 20.289 33.9427C21.7493 32.617 22.6889 30.7885 22.931 28.8005H36.069C36.3111 30.7885 37.2507 32.617 38.711 33.9427C40.1714 35.2684 42.0522 36 44 36C45.9478 36 47.8286 35.2684 49.289 33.9427C50.7493 32.617 51.6889 30.7885 51.931 28.8005H57C57.7957 28.8005 58.5587 28.4754 59.1213 27.8967C59.6839 27.318 60 26.5331 60 25.7147C60 24.8963 59.6839 24.1115 59.1213 23.5328C58.5587 22.9541 57.7957 22.629 57 22.629ZM55 17.486V18.5146C54.2043 18.5146 53.4413 18.1895 52.8787 17.6108C52.3161 17.0321 52 16.2472 52 15.4288C52.0065 15.0839 52.0704 14.7426 52.189 14.4198C52.9482 14.4691 53.6608 14.8132 54.1827 15.3824C54.7045 15.9517 54.9967 16.7036 55 17.486ZM51 5.14295V12.3431H44V2.05718H48C48.7957 2.05718 49.5587 2.38229 50.1213 2.96098C50.6839 3.53967 51 4.32455 51 5.14295ZM34 12.3431V2.05718H42V12.3431H34ZM28.914 2.05718H32V12.3431H18.914L28.914 2.05718ZM11 15.4288C11.0008 16.0283 10.8314 16.6149 10.5127 17.1168C10.1941 17.6187 9.7399 18.0141 9.20597 18.2543C8.67203 18.4946 8.08154 18.5693 7.5069 18.4694C6.93226 18.3694 6.39847 18.0992 5.971 17.6917C7.38562 16.357 9.08789 15.3866 10.938 14.86C10.9761 15.0472 10.9969 15.2376 11 15.4288ZM15 33.9435C13.8133 33.9435 12.6533 33.5815 11.6666 32.9034C10.6799 32.2252 9.91085 31.2614 9.45672 30.1337C9.0026 29.006 8.88378 27.7651 9.11529 26.5679C9.3468 25.3708 9.91824 24.2711 10.7574 23.408C11.5965 22.5449 12.6656 21.9571 13.8295 21.719C14.9933 21.4808 16.1997 21.6031 17.2961 22.0702C18.3925 22.5373 19.3295 23.3283 19.9888 24.3432C20.6481 25.3581 21 26.5513 21 27.7719C20.9984 29.4082 20.3658 30.977 19.2409 32.1341C18.116 33.2911 16.5908 33.9418 15 33.9435ZM44 33.9435C42.8133 33.9435 41.6533 33.5815 40.6666 32.9034C39.6799 32.2252 38.9108 31.2614 38.4567 30.1337C38.0026 29.006 37.8838 27.7651 38.1153 26.5679C38.3468 25.3708 38.9182 24.2711 39.7574 23.408C40.5965 22.5449 41.6656 21.9571 42.8295 21.719C43.9933 21.4808 45.1997 21.6031 46.2961 22.0702C47.3925 22.5373 48.3295 23.3283 48.9888 24.3432C49.6481 25.3581 50 26.5513 50 27.7719C49.9984 29.4082 49.3658 30.977 48.2409 32.1341C47.116 33.2911 45.5908 33.9418 44 33.9435ZM57 26.7433H51.931C51.6889 24.7554 50.7493 22.9268 49.289 21.6011C47.8286 20.2754 45.9478 19.5438 44 19.5438C42.0522 19.5438 40.1714 20.2754 38.711 21.6011C37.2507 22.9268 36.3111 24.7554 36.069 26.7433H22.931C22.6889 24.7554 21.7493 22.9268 20.289 21.6011C18.8286 20.2754 16.9478 19.5438 15 19.5438C13.0522 19.5438 11.1714 20.2754 9.71105 21.6011C8.25065 22.9268 7.31113 24.7554 7.069 26.7433H2C2.03819 24.0031 2.95459 21.3525 4.607 19.2027C5.37598 19.9468 6.35488 20.4204 7.40247 20.5551C8.45007 20.6898 9.51219 20.4788 10.4356 19.9524C11.359 19.426 12.096 18.6114 12.5402 17.6263C12.9844 16.6411 13.1128 15.5363 12.907 14.4712C13.3265 14.4253 13.7481 14.4016 14.17 14.4003H50.114C50.0416 14.7382 50.0034 15.0829 50 15.4288C50.0016 16.7923 50.5289 18.0995 51.4662 19.0637C52.4036 20.0278 53.6744 20.5702 55 20.5718V23.6576C55 23.9304 55.1054 24.192 55.2929 24.3849C55.4804 24.5778 55.7348 24.6862 56 24.6862H57C57.2652 24.6862 57.5196 24.7945 57.7071 24.9874C57.8946 25.1803 58 25.4419 58 25.7147C58 25.9875 57.8946 26.2492 57.7071 26.4421C57.5196 26.635 57.2652 26.7433 57 26.7433Z" fill="white"/>
<path d="M15 24.686C14.4067 24.686 13.8266 24.867 13.3333 25.2061C12.8399 25.5452 12.4554 26.0271 12.2284 26.5909C12.0013 27.1548 11.9419 27.7752 12.0576 28.3738C12.1734 28.9724 12.4591 29.5222 12.8787 29.9538C13.2982 30.3853 13.8328 30.6792 14.4147 30.7983C14.9967 30.9173 15.5999 30.8562 16.1481 30.6227C16.6962 30.3891 17.1648 29.9936 17.4944 29.4862C17.8241 28.9787 18 28.3821 18 27.7718C18 26.9534 17.6839 26.1685 17.1213 25.5898C16.5587 25.0111 15.7957 24.686 15 24.686ZM15 28.8004C14.8022 28.8004 14.6089 28.7401 14.4444 28.627C14.28 28.514 14.1518 28.3534 14.0761 28.1654C14.0004 27.9775 13.9806 27.7707 14.0192 27.5711C14.0578 27.3716 14.153 27.1883 14.2929 27.0445C14.4327 26.9006 14.6109 26.8027 14.8049 26.763C14.9989 26.7233 15.2 26.7437 15.3827 26.8215C15.5654 26.8994 15.7216 27.0312 15.8315 27.2004C15.9414 27.3695 16 27.5684 16 27.7718C16 28.0446 15.8946 28.3062 15.7071 28.4991C15.5196 28.692 15.2652 28.8004 15 28.8004Z" fill="white"/>
<path d="M44 24.686C43.4067 24.686 42.8266 24.867 42.3333 25.2061C41.8399 25.5452 41.4554 26.0271 41.2284 26.5909C41.0013 27.1548 40.9419 27.7752 41.0576 28.3738C41.1734 28.9724 41.4591 29.5222 41.8787 29.9538C42.2982 30.3853 42.8328 30.6792 43.4147 30.7983C43.9967 30.9173 44.5999 30.8562 45.148 30.6227C45.6962 30.3891 46.1648 29.9936 46.4944 29.4862C46.8241 28.9787 47 28.3821 47 27.7718C47 26.9534 46.6839 26.1685 46.1213 25.5898C45.5587 25.0111 44.7957 24.686 44 24.686ZM44 28.8004C43.8022 28.8004 43.6089 28.7401 43.4444 28.627C43.28 28.514 43.1518 28.3534 43.0761 28.1654C43.0004 27.9775 42.9806 27.7707 43.0192 27.5711C43.0578 27.3716 43.153 27.1883 43.2929 27.0445C43.4327 26.9006 43.6109 26.8027 43.8049 26.763C43.9989 26.7233 44.2 26.7437 44.3827 26.8215C44.5654 26.8994 44.7216 27.0312 44.8315 27.2004C44.9414 27.3695 45 27.5684 45 27.7718C45 28.0446 44.8946 28.3062 44.7071 28.4991C44.5196 28.692 44.2652 28.8004 44 28.8004Z" fill="white"/>
</svg>
